<?xml version="1.0" encoding="utf-8"?>
<!-- Generator: Adobe Illustrator 17.1.0, SVG Export Plug-In . SVG Version: 6.00 Build 0)  -->
<!DOCTYPE svg PUBLIC "-//W3C//DTD SVG 1.1//EN" "http://www.w3.org/Graphics/SVG/1.1/DTD/svg11.dtd">
<svg version="1.1" id="Layer_1" xmlns="http://www.w3.org/2000/svg" xmlns:xlink="http://www.w3.org/1999/xlink" x="0px" y="0px"
	 viewBox="0 0 595.4 154.8" enable-background="new 0 0 595.4 154.8" xml:space="preserve">
<g>
	<g>
		<path fill="#003999" d="M198,34.9V13.8l-8.2,15.7h-3.4l-8.2-15.7v21.1H172V3h6.7l9.4,18.1L197.6,3h6.6v31.9H198z"/>
		<path fill="#003999" d="M224.5,35.1c-2.3,0-4.5-0.5-6.4-1.4c-1.9-0.9-3.5-2.1-4.9-3.6c-1.4-1.5-2.4-3.2-3.2-5.2
			c-0.8-1.9-1.1-3.9-1.1-6c0-2.1,0.4-4.2,1.2-6.1c0.8-1.9,1.9-3.7,3.3-5.2c1.4-1.5,3.1-2.7,5-3.6c1.9-0.9,4-1.3,6.3-1.3
			c2.3,0,4.4,0.5,6.3,1.4c1.9,0.9,3.5,2.2,4.9,3.7c1.3,1.5,2.4,3.3,3.1,5.2c0.7,1.9,1.1,3.9,1.1,5.9c0,2.1-0.4,4.2-1.2,6.1
			c-0.8,1.9-1.9,3.6-3.2,5.1c-1.4,1.5-3,2.7-4.9,3.5C228.8,34.7,226.7,35.1,224.5,35.1z M215.2,19c0,1.4,0.2,2.7,0.6,4
			c0.4,1.3,1,2.4,1.8,3.4s1.8,1.8,2.9,2.4c1.2,0.6,2.5,0.9,3.9,0.9c1.5,0,2.8-0.3,4-0.9c1.2-0.6,2.1-1.4,2.9-2.4
			c0.8-1,1.4-2.2,1.8-3.4c0.4-1.3,0.6-2.6,0.6-3.9c0-1.4-0.2-2.7-0.7-4c-0.4-1.3-1-2.4-1.8-3.4c-0.8-1-1.8-1.8-2.9-2.4
			c-1.2-0.6-2.5-0.9-3.9-0.9c-1.5,0-2.8,0.3-4,0.9c-1.2,0.6-2.1,1.4-2.9,2.4c-0.8,1-1.4,2.1-1.8,3.4C215.4,16.4,215.2,17.7,215.2,19
			z"/>
		<path fill="#003999" d="M248.2,3l8.6,24.1L265.3,3h6.5l-12.5,31.9h-5.2L241.6,3H248.2z"/>
		<path fill="#003999" d="M275.3,34.9V3h6.2v31.9H275.3z"/>
		<path fill="#003999" d="M294.3,14.5v20.4h-6.2V3h4.8L309.6,24V3.1h6.2v31.8h-5L294.3,14.5z"/>
		<path fill="#003999" d="M344.6,31.3c-2.5,2.5-5.5,3.8-8.9,3.8c-2.1,0-4.1-0.4-5.9-1.3c-1.8-0.8-3.4-2-4.8-3.5
			c-1.4-1.5-2.4-3.2-3.2-5.2c-0.8-2-1.2-4.1-1.2-6.4c0-2.2,0.4-4.2,1.2-6.2c0.8-1.9,1.9-3.6,3.3-5.1c1.4-1.5,3-2.6,4.9-3.5
			c1.9-0.9,3.9-1.3,6.2-1.3c3,0,5.6,0.6,7.7,1.9c2.1,1.3,3.8,2.9,4.8,5.1l-4.6,3.4c-0.8-1.6-1.9-2.8-3.4-3.6c-1.5-0.8-3-1.3-4.7-1.3
			c-1.4,0-2.6,0.3-3.7,0.9c-1.1,0.6-2.1,1.3-2.9,2.3s-1.4,2.1-1.8,3.4c-0.4,1.3-0.7,2.6-0.7,4.1c0,1.5,0.2,2.9,0.7,4.2
			c0.5,1.3,1.1,2.4,2,3.4c0.8,1,1.8,1.7,3,2.3c1.2,0.6,2.4,0.8,3.8,0.8c3.1,0,5.9-1.5,8.4-4.4v-2.2h-6.4v-4.5h11.6v16.4h-5.1V31.3z"
			/>
		<path fill="#003999" d="M365.8,34.9V3h21.5v5.4h-15.2v8.2h12.7v5h-12.7v13.2H365.8z"/>
		<path fill="#003999" d="M405.3,35.1c-2.3,0-4.5-0.5-6.4-1.4c-1.9-0.9-3.5-2.1-4.9-3.6c-1.4-1.5-2.4-3.2-3.2-5.2
			c-0.7-1.9-1.1-3.9-1.1-6c0-2.1,0.4-4.2,1.2-6.1c0.8-1.9,1.9-3.7,3.3-5.2c1.4-1.5,3.1-2.7,5-3.6c1.9-0.9,4-1.3,6.3-1.3
			c2.3,0,4.4,0.5,6.3,1.4c1.9,0.9,3.5,2.2,4.9,3.7c1.3,1.5,2.4,3.3,3.1,5.2c0.7,1.9,1.1,3.9,1.1,5.9c0,2.1-0.4,4.2-1.2,6.1
			c-0.8,1.9-1.9,3.6-3.2,5.1c-1.4,1.5-3,2.7-4.9,3.5C409.6,34.7,407.5,35.1,405.3,35.1z M396,19c0,1.4,0.2,2.7,0.6,4
			c0.4,1.3,1,2.4,1.8,3.4s1.8,1.8,2.9,2.4c1.2,0.6,2.5,0.9,3.9,0.9c1.5,0,2.8-0.3,4-0.9c1.2-0.6,2.1-1.4,2.9-2.4
			c0.8-1,1.4-2.2,1.8-3.4c0.4-1.3,0.6-2.6,0.6-3.9c0-1.4-0.2-2.7-0.7-4c-0.4-1.3-1.1-2.4-1.8-3.4c-0.8-1-1.8-1.8-2.9-2.4
			c-1.2-0.6-2.5-0.9-3.9-0.9c-1.5,0-2.8,0.3-4,0.9c-1.2,0.6-2.1,1.4-2.9,2.4c-0.8,1-1.4,2.1-1.8,3.4C396.2,16.4,396,17.7,396,19z"/>
		<path fill="#003999" d="M425.7,34.9V3h14.1c1.5,0,2.8,0.3,4.1,0.9c1.2,0.6,2.3,1.4,3.2,2.4c0.9,1,1.6,2.1,2.1,3.4
			c0.5,1.3,0.8,2.6,0.8,3.8c0,2.1-0.5,3.9-1.6,5.6c-1,1.7-2.4,2.9-4.2,3.7l7.3,12h-7L438,24.2h-6.1v10.7H425.7z M431.9,18.8h7.8
			c0.6,0,1.1-0.1,1.6-0.4c0.5-0.3,0.9-0.6,1.3-1.1c0.4-0.5,0.6-1,0.9-1.6s0.3-1.3,0.3-2c0-0.7-0.1-1.4-0.4-2.1
			c-0.2-0.6-0.6-1.2-1-1.6c-0.4-0.5-0.9-0.8-1.4-1.1c-0.5-0.3-1.1-0.4-1.6-0.4h-7.5V18.8z"/>
		<path fill="#003999" d="M465.8,3.1h5.7l3.6,10.5l3.6-10.5h5.8L479,17.6l4,10.2l9-24.8h6.7l-13,31.9h-5.2l-5.5-13.4l-5.5,13.4h-5.2
			L451.5,3h6.7l9.1,24.8l4-10.2L465.8,3.1z"/>
		<path fill="#003999" d="M510.2,3h5.5l12.1,31.9h-6.4l-3-7.9h-11.2l-2.9,7.9H498L510.2,3z M517.3,22.6l-4.4-12.5l-4.6,12.5H517.3z"
			/>
		<path fill="#003999" d="M531.3,34.9V3h14.1c1.5,0,2.8,0.3,4.1,0.9c1.2,0.6,2.3,1.4,3.2,2.4c0.9,1,1.6,2.1,2.1,3.4
			c0.5,1.3,0.8,2.6,0.8,3.8c0,2.1-0.5,3.9-1.6,5.6c-1,1.7-2.4,2.9-4.2,3.7l7.3,12h-7l-6.5-10.7h-6.1v10.7H531.3z M537.5,18.8h7.8
			c0.6,0,1.1-0.1,1.6-0.4c0.5-0.3,0.9-0.6,1.3-1.1c0.4-0.5,0.6-1,0.9-1.6c0.2-0.6,0.3-1.3,0.3-2c0-0.7-0.1-1.4-0.4-2.1
			c-0.2-0.6-0.6-1.2-1-1.6c-0.4-0.5-0.9-0.8-1.4-1.1c-0.5-0.3-1.1-0.4-1.6-0.4h-7.5V18.8z"/>
		<path fill="#003999" d="M561.2,34.9V3h11.6c2.6,0,4.9,0.4,6.9,1.3c2,0.8,3.6,2,4.9,3.4c1.3,1.4,2.3,3.1,3,5c0.7,1.9,1,4,1,6.2
			c0,2.4-0.4,4.6-1.1,6.6c-0.7,2-1.8,3.6-3.2,5c-1.4,1.4-3,2.5-5,3.2c-1.9,0.8-4.1,1.1-6.5,1.1H561.2z M582.3,18.9
			c0-1.5-0.2-2.9-0.6-4.2c-0.4-1.3-1-2.4-1.8-3.3c-0.8-0.9-1.8-1.6-3-2.2c-1.2-0.5-2.5-0.8-4-0.8h-5.4v21h5.4c1.5,0,2.9-0.3,4.1-0.8
			c1.2-0.5,2.2-1.3,3-2.2c0.8-0.9,1.4-2.1,1.8-3.3C582.1,21.8,582.3,20.4,582.3,18.9z"/>
	</g>
	<g>
		<path fill="#003999" d="M217.8,56.3h-18.1v46.7h-10.9V56.3h-18.1v-9.6h47V56.3z"/>
		<path fill="#003999" d="M248.9,103.5c-4.1,0-7.9-0.8-11.3-2.4c-3.4-1.6-6.3-3.8-8.7-6.4c-2.4-2.7-4.3-5.7-5.6-9.2
			c-1.3-3.4-2-7-2-10.6c0-3.8,0.7-7.4,2.1-10.8c1.4-3.4,3.3-6.5,5.8-9.1c2.5-2.6,5.4-4.7,8.8-6.3c3.4-1.6,7.1-2.3,11.1-2.3
			c4.1,0,7.8,0.8,11.2,2.5c3.4,1.7,6.2,3.8,8.6,6.5c2.4,2.7,4.2,5.8,5.6,9.2c1.3,3.4,2,6.9,2,10.5c0,3.8-0.7,7.3-2.1,10.8
			c-1.4,3.4-3.3,6.4-5.7,9c-2.4,2.6-5.4,4.7-8.7,6.3C256.6,102.7,252.9,103.5,248.9,103.5z M232.5,74.9c0,2.4,0.4,4.8,1.1,7.1
			c0.7,2.3,1.8,4.3,3.2,6c1.4,1.7,3.1,3.1,5.2,4.2c2,1.1,4.4,1.6,7,1.6c2.7,0,5-0.5,7-1.6c2-1.1,3.8-2.5,5.2-4.3
			c1.4-1.8,2.5-3.8,3.2-6.1c0.7-2.2,1.1-4.5,1.1-6.9c0-2.4-0.4-4.8-1.2-7.1c-0.8-2.3-1.9-4.3-3.3-6c-1.4-1.7-3.1-3.1-5.2-4.2
			c-2-1-4.3-1.5-6.9-1.5c-2.7,0-5,0.5-7.1,1.6c-2.1,1.1-3.8,2.5-5.2,4.3c-1.4,1.8-2.4,3.8-3.1,6C232.9,70.3,232.5,72.6,232.5,74.9z"
			/>
		<path fill="#003999" d="M324.2,96.7c-4.5,4.5-9.8,6.7-15.8,6.7c-3.7,0-7.2-0.7-10.5-2.2c-3.3-1.5-6.1-3.5-8.5-6.1
			c-2.4-2.6-4.3-5.6-5.7-9.2c-1.4-3.5-2.1-7.3-2.1-11.4c0-3.9,0.7-7.5,2.1-10.9c1.4-3.4,3.3-6.4,5.8-9c2.5-2.6,5.4-4.6,8.7-6.1
			c3.3-1.5,7-2.3,10.9-2.3c5.3,0,9.8,1.1,13.6,3.3c3.8,2.2,6.6,5.2,8.6,9l-8.2,6c-1.4-2.8-3.4-4.9-6-6.4c-2.6-1.5-5.4-2.2-8.4-2.2
			c-2.4,0-4.6,0.5-6.6,1.5c-2,1-3.7,2.4-5.1,4.1c-1.4,1.7-2.5,3.8-3.3,6c-0.8,2.3-1.2,4.7-1.2,7.2c0,2.6,0.4,5.1,1.3,7.4
			c0.8,2.3,2,4.3,3.5,6c1.5,1.7,3.2,3,5.3,4c2,1,4.3,1.5,6.6,1.5c5.5,0,10.4-2.6,14.8-7.7v-4h-11.4v-8h20.4v29h-9.1V96.7z"/>
		<path fill="#003999" d="M381.8,93.5v9.6h-39.2V46.7h38.5v9.6h-27.5v13.6h23.8v8.9h-23.8v14.7H381.8z"/>
		<path fill="#003999" d="M432.7,56.3h-18.1v46.7h-10.9V56.3h-18.1v-9.6h47V56.3z"/>
		<path fill="#003999" d="M487.2,46.7v56.3h-10.9V79h-25.6v24h-11V46.7h11v22.8h25.6V46.7H487.2z"/>
		<path fill="#003999" d="M538.2,93.5v9.6h-39.2V46.7h38.5v9.6h-27.5v13.6h23.8v8.9h-23.8v14.7H538.2z"/>
		<path fill="#003999" d="M546.7,103.1V46.7h25c2.6,0,5,0.5,7.2,1.6c2.2,1.1,4.1,2.5,5.7,4.3c1.6,1.8,2.8,3.8,3.7,6
			c0.9,2.2,1.4,4.5,1.4,6.8c0,3.7-0.9,7-2.7,10c-1.8,3-4.3,5.1-7.4,6.5l12.9,21.2h-12.3l-11.5-18.9h-10.8v18.9H546.7z M557.7,74.6
			h13.8c1,0,1.9-0.2,2.8-0.7c0.9-0.5,1.6-1.1,2.3-1.9c0.6-0.8,1.1-1.8,1.5-2.9c0.4-1.1,0.6-2.3,0.6-3.6c0-1.3-0.2-2.5-0.6-3.7
			c-0.4-1.1-1-2.1-1.7-2.9c-0.7-0.8-1.5-1.5-2.5-1.9c-0.9-0.4-1.9-0.7-2.8-0.7h-13.3V74.6z"/>
	</g>
	<rect y="0" fill="#FFFFFF" width="159.4" height="108"/>
	<rect x="3.1" y="3" fill="#003999" width="153.3" height="102"/>
	<polygon fill="#FFEC00" points="76.4,25.2 79.7,22.8 82.9,25.2 81.7,21.4 85,19 80.9,19 79.7,15.2 78.4,19 74.4,19 77.7,21.4 	"/>
	<polygon fill="#FFEC00" points="59.7,29.7 62.9,27.3 66.2,29.7 64.9,25.9 68.2,23.5 64.2,23.5 62.9,19.6 61.7,23.5 57.7,23.5
		60.9,25.9 	"/>
	<polygon fill="#FFEC00" points="50.7,31.9 49.5,35.7 45.4,35.7 48.7,38.1 47.5,41.9 50.7,39.6 53.9,41.9 52.7,38.1 56,35.7
		51.9,35.7 	"/>
	<polygon fill="#FFEC00" points="46.2,56.2 49.4,58.6 48.2,54.8 51.5,52.4 47.4,52.4 46.2,48.6 45,52.4 40.9,52.4 44.2,54.8
		43,58.6 	"/>
	<polygon fill="#FFEC00" points="51.9,69.2 50.7,65.3 49.5,69.2 45.4,69.2 48.7,71.5 47.5,75.3 50.7,73 53.9,75.3 52.7,71.5
		56,69.2 	"/>
	<polygon fill="#FFEC00" points="64.2,81.4 63,77.5 61.7,81.4 57.7,81.4 61,83.7 59.7,87.6 63,85.2 66.2,87.6 65,83.7 68.3,81.4
		"/>
	<polygon fill="#FFEC00" points="80.9,85.8 79.7,82 78.4,85.8 74.4,85.8 77.7,88.2 76.4,92 79.7,89.6 82.9,92 81.7,88.2 85,85.8
		"/>
	<polygon fill="#FFEC00" points="97.6,81.4 96.4,77.5 95.2,81.4 91.1,81.4 94.4,83.7 93.2,87.6 96.4,85.2 99.6,87.6 98.4,83.7
		101.7,81.4 	"/>
	<polygon fill="#FFEC00" points="109.9,69.2 108.7,65.3 107.4,69.2 103.4,69.2 106.7,71.5 105.4,75.3 108.7,73 111.9,75.3
		110.7,71.5 114,69.2 	"/>
	<polygon fill="#FFEC00" points="118.4,52.4 114.4,52.4 113.1,48.5 111.9,52.4 107.8,52.4 111.1,54.7 109.9,58.5 113.1,56.2
		116.4,58.5 115.1,54.7 	"/>
	<polygon fill="#FFEC00" points="105.4,41.9 108.7,39.5 111.9,41.9 110.7,38 114,35.7 109.9,35.7 108.7,31.8 107.4,35.7 103.4,35.7
		106.7,38 	"/>
	<polygon fill="#FFEC00" points="96.4,19.6 95.2,23.5 91.2,23.5 94.4,25.9 93.2,29.7 96.5,27.3 99.7,29.7 98.5,25.9 101.7,23.5
		97.7,23.5 	"/>
	<g>
		<polygon fill="#003998" points="5.9,142.6 9.4,137.8 15,130.4 15,139.7 23.8,142.6 15,145.6 14.8,154.8 9.4,147.4 		"/>
		<g>
			<g>
				<path fill="#101012" d="M46.6,135.3v2.9H42v12.4h-3.5v-12.4h-4.6v-2.9H46.6z"/>
				<path fill="#101012" d="M58.1,135.3h3.5v15.3h-3.5v-6.5h-5.8v6.5h-3.5v-15.3h3.5v5.9h5.8V135.3z"/>
				<path fill="#101012" d="M65.1,135.3h3.5v15.3h-3.5V135.3z"/>
				<path fill="#101012" d="M76.3,148c0.5,0,0.9,0,1.2-0.1c0.3-0.1,0.6-0.2,0.8-0.3c0.2-0.1,0.3-0.3,0.4-0.5
					c0.1-0.2,0.1-0.4,0.1-0.6c0-0.5-0.2-0.9-0.7-1.3c-0.5-0.3-1.3-0.7-2.4-1.1c-0.5-0.2-1-0.4-1.5-0.6c-0.5-0.2-1-0.5-1.3-0.9
					c-0.4-0.3-0.7-0.8-1-1.3c-0.3-0.5-0.4-1.1-0.4-1.8c0-0.7,0.1-1.3,0.4-1.9c0.3-0.6,0.6-1.1,1.1-1.4c0.5-0.4,1.1-0.7,1.8-0.9
					c0.7-0.2,1.5-0.3,2.3-0.3c1,0,1.9,0.1,2.7,0.3c0.8,0.2,1.4,0.5,1.9,0.7l-1,2.7c-0.4-0.2-0.9-0.4-1.4-0.6
					c-0.5-0.2-1.2-0.3-1.9-0.3c-0.8,0-1.4,0.1-1.8,0.3c-0.4,0.2-0.5,0.6-0.5,1.1c0,0.3,0.1,0.5,0.2,0.7c0.1,0.2,0.3,0.4,0.6,0.5
					c0.2,0.2,0.5,0.3,0.8,0.4c0.3,0.1,0.7,0.3,1.1,0.4c0.8,0.3,1.5,0.6,2.1,0.9c0.6,0.3,1.1,0.6,1.5,1c0.4,0.4,0.7,0.8,0.9,1.3
					c0.2,0.5,0.3,1.1,0.3,1.9c0,1.4-0.5,2.5-1.5,3.3c-1,0.8-2.5,1.2-4.5,1.2c-0.7,0-1.3,0-1.8-0.1c-0.5-0.1-1-0.2-1.4-0.3
					c-0.4-0.1-0.8-0.2-1.1-0.4c-0.3-0.1-0.6-0.3-0.8-0.4l1-2.7c0.5,0.3,1,0.5,1.7,0.7C74.5,147.9,75.3,148,76.3,148z"/>
				<path fill="#101012" d="M94.9,135.1c2.3,0,4,0.4,5.3,1.2c1.2,0.8,1.8,2.1,1.8,3.9c0,1.8-0.6,3.2-1.9,4c-1.2,0.8-3,1.2-5.3,1.2
					h-1.1v5.1h-3.5v-15.1c0.8-0.1,1.5-0.3,2.4-0.3S94.2,135.1,94.9,135.1z M95.1,138.1c-0.3,0-0.5,0-0.7,0c-0.2,0-0.5,0-0.6,0v4.4
					h1.1c1.2,0,2.1-0.2,2.7-0.5c0.6-0.3,0.9-0.9,0.9-1.8c0-0.4-0.1-0.8-0.2-1.1c-0.2-0.3-0.4-0.5-0.7-0.7c-0.3-0.2-0.6-0.3-1.1-0.4
					C96.1,138.1,95.6,138.1,95.1,138.1z"/>
				<path fill="#101012" d="M109,135.1c2.3,0,4.1,0.4,5.3,1.2c1.2,0.8,1.8,2.1,1.8,3.8c0,1.1-0.2,2-0.7,2.6
					c-0.5,0.7-1.2,1.2-2.1,1.6c0.3,0.4,0.6,0.8,1,1.3c0.3,0.5,0.7,1,1,1.5c0.3,0.5,0.7,1.1,1,1.7c0.3,0.6,0.6,1.2,0.9,1.7h-3.9
					c-0.3-0.5-0.6-1-0.9-1.5c-0.3-0.5-0.6-1-0.9-1.5s-0.6-0.9-0.9-1.4c-0.3-0.4-0.6-0.8-0.9-1.2H108v5.6h-3.5v-15.1
					c0.8-0.1,1.5-0.3,2.3-0.3S108.4,135.1,109,135.1z M109.2,138.1c-0.3,0-0.5,0-0.7,0c-0.2,0-0.4,0-0.6,0v4.2h1
					c1.3,0,2.2-0.2,2.8-0.5c0.6-0.3,0.8-0.9,0.8-1.7c0-0.8-0.3-1.3-0.9-1.6S110.3,138.1,109.2,138.1z"/>
				<path fill="#101012" d="M133.5,143c0,1.3-0.2,2.5-0.6,3.5c-0.4,1-0.9,1.8-1.6,2.5c-0.7,0.7-1.5,1.2-2.4,1.5
					c-0.9,0.3-1.9,0.5-3,0.5c-1,0-2-0.2-3-0.5c-0.9-0.3-1.7-0.8-2.4-1.5c-0.7-0.7-1.2-1.5-1.6-2.5c-0.4-1-0.6-2.1-0.6-3.5
					c0-1.3,0.2-2.5,0.6-3.5c0.4-1,1-1.8,1.7-2.5c0.7-0.7,1.5-1.2,2.4-1.5c0.9-0.3,1.9-0.5,2.9-0.5c1,0,2,0.2,3,0.5
					c0.9,0.3,1.7,0.8,2.4,1.5c0.7,0.7,1.2,1.5,1.6,2.5C133.3,140.5,133.5,141.6,133.5,143z M121.8,143c0,0.8,0.1,1.4,0.3,2
					c0.2,0.6,0.4,1.1,0.8,1.6c0.3,0.4,0.8,0.8,1.3,1c0.5,0.2,1.1,0.4,1.7,0.4c0.6,0,1.2-0.1,1.7-0.4c0.5-0.2,0.9-0.6,1.3-1
					c0.3-0.4,0.6-1,0.8-1.6c0.2-0.6,0.3-1.3,0.3-2s-0.1-1.4-0.3-2c-0.2-0.6-0.5-1.1-0.8-1.6c-0.3-0.4-0.8-0.8-1.3-1
					c-0.5-0.2-1.1-0.4-1.7-0.4c-0.6,0-1.2,0.1-1.7,0.4c-0.5,0.2-0.9,0.6-1.3,1c-0.3,0.4-0.6,1-0.8,1.6
					C121.9,141.5,121.8,142.2,121.8,143z"/>
				<path fill="#101012" d="M144.2,145.5c0,0.8-0.1,1.5-0.3,2.1c-0.2,0.7-0.5,1.2-0.9,1.7c-0.4,0.5-1,0.9-1.7,1.2
					c-0.7,0.3-1.6,0.4-2.7,0.4c-1,0-1.9-0.1-2.6-0.4c-0.7-0.2-1.3-0.5-1.8-0.9l1.2-2.7c0.4,0.3,0.9,0.5,1.4,0.7
					c0.5,0.2,1,0.3,1.6,0.3c0.8,0,1.4-0.2,1.8-0.6c0.4-0.4,0.6-1.1,0.6-2.1v-10h3.5V145.5z"/>
				<path fill="#101012" d="M147.5,150.6v-15.3h10.4v2.9H151v3h6.1v2.8H151v3.7h7.4v2.9H147.5z"/>
				<path fill="#101012" d="M167.9,150.9c-2.5,0-4.4-0.7-5.7-2.1c-1.3-1.4-2-3.4-2-5.9c0-1.3,0.2-2.4,0.6-3.4c0.4-1,0.9-1.8,1.6-2.5
					c0.7-0.7,1.5-1.2,2.5-1.6c1-0.4,2-0.5,3.1-0.5c0.6,0,1.2,0,1.8,0.1c0.5,0.1,1,0.2,1.4,0.3c0.4,0.1,0.7,0.3,1,0.4
					c0.3,0.1,0.5,0.2,0.6,0.3l-1,2.8c-0.5-0.3-1-0.5-1.6-0.6c-0.6-0.2-1.3-0.3-2.1-0.3c-0.5,0-1.1,0.1-1.6,0.3
					c-0.5,0.2-1,0.5-1.3,0.9c-0.4,0.4-0.7,0.9-0.9,1.5c-0.2,0.6-0.4,1.4-0.4,2.3c0,0.7,0.1,1.4,0.2,2c0.2,0.6,0.4,1.1,0.8,1.6
					c0.3,0.4,0.8,0.8,1.4,1.1c0.6,0.3,1.2,0.4,2,0.4c0.5,0,1,0,1.3-0.1c0.4-0.1,0.8-0.1,1.1-0.2c0.3-0.1,0.6-0.2,0.8-0.3
					c0.2-0.1,0.4-0.2,0.6-0.3l1,2.8c-0.5,0.3-1.2,0.6-2.1,0.8C170.1,150.8,169.1,150.9,167.9,150.9z"/>
				<path fill="#101012" d="M187.1,135.3v2.9h-4.6v12.4h-3.5v-12.4h-4.6v-2.9H187.1z"/>
				<path fill="#101012" d="M194.7,135.3h3.5v15.3h-3.5V135.3z"/>
				<path fill="#101012" d="M205.8,148c0.5,0,0.9,0,1.2-0.1c0.3-0.1,0.6-0.2,0.8-0.3c0.2-0.1,0.3-0.3,0.4-0.5
					c0.1-0.2,0.1-0.4,0.1-0.6c0-0.5-0.2-0.9-0.7-1.3c-0.5-0.3-1.3-0.7-2.4-1.1c-0.5-0.2-1-0.4-1.5-0.6c-0.5-0.2-1-0.5-1.3-0.9
					c-0.4-0.3-0.7-0.8-1-1.3c-0.3-0.5-0.4-1.1-0.4-1.8c0-0.7,0.1-1.3,0.4-1.9c0.3-0.6,0.6-1.1,1.1-1.4c0.5-0.4,1.1-0.7,1.8-0.9
					c0.7-0.2,1.5-0.3,2.3-0.3c1,0,1.9,0.1,2.7,0.3c0.8,0.2,1.4,0.5,1.9,0.7l-1,2.7c-0.4-0.2-0.9-0.4-1.4-0.6
					c-0.5-0.2-1.2-0.3-1.9-0.3c-0.8,0-1.4,0.1-1.8,0.3c-0.4,0.2-0.5,0.6-0.5,1.1c0,0.3,0.1,0.5,0.2,0.7c0.1,0.2,0.3,0.4,0.6,0.5
					c0.2,0.2,0.5,0.3,0.8,0.4c0.3,0.1,0.7,0.3,1.1,0.4c0.8,0.3,1.5,0.6,2.1,0.9c0.6,0.3,1.1,0.6,1.5,1c0.4,0.4,0.7,0.8,0.9,1.3
					c0.2,0.5,0.3,1.1,0.3,1.9c0,1.4-0.5,2.5-1.5,3.3c-1,0.8-2.5,1.2-4.5,1.2c-0.7,0-1.3,0-1.8-0.1c-0.5-0.1-1-0.2-1.4-0.3
					c-0.4-0.1-0.8-0.2-1.1-0.4c-0.3-0.1-0.6-0.3-0.8-0.4l1-2.7c0.5,0.3,1,0.5,1.7,0.7C204,147.9,204.9,148,205.8,148z"/>
				<path fill="#101012" d="M219.8,150.6v-15.3h10.3v2.9h-6.8v3.2h6.1v2.9h-6.1v6.3H219.8z"/>
				<path fill="#101012" d="M238.5,150.9c-1.1,0-2-0.2-2.8-0.5c-0.8-0.3-1.4-0.7-1.9-1.3c-0.5-0.5-0.9-1.2-1.1-1.9
					c-0.2-0.7-0.4-1.6-0.4-2.5v-9.5h3.5v9.2c0,0.6,0.1,1.1,0.2,1.6c0.1,0.4,0.3,0.8,0.6,1.1c0.2,0.3,0.5,0.5,0.9,0.6
					s0.7,0.2,1.1,0.2c0.8,0,1.5-0.3,2-0.8c0.5-0.5,0.8-1.4,0.8-2.6v-9.2h3.5v9.5c0,0.9-0.1,1.7-0.4,2.5c-0.3,0.8-0.6,1.4-1.2,1.9
					c-0.5,0.5-1.2,1-2,1.3C240.6,150.8,239.6,150.9,238.5,150.9z"/>
				<path fill="#101012" d="M258.5,150.6c-1-1.8-2.1-3.5-3.2-5.2c-1.2-1.7-2.4-3.3-3.7-4.8v10h-3.4v-15.3h2.8c0.5,0.5,1,1.1,1.6,1.8
					c0.6,0.7,1.2,1.5,1.8,2.3c0.6,0.8,1.2,1.6,1.8,2.5c0.6,0.9,1.2,1.7,1.7,2.5v-9h3.4v15.3H258.5z"/>
				<path fill="#101012" d="M278.3,143c0,1.3-0.2,2.5-0.6,3.5c-0.4,1-1,1.8-1.8,2.5c-0.8,0.6-1.7,1.1-2.8,1.5
					c-1.1,0.3-2.3,0.5-3.7,0.5c-0.6,0-1.3,0-2.2-0.1c-0.8-0.1-1.6-0.2-2.4-0.3v-14.9c0.8-0.1,1.6-0.2,2.5-0.3
					c0.9-0.1,1.6-0.1,2.2-0.1c1.3,0,2.5,0.1,3.6,0.4c1.1,0.3,2,0.8,2.8,1.4c0.8,0.6,1.4,1.4,1.8,2.4
					C278.1,140.4,278.3,141.6,278.3,143z M268.3,147.8c0.2,0,0.4,0,0.6,0c0.2,0,0.5,0,0.8,0c1.7,0,3-0.4,3.8-1.3
					c0.8-0.9,1.3-2.1,1.3-3.6c0-1.6-0.4-2.8-1.2-3.7c-0.8-0.8-2.1-1.2-3.8-1.2c-0.2,0-0.5,0-0.7,0c-0.3,0-0.5,0-0.7,0.1V147.8z"/>
				<path fill="#101012" d="M281.2,150.6v-15.3h10.4v2.9h-6.9v3h6.1v2.8h-6.1v3.7h7.4v2.9H281.2z"/>
				<path fill="#101012" d="M308,143c0,1.3-0.2,2.5-0.6,3.5c-0.4,1-1,1.8-1.8,2.5c-0.8,0.6-1.7,1.1-2.8,1.5
					c-1.1,0.3-2.3,0.5-3.7,0.5c-0.6,0-1.3,0-2.2-0.1c-0.8-0.1-1.6-0.2-2.4-0.3v-14.9c0.8-0.1,1.6-0.2,2.5-0.3
					c0.9-0.1,1.6-0.1,2.2-0.1c1.3,0,2.5,0.1,3.6,0.4c1.1,0.3,2,0.8,2.8,1.4c0.8,0.6,1.4,1.4,1.8,2.4C307.8,140.4,308,141.6,308,143z
					 M298.1,147.8c0.2,0,0.4,0,0.6,0c0.2,0,0.5,0,0.8,0c1.7,0,3-0.4,3.8-1.3c0.8-0.9,1.3-2.1,1.3-3.6c0-1.6-0.4-2.8-1.2-3.7
					c-0.8-0.8-2.1-1.2-3.8-1.2c-0.2,0-0.5,0-0.7,0c-0.3,0-0.5,0-0.7,0.1V147.8z"/>
				<path fill="#101012" d="M321.3,150.8c-0.8,0-1.7,0-2.5-0.1c-0.8-0.1-1.7-0.2-2.6-0.4v-14.9c0.7-0.1,1.5-0.2,2.3-0.3
					c0.8-0.1,1.6-0.1,2.3-0.1c1,0,1.9,0.1,2.7,0.2c0.8,0.1,1.5,0.4,2.1,0.7c0.6,0.3,1.1,0.8,1.4,1.3c0.3,0.6,0.5,1.2,0.5,2
					c0,1.2-0.6,2.2-1.8,2.9c1,0.4,1.6,0.9,2,1.5c0.4,0.6,0.5,1.3,0.5,2.1c0,1.6-0.6,2.8-1.8,3.6
					C325.4,150.4,323.7,150.8,321.3,150.8z M319.6,141.3h1.7c1.1,0,1.8-0.1,2.3-0.4c0.5-0.3,0.7-0.7,0.7-1.3c0-0.6-0.2-1.1-0.7-1.3
					c-0.5-0.3-1.2-0.4-2.1-0.4c-0.3,0-0.6,0-1,0c-0.3,0-0.6,0-0.9,0.1V141.3z M319.6,144v4c0.3,0,0.5,0.1,0.8,0.1c0.3,0,0.6,0,1,0
					c1,0,1.9-0.1,2.5-0.4c0.6-0.3,1-0.8,1-1.6c0-0.7-0.3-1.2-0.8-1.5c-0.5-0.3-1.3-0.5-2.3-0.5H319.6z"/>
				<path fill="#101012" d="M336,141.6c0.6-1,1.2-2.1,1.8-3.1c0.6-1,1.1-2.1,1.6-3.2h3.8c-0.8,1.7-1.7,3.3-2.6,4.8
					c-0.9,1.5-1.9,3.1-2.9,4.7v5.9h-3.5v-5.8c-1-1.6-2-3.1-2.9-4.7c-0.9-1.6-1.8-3.2-2.6-4.8h4c0.5,1.1,1,2.1,1.5,3.2
					C334.8,139.5,335.3,140.6,336,141.6z"/>
				<path fill="#101012" d="M361.6,135.3v2.9H357v12.4h-3.5v-12.4h-4.6v-2.9H361.6z"/>
				<path fill="#101012" d="M373.1,135.3h3.5v15.3h-3.5v-6.5h-5.8v6.5h-3.5v-15.3h3.5v5.9h5.8V135.3z"/>
				<path fill="#101012" d="M380.1,150.6v-15.3h10.4v2.9h-6.9v3h6.1v2.8h-6.1v3.7h7.4v2.9H380.1z"/>
				<path fill="#101012" d="M398.8,150.6v-15.3h10.4v2.9h-6.9v3h6.1v2.8h-6.1v3.7h7.4v2.9H398.8z"/>
				<path fill="#101012" d="M418.2,150.9c-1.1,0-2-0.2-2.8-0.5c-0.8-0.3-1.4-0.7-1.9-1.3c-0.5-0.5-0.9-1.2-1.1-1.9
					c-0.2-0.7-0.4-1.6-0.4-2.5v-9.5h3.5v9.2c0,0.6,0.1,1.1,0.2,1.6c0.1,0.4,0.3,0.8,0.6,1.1c0.2,0.3,0.5,0.5,0.9,0.6
					s0.7,0.2,1.1,0.2c0.8,0,1.5-0.3,2-0.8c0.5-0.5,0.8-1.4,0.8-2.6v-9.2h3.5v9.5c0,0.9-0.1,1.7-0.4,2.5c-0.3,0.8-0.6,1.4-1.2,1.9
					c-0.5,0.5-1.2,1-2,1.3C420.3,150.8,419.3,150.9,418.2,150.9z"/>
				<path fill="#101012" d="M432.4,135.1c2.3,0,4.1,0.4,5.3,1.2c1.2,0.8,1.8,2.1,1.8,3.8c0,1.1-0.2,2-0.7,2.6
					c-0.5,0.7-1.2,1.2-2.1,1.6c0.3,0.4,0.6,0.8,1,1.3c0.3,0.5,0.7,1,1,1.5c0.3,0.5,0.7,1.1,1,1.7c0.3,0.6,0.6,1.2,0.9,1.7h-3.9
					c-0.3-0.5-0.6-1-0.9-1.5c-0.3-0.5-0.6-1-0.9-1.5s-0.6-0.9-0.9-1.4c-0.3-0.4-0.6-0.8-0.9-1.2h-1.7v5.6h-3.5v-15.1
					c0.8-0.1,1.5-0.3,2.3-0.3C431,135.2,431.7,135.1,432.4,135.1z M432.6,138.1c-0.3,0-0.5,0-0.7,0c-0.2,0-0.4,0-0.6,0v4.2h1
					c1.3,0,2.2-0.2,2.8-0.5c0.6-0.3,0.8-0.9,0.8-1.7c0-0.8-0.3-1.3-0.9-1.6C434.5,138.2,433.7,138.1,432.6,138.1z"/>
				<path fill="#101012" d="M456.8,143c0,1.3-0.2,2.5-0.6,3.5c-0.4,1-0.9,1.8-1.6,2.5c-0.7,0.7-1.5,1.2-2.4,1.5
					c-0.9,0.3-1.9,0.5-3,0.5c-1,0-2-0.2-3-0.5c-0.9-0.3-1.7-0.8-2.4-1.5c-0.7-0.7-1.2-1.5-1.6-2.5c-0.4-1-0.6-2.1-0.6-3.5
					c0-1.3,0.2-2.5,0.6-3.5c0.4-1,1-1.8,1.7-2.5c0.7-0.7,1.5-1.2,2.4-1.5c0.9-0.3,1.9-0.5,2.9-0.5c1,0,2,0.2,3,0.5
					c0.9,0.3,1.7,0.8,2.4,1.5c0.7,0.7,1.2,1.5,1.6,2.5C456.6,140.5,456.8,141.6,456.8,143z M445.1,143c0,0.8,0.1,1.4,0.3,2
					c0.2,0.6,0.4,1.1,0.8,1.6c0.3,0.4,0.8,0.8,1.3,1c0.5,0.2,1.1,0.4,1.7,0.4c0.6,0,1.2-0.1,1.7-0.4c0.5-0.2,0.9-0.6,1.3-1
					c0.3-0.4,0.6-1,0.8-1.6c0.2-0.6,0.3-1.3,0.3-2s-0.1-1.4-0.3-2c-0.2-0.6-0.5-1.1-0.8-1.6c-0.3-0.4-0.8-0.8-1.3-1
					c-0.5-0.2-1.1-0.4-1.7-0.4c-0.6,0-1.2,0.1-1.7,0.4c-0.5,0.2-0.9,0.6-1.3,1c-0.3,0.4-0.6,1-0.8,1.6
					C445.2,141.5,445.1,142.2,445.1,143z"/>
				<path fill="#101012" d="M464.3,135.1c2.3,0,4,0.4,5.3,1.2c1.2,0.8,1.8,2.1,1.8,3.9c0,1.8-0.6,3.2-1.9,4c-1.2,0.8-3,1.2-5.3,1.2
					h-1.1v5.1h-3.5v-15.1c0.8-0.1,1.5-0.3,2.4-0.3S463.7,135.1,464.3,135.1z M464.5,138.1c-0.3,0-0.5,0-0.7,0c-0.2,0-0.5,0-0.6,0
					v4.4h1.1c1.2,0,2.1-0.2,2.7-0.5c0.6-0.3,0.9-0.9,0.9-1.8c0-0.4-0.1-0.8-0.2-1.1c-0.2-0.3-0.4-0.5-0.7-0.7
					c-0.3-0.2-0.6-0.3-1.1-0.4C465.5,138.1,465,138.1,464.5,138.1z"/>
				<path fill="#101012" d="M473.9,150.6v-15.3h10.4v2.9h-6.9v3h6.1v2.8h-6.1v3.7h7.4v2.9H473.9z"/>
				<path fill="#101012" d="M497.6,150.6c-0.2-0.5-0.4-1.1-0.6-1.6c-0.2-0.6-0.4-1.1-0.6-1.7h-6c-0.2,0.6-0.4,1.1-0.6,1.7
					c-0.2,0.6-0.4,1.1-0.5,1.6h-3.6c0.6-1.7,1.1-3.2,1.6-4.6c0.5-1.4,1-2.7,1.5-4c0.5-1.2,1-2.4,1.5-3.5c0.5-1.1,1-2.2,1.5-3.3h3.3
					c0.5,1.1,1,2.2,1.5,3.3c0.5,1.1,1,2.3,1.5,3.5c0.5,1.2,1,2.6,1.5,4c0.5,1.4,1.1,2.9,1.6,4.6H497.6z M493.5,138.8
					c-0.1,0.2-0.2,0.5-0.3,0.9c-0.1,0.4-0.3,0.8-0.5,1.3c-0.2,0.5-0.4,1.1-0.6,1.7c-0.2,0.6-0.5,1.2-0.7,1.9h4.4
					c-0.2-0.7-0.5-1.3-0.7-1.9c-0.2-0.6-0.4-1.2-0.6-1.7c-0.2-0.5-0.4-0.9-0.5-1.3C493.7,139.3,493.6,139,493.5,138.8z"/>
				<path fill="#101012" d="M513.6,150.6c-1-1.8-2.1-3.5-3.2-5.2c-1.2-1.7-2.4-3.3-3.7-4.8v10h-3.4v-15.3h2.8c0.5,0.5,1,1.1,1.6,1.8
					c0.6,0.7,1.2,1.5,1.8,2.3c0.6,0.8,1.2,1.6,1.8,2.5c0.6,0.9,1.2,1.7,1.7,2.5v-9h3.4v15.3H513.6z"/>
				<path fill="#101012" d="M531.3,150.9c-1.1,0-2-0.2-2.8-0.5c-0.8-0.3-1.4-0.7-1.9-1.3c-0.5-0.5-0.9-1.2-1.1-1.9
					c-0.2-0.7-0.4-1.6-0.4-2.5v-9.5h3.5v9.2c0,0.6,0.1,1.1,0.2,1.6c0.1,0.4,0.3,0.8,0.6,1.1c0.2,0.3,0.5,0.5,0.9,0.6
					c0.3,0.1,0.7,0.2,1.1,0.2c0.8,0,1.5-0.3,2-0.8c0.5-0.5,0.8-1.4,0.8-2.6v-9.2h3.5v9.5c0,0.9-0.1,1.7-0.4,2.5
					c-0.3,0.8-0.6,1.4-1.2,1.9c-0.5,0.5-1.2,1-2,1.3C533.4,150.8,532.4,150.9,531.3,150.9z"/>
				<path fill="#101012" d="M551.3,150.6c-1-1.8-2.1-3.5-3.2-5.2c-1.2-1.7-2.4-3.3-3.7-4.8v10H541v-15.3h2.8c0.5,0.5,1,1.1,1.6,1.8
					c0.6,0.7,1.2,1.5,1.8,2.3c0.6,0.8,1.2,1.6,1.8,2.5c0.6,0.9,1.2,1.7,1.7,2.5v-9h3.4v15.3H551.3z"/>
				<path fill="#101012" d="M557.7,135.3h3.5v15.3h-3.5V135.3z"/>
				<path fill="#101012" d="M579.3,143c0,1.3-0.2,2.5-0.6,3.5c-0.4,1-0.9,1.8-1.6,2.5c-0.7,0.7-1.5,1.2-2.4,1.5
					c-0.9,0.3-1.9,0.5-3,0.5c-1,0-2-0.2-3-0.5c-0.9-0.3-1.7-0.8-2.4-1.5c-0.7-0.7-1.2-1.5-1.6-2.5c-0.4-1-0.6-2.1-0.6-3.5
					c0-1.3,0.2-2.5,0.6-3.5c0.4-1,1-1.8,1.7-2.5c0.7-0.7,1.5-1.2,2.4-1.5c0.9-0.3,1.9-0.5,2.9-0.5c1,0,2,0.2,3,0.5
					c0.9,0.3,1.7,0.8,2.4,1.5c0.7,0.7,1.2,1.5,1.6,2.5C579.1,140.5,579.3,141.6,579.3,143z M567.6,143c0,0.8,0.1,1.4,0.3,2
					c0.2,0.6,0.4,1.1,0.8,1.6c0.3,0.4,0.8,0.8,1.3,1c0.5,0.2,1.1,0.4,1.7,0.4c0.6,0,1.2-0.1,1.7-0.4c0.5-0.2,0.9-0.6,1.3-1
					c0.3-0.4,0.6-1,0.8-1.6c0.2-0.6,0.3-1.3,0.3-2s-0.1-1.4-0.3-2c-0.2-0.6-0.5-1.1-0.8-1.6c-0.3-0.4-0.8-0.8-1.3-1
					c-0.5-0.2-1.1-0.4-1.7-0.4c-0.6,0-1.2,0.1-1.7,0.4c-0.5,0.2-0.9,0.6-1.3,1c-0.3,0.4-0.6,1-0.8,1.6
					C567.7,141.5,567.6,142.2,567.6,143z"/>
				<path fill="#101012" d="M592.5,150.6c-1-1.8-2.1-3.5-3.2-5.2s-2.4-3.3-3.7-4.8v10h-3.4v-15.3h2.8c0.5,0.5,1,1.1,1.6,1.8
					c0.6,0.7,1.2,1.5,1.8,2.3c0.6,0.8,1.2,1.6,1.8,2.5c0.6,0.9,1.2,1.7,1.7,2.5v-9h3.4v15.3H592.5z"/>
			</g>
		</g>
	</g>
</g>
</svg>
