<?xml version="1.0" encoding="utf-8"?>
<!-- Generator: Adobe Illustrator 17.1.0, SVG Export Plug-In . SVG Version: 6.00 Build 0)  -->
<!DOCTYPE svg PUBLIC "-//W3C//DTD SVG 1.1//EN" "http://www.w3.org/Graphics/SVG/1.1/DTD/svg11.dtd">
<svg version="1.1" id="Layer_1" xmlns="http://www.w3.org/2000/svg" xmlns:xlink="http://www.w3.org/1999/xlink" x="0px" y="0px"
	 viewBox="0 0 595.4 202.3" enable-background="new 0 0 595.4 202.3" xml:space="preserve">
<g>
	<g>
		<path fill="#003999" d="M231.2,4.5h37v44.9h-8.7V12.1h-19.7v37.2h-8.7V4.5z"/>
		<path fill="#003999" d="M278.1,49.3V4.5h19.1c2.1,0,4,0.4,5.7,1.3c1.8,0.9,3.3,2,4.5,3.4c1.3,1.4,2.3,3,3,4.8
			c0.7,1.8,1.1,3.6,1.1,5.4c0,1.9-0.3,3.7-1,5.5c-0.7,1.8-1.6,3.4-2.9,4.8c-1.2,1.4-2.7,2.5-4.4,3.3c-1.7,0.8-3.6,1.3-5.7,1.3h-10.6
			v15H278.1z M286.8,26.6h10.1c1.6,0,2.9-0.7,4-2c1.1-1.3,1.6-3.1,1.6-5.3c0-1.1-0.2-2.2-0.5-3.1c-0.3-0.9-0.8-1.7-1.3-2.3
			c-0.5-0.6-1.2-1.1-1.9-1.4c-0.7-0.3-1.5-0.5-2.2-0.5h-9.8V26.6z"/>
		<path fill="#003999" d="M341.1,49.3V32.7h-7.2l-10.1,16.6h-9.6l11-17.7c-2.6-1.1-4.6-2.7-6.2-5.1c-1.6-2.3-2.3-5-2.3-8
			c0-1.9,0.4-3.7,1.1-5.4c0.7-1.7,1.7-3.2,3-4.5c1.3-1.3,2.8-2.3,4.5-3.1c1.8-0.8,3.7-1.1,5.7-1.1h18.8v44.9H341.1z M341.1,11.9
			h-9.2c-0.8,0-1.6,0.2-2.4,0.5c-0.8,0.3-1.4,0.8-2.1,1.3c-0.6,0.6-1.1,1.3-1.5,2.1c-0.4,0.8-0.5,1.7-0.5,2.7c0,2,0.6,3.6,1.8,4.9
			c1.2,1.2,2.7,1.8,4.5,1.8h9.4V11.9z"/>
		<path fill="#003999" d="M396.2,49.3V19.6l-11.6,22.1h-4.8l-11.6-22.1v29.7h-8.7V4.5h9.4L382.2,30l13.4-25.5h9.3v44.9H396.2z"/>
		<path fill="#003999" d="M422,49.8c-0.5,0-1,0-1.5-0.1c-0.5-0.1-1.1-0.2-1.7-0.3c-0.6-0.1-1.2-0.3-1.7-0.5
			c-0.6-0.2-1.1-0.5-1.5-0.8l1.1-7.2c0.5,0.3,1.1,0.5,1.9,0.9c0.8,0.3,1.7,0.5,2.6,0.5c1.2,0,2.3-0.3,3.2-1c0.9-0.7,1.7-1.9,2.4-3.8
			l-16.5-33h9.4l11,24.2l10.3-24.2h9.2l-15.8,34.1c-0.9,2-1.8,3.7-2.7,5.1c-0.9,1.4-1.8,2.6-2.8,3.5c-1,0.9-2,1.6-3.1,2
			C424.6,49.6,423.4,49.8,422,49.8z"/>
		<path fill="#003999" d="M493.1,39.3c-0.7,1.7-1.7,3.2-3,4.5c-1.3,1.3-2.8,2.4-4.5,3.3c-1.7,0.9-3.5,1.6-5.4,2
			c-1.9,0.5-3.9,0.7-6,0.7c-3.3,0-6.4-0.7-9.1-2c-2.7-1.3-5-3.1-7-5.3c-1.9-2.2-3.4-4.6-4.5-7.4c-1.1-2.8-1.6-5.6-1.6-8.4
			c0-2.7,0.5-5.4,1.5-8.1c1-2.7,2.4-5.1,4.3-7.2c1.9-2.1,4.2-3.8,7-5.1c2.8-1.3,6-2,9.6-2c4.4,0,8.1,0.9,11.1,2.7
			c3,1.8,5.2,4.2,6.7,7.1l-6.7,4.6c-0.6-1.3-1.3-2.3-2.2-3.2c-0.9-0.9-1.8-1.5-2.8-2.1c-1-0.5-2.1-0.9-3.2-1.1
			c-1.1-0.2-2.2-0.3-3.2-0.3c-1.9,0-3.6,0.3-5.1,0.9c-1.5,0.6-2.7,1.4-3.8,2.4c-1.1,1-1.9,2.2-2.6,3.5c-0.7,1.3-1.1,2.7-1.4,4.1h18
			v7h-18.2c0.3,1.6,0.7,3.2,1.5,4.7c0.7,1.5,1.7,2.8,2.8,3.9c1.1,1.1,2.5,2,4,2.6c1.5,0.6,3.2,0.9,5,0.9c1.1,0,2.1-0.1,3.3-0.4
			c1.1-0.3,2.2-0.7,3.2-1.2c1-0.5,2-1.3,2.9-2.1c0.9-0.9,1.6-1.9,2.1-3.1L493.1,39.3z"/>
		<path fill="#003999" d="M535.8,49.3V19.6l-11.6,22.1h-4.8l-11.6-22.1v29.7h-8.7V4.5h9.4L521.8,30l13.4-25.5h9.3v44.9H535.8z"/>
		<path fill="#003999" d="M573.4,49.6c-3.3,0-6.3-0.6-9-1.9c-2.7-1.3-5-3-6.9-5.1c-1.9-2.1-3.4-4.6-4.5-7.3
			c-1.1-2.7-1.6-5.5-1.6-8.4c0-3,0.6-5.9,1.7-8.6c1.1-2.7,2.7-5.2,4.6-7.3c2-2.1,4.3-3.8,7-5c2.7-1.2,5.6-1.9,8.8-1.9
			c3.3,0,6.2,0.7,8.9,2c2.7,1.3,5,3.1,6.9,5.2c1.9,2.1,3.4,4.6,4.4,7.3c1.1,2.7,1.6,5.5,1.6,8.3c0,3-0.5,5.8-1.6,8.6
			c-1.1,2.7-2.6,5.1-4.6,7.2c-1.9,2.1-4.3,3.7-7,5C579.5,49,576.6,49.6,573.4,49.6z M560.3,26.9c0,1.9,0.3,3.8,0.9,5.6
			c0.6,1.8,1.4,3.4,2.6,4.8c1.1,1.4,2.5,2.5,4.1,3.3c1.6,0.8,3.5,1.3,5.5,1.3c2.1,0,4-0.4,5.6-1.3c1.6-0.9,3-2,4.1-3.4
			c1.1-1.4,2-3,2.5-4.8c0.6-1.8,0.9-3.6,0.9-5.5c0-1.9-0.3-3.8-0.9-5.6c-0.6-1.8-1.5-3.4-2.6-4.8c-1.1-1.4-2.5-2.5-4.1-3.3
			c-1.6-0.8-3.5-1.2-5.5-1.2c-2.1,0-4,0.4-5.6,1.3c-1.6,0.9-3,2-4.1,3.4c-1.1,1.4-1.9,3-2.5,4.8C560.6,23.2,560.3,25,560.3,26.9z"/>
	</g>
	<g>
		<path fill="#003999" d="M231.6,139.9V63.4h32.5c3.5,0,6.8,0.7,9.8,2.2c3,1.5,5.6,3.4,7.7,5.8c2.2,2.4,3.8,5.1,5.1,8.2
			c1.2,3.1,1.8,6.1,1.8,9.2c0,3.2-0.6,6.4-1.7,9.4c-1.2,3.1-2.8,5.8-4.9,8.1c-2.1,2.4-4.6,4.3-7.6,5.7c-3,1.4-6.2,2.2-9.7,2.2h-18.1
			v25.6H231.6z M246.5,101.2h17.3c2.7,0,5-1.1,6.9-3.3c1.8-2.2,2.8-5.2,2.8-9c0-1.9-0.3-3.7-0.9-5.2c-0.6-1.5-1.3-2.9-2.3-3.9
			c-0.9-1.1-2-1.9-3.3-2.4c-1.3-0.5-2.5-0.8-3.8-0.8h-16.6V101.2z"/>
		<path fill="#003999" d="M320.6,63.4h13.2l29.1,76.5h-15.3l-7.1-19.1h-26.8l-7,19.1h-15.3L320.6,63.4z M337.8,110.4l-10.6-30
			l-11,30H337.8z"/>
		<path fill="#003999" d="M366.9,73.2c3.1-3.4,6.7-6,10.7-7.8c4-1.8,8.9-2.6,14.5-2.6c7.3,0,13.2,1.6,17.4,4.8
			c4.3,3.2,6.4,8,6.4,14.2c0,3.9-1,7.4-2.9,10.5c-1.9,3.1-4.9,5.3-9,6.6c4.7,0.9,8.4,3,11,6.3c2.6,3.3,3.9,7.3,3.9,12.1
			c0,3.6-0.7,6.8-2.1,9.6c-1.4,2.8-3.3,5.2-5.8,7.2c-2.4,2-5.4,3.5-8.8,4.6c-3.4,1.1-7.1,1.6-11.1,1.6c-5.5,0-10.4-0.9-14.7-2.7
			c-4.2-1.8-8-4.6-11.3-8.2l8.6-10.3c2.2,2.5,4.6,4.5,7.3,5.9c2.7,1.4,6,2.2,9.8,2.2c3.8,0,6.9-1,9.4-3c2.4-2,3.7-4.8,3.7-8.4
			c0-3.3-1.3-6-3.8-8.2c-2.6-2.2-6.4-3.2-11.6-3.2h-8v-11h7.1c4.6,0,8.1-0.8,10.6-2.5c2.4-1.7,3.7-4.1,3.7-7.2
			c0-2.7-0.9-4.8-2.8-6.2c-1.8-1.4-4.4-2.2-7.8-2.2c-3.4,0-6.4,0.6-9,1.9c-2.6,1.3-4.9,3-7,5.3L366.9,73.2z"/>
		<path fill="#003999" d="M463.5,140.4c-5.6,0-10.7-1.1-15.3-3.3c-4.6-2.2-8.5-5.1-11.8-8.7c-3.3-3.6-5.8-7.8-7.6-12.4
			c-1.8-4.7-2.7-9.4-2.7-14.3c0-5.1,1-10,2.9-14.6c1.9-4.7,4.5-8.8,7.9-12.4c3.3-3.6,7.3-6.4,11.9-8.6c4.6-2.1,9.6-3.2,15-3.2
			c5.5,0,10.6,1.1,15.2,3.4c4.6,2.3,8.5,5.2,11.7,8.9c3.2,3.7,5.8,7.8,7.6,12.5c1.8,4.7,2.7,9.4,2.7,14.2c0,5.1-0.9,10-2.8,14.6
			c-1.9,4.6-4.5,8.7-7.8,12.3c-3.3,3.6-7.3,6.4-11.9,8.5C473.9,139.4,468.9,140.4,463.5,140.4z M441.2,101.6c0,3.3,0.5,6.5,1.5,9.6
			c1,3.1,2.5,5.8,4.4,8.2c1.9,2.4,4.2,4.3,7,5.7c2.8,1.4,5.9,2.2,9.4,2.2c3.6,0,6.8-0.7,9.6-2.2c2.8-1.5,5.1-3.4,7-5.9
			c1.9-2.4,3.3-5.2,4.3-8.2c1-3.1,1.5-6.2,1.5-9.3c0-3.3-0.5-6.5-1.6-9.6c-1-3.1-2.5-5.8-4.4-8.2c-1.9-2.4-4.2-4.3-7-5.7
			c-2.8-1.4-5.9-2.1-9.3-2.1c-3.6,0-6.8,0.7-9.6,2.2c-2.8,1.5-5.1,3.4-7,5.8c-1.9,2.4-3.3,5.1-4.3,8.2
			C441.7,95.4,441.2,98.5,441.2,101.6z"/>
		<path fill="#003999" d="M575.1,139.9V89.3L555.3,127h-8.1l-19.8-37.7v50.6h-14.9V63.4h16l22.7,43.5l22.9-43.5H590v76.5H575.1z"/>
	</g>
	<rect fill="#FFFFFF" width="216.3" height="146.6"/>
	<rect x="4.2" y="4" fill="#003999" width="208" height="138.3"/>
	<polygon fill="#FFEC00" points="103.7,34.2 108.1,31 112.5,34.2 110.8,29 115.3,25.8 109.8,25.8 108.1,20.6 106.4,25.8 100.9,25.8
		105.4,29 	"/>
	<polygon fill="#FFEC00" points="81,40.2 85.4,37.1 89.8,40.2 88.1,35.1 92.6,31.9 87.1,31.9 85.4,26.6 83.7,31.9 78.2,31.9
		82.7,35.1 	"/>
	<polygon fill="#FFEC00" points="68.8,43.3 67.1,48.5 61.6,48.5 66.1,51.7 64.4,56.9 68.8,53.7 73.2,56.9 71.5,51.7 76,48.5
		70.5,48.5 	"/>
	<polygon fill="#FFEC00" points="62.7,76.3 67.1,79.5 65.4,74.3 69.9,71.1 64.4,71.1 62.7,65.9 61,71.1 55.5,71.1 60,74.3
		58.3,79.5 	"/>
	<polygon fill="#FFEC00" points="70.5,93.8 68.8,88.6 67.1,93.8 61.6,93.8 66.1,97 64.4,102.2 68.8,99 73.2,102.2 71.5,97 76,93.8
		"/>
	<polygon fill="#FFEC00" points="87.1,110.4 85.4,105.2 83.8,110.4 78.3,110.4 82.7,113.6 81,118.8 85.4,115.6 89.8,118.8
		88.2,113.6 92.6,110.4 	"/>
	<polygon fill="#FFEC00" points="109.8,116.5 108.1,111.2 106.4,116.5 100.9,116.5 105.4,119.7 103.7,124.8 108.1,121.6
		112.5,124.8 110.8,119.7 115.3,116.5 	"/>
	<polygon fill="#FFEC00" points="132.5,110.4 130.8,105.2 129.1,110.4 123.6,110.4 128.1,113.6 126.4,118.8 130.8,115.6
		135.2,118.8 133.5,113.6 138,110.4 	"/>
	<polygon fill="#FFEC00" points="149.1,93.8 147.5,88.6 145.8,93.8 140.3,93.8 144.7,97 143.1,102.2 147.5,99 151.8,102.2 150.2,97
		154.6,93.8 	"/>
	<polygon fill="#FFEC00" points="160.7,71.1 155.2,71.1 153.5,65.8 151.8,71.1 146.3,71.1 150.8,74.3 149.1,79.4 153.5,76.2
		157.9,79.4 156.2,74.3 	"/>
	<polygon fill="#FFEC00" points="143.1,56.8 147.5,53.6 151.8,56.8 150.2,51.6 154.6,48.4 149.1,48.4 147.5,43.2 145.8,48.4
		140.3,48.4 144.7,51.6 	"/>
	<polygon fill="#FFEC00" points="130.9,26.7 129.2,31.9 123.7,31.9 128.1,35.1 126.5,40.3 130.9,37.1 135.3,40.3 133.6,35.1
		138,31.9 132.5,31.9 	"/>
	<polygon fill="#003998" points="4.2,190.2 7.5,185.5 13.1,178.2 13.1,187.4 21.7,190.2 13.1,193.2 12.9,202.3 7.5,195 	"/>
	<g>
		<g>
			<path fill="#101012" d="M43.4,182.1v15h-3.4V185h-5.6v12.2h-3.4v-15H43.4z"/>
			<path fill="#101012" d="M51.4,181.9c2.2,0,4,0.4,5.2,1.2c1.2,0.8,1.8,2.1,1.8,3.9c0,1.8-0.6,3.1-1.8,3.9
				c-1.2,0.8-2.9,1.2-5.2,1.2h-1.1v5h-3.4v-14.8c0.7-0.1,1.5-0.2,2.3-0.3S50.8,181.9,51.4,181.9z M51.6,184.8c-0.2,0-0.5,0-0.7,0
				c-0.2,0-0.4,0-0.6,0v4.3h1.1c1.2,0,2.1-0.2,2.6-0.5c0.6-0.3,0.9-0.9,0.9-1.8c0-0.4-0.1-0.8-0.2-1c-0.2-0.3-0.4-0.5-0.6-0.7
				c-0.3-0.2-0.6-0.3-1-0.3S52.1,184.8,51.6,184.8z"/>
			<path fill="#101012" d="M75.2,189.6c0,1.3-0.2,2.4-0.6,3.4c-0.4,1-0.9,1.8-1.6,2.4c-0.7,0.7-1.5,1.2-2.4,1.5
				c-0.9,0.3-1.9,0.5-3,0.5c-1,0-2-0.2-2.9-0.5c-0.9-0.3-1.7-0.8-2.4-1.5c-0.7-0.7-1.2-1.5-1.6-2.4c-0.4-1-0.6-2.1-0.6-3.4
				c0-1.3,0.2-2.4,0.6-3.4c0.4-1,0.9-1.8,1.6-2.5c0.7-0.7,1.5-1.2,2.4-1.5c0.9-0.3,1.9-0.5,2.8-0.5c1,0,2,0.2,2.9,0.5
				c0.9,0.3,1.7,0.8,2.4,1.5c0.7,0.7,1.2,1.5,1.6,2.5C75,187.2,75.2,188.3,75.2,189.6z M63.7,189.6c0,0.7,0.1,1.4,0.3,2
				c0.2,0.6,0.4,1.1,0.8,1.5c0.3,0.4,0.8,0.8,1.2,1c0.5,0.2,1.1,0.3,1.7,0.3c0.6,0,1.2-0.1,1.7-0.3s0.9-0.6,1.3-1
				c0.3-0.4,0.6-0.9,0.8-1.5s0.3-1.3,0.3-2c0-0.7-0.1-1.4-0.3-2s-0.4-1.1-0.8-1.5c-0.3-0.4-0.8-0.8-1.3-1s-1.1-0.3-1.7-0.3
				c-0.6,0-1.2,0.1-1.7,0.4c-0.5,0.2-0.9,0.6-1.2,1c-0.3,0.4-0.6,0.9-0.8,1.5C63.8,188.2,63.7,188.9,63.7,189.6z"/>
			<path fill="#101012" d="M78,197.1v-15h10.1v2.8h-6.8v2.9h6v2.8h-6v3.6h7.3v2.8H78z"/>
			<path fill="#101012" d="M99.9,197.1c-0.3-0.5-0.7-1-1.1-1.6c-0.4-0.6-0.9-1.1-1.3-1.7c-0.5-0.6-1-1.1-1.5-1.7
				c-0.5-0.5-1-1-1.6-1.4v6.4h-3.4v-15h3.4v5.6c0.9-0.9,1.8-1.9,2.6-2.9c0.9-1,1.7-1.9,2.5-2.8h4c-1,1.2-2,2.4-3.1,3.5
				s-2.1,2.3-3.3,3.4c1.2,1,2.4,2.2,3.5,3.6c1.1,1.4,2.2,2.9,3.2,4.5H99.9z"/>
			<path fill="#101012" d="M117.5,182.1v2.9H113v12.1h-3.4V185h-4.5v-2.9H117.5z"/>
			<path fill="#101012" d="M134.2,197.1H131v-1.8c-1.2-0.1-2.2-0.3-3-0.6c-0.9-0.4-1.6-0.8-2.1-1.4c-0.6-0.6-1-1.2-1.2-1.9
				c-0.3-0.7-0.4-1.5-0.4-2.2c0-0.8,0.1-1.5,0.4-2.2c0.3-0.7,0.7-1.4,1.2-2c0.6-0.6,1.3-1.1,2.1-1.5c0.9-0.4,1.9-0.6,3-0.7v-1.7h3.3
				v1.7c1.2,0.1,2.2,0.3,3,0.7c0.9,0.4,1.6,0.9,2.1,1.5c0.6,0.6,1,1.2,1.2,2c0.3,0.7,0.4,1.5,0.4,2.2c0,0.8-0.1,1.5-0.4,2.2
				c-0.3,0.7-0.7,1.4-1.2,1.9c-0.6,0.6-1.3,1-2.1,1.4s-1.9,0.6-3,0.6V197.1z M131,185.7c-0.6,0.1-1.1,0.2-1.5,0.4
				c-0.4,0.2-0.8,0.5-1.1,0.8c-0.3,0.3-0.5,0.7-0.6,1.1c-0.1,0.4-0.2,0.8-0.2,1.3c0,0.4,0.1,0.9,0.2,1.3c0.1,0.4,0.4,0.7,0.6,1.1
				s0.6,0.5,1.1,0.7c0.4,0.2,0.9,0.3,1.5,0.3V185.7z M134.2,192.5c0.6,0,1.1-0.2,1.5-0.3c0.4-0.2,0.8-0.4,1.1-0.7s0.5-0.7,0.6-1.1
				c0.1-0.4,0.2-0.8,0.2-1.3c0-0.4-0.1-0.9-0.2-1.3c-0.1-0.4-0.3-0.8-0.6-1.1c-0.3-0.3-0.6-0.6-1.1-0.8c-0.4-0.2-0.9-0.3-1.5-0.4
				V192.5z"/>
			<path fill="#101012" d="M143.8,182.1h3.4v15h-3.4V182.1z"/>
			<path fill="#101012" d="M159.7,182.1h3.4v15h-3.4v-6.4H154v6.4h-3.4v-15h3.4v5.7h5.7V182.1z"/>
			<path fill="#101012" d="M176.6,197.1c-0.2-0.5-0.3-1.1-0.5-1.6c-0.2-0.5-0.4-1.1-0.6-1.6h-5.9c-0.2,0.5-0.4,1.1-0.6,1.6
				s-0.4,1.1-0.5,1.6H165c0.6-1.6,1.1-3.1,1.6-4.5c0.5-1.4,1-2.7,1.5-3.9s1-2.4,1.4-3.5c0.5-1.1,1-2.2,1.5-3.2h3.2
				c0.5,1,1,2.1,1.5,3.2c0.5,1.1,1,2.2,1.4,3.5c0.5,1.2,1,2.5,1.5,3.9c0.5,1.4,1,2.9,1.6,4.5H176.6z M172.5,185.5
				c-0.1,0.2-0.2,0.5-0.3,0.9c-0.1,0.4-0.3,0.8-0.5,1.3s-0.4,1-0.6,1.6s-0.5,1.2-0.7,1.9h4.3c-0.2-0.7-0.5-1.3-0.7-1.9
				c-0.2-0.6-0.4-1.1-0.6-1.6c-0.2-0.5-0.4-0.9-0.5-1.3C172.7,186,172.6,185.7,172.5,185.5z"/>
			<path fill="#101012" d="M191.2,182.1h3.4v15h-3.4v-6.4h-5.7v6.4h-3.4v-15h3.4v5.7h5.7V182.1z"/>
			<path fill="#101012" d="M204.9,197.4c-2.4,0-4.3-0.7-5.6-2c-1.3-1.4-1.9-3.3-1.9-5.8c0-1.2,0.2-2.4,0.6-3.3
				c0.4-1,0.9-1.8,1.6-2.5c0.7-0.7,1.5-1.2,2.4-1.5c0.9-0.3,2-0.5,3.1-0.5c0.6,0,1.2,0,1.7,0.1c0.5,0.1,1,0.2,1.4,0.3
				c0.4,0.1,0.7,0.2,1,0.4c0.3,0.1,0.4,0.2,0.6,0.3l-1,2.7c-0.5-0.2-1-0.5-1.6-0.6c-0.6-0.2-1.3-0.3-2.1-0.3c-0.5,0-1,0.1-1.5,0.3
				c-0.5,0.2-0.9,0.5-1.3,0.8c-0.4,0.4-0.7,0.9-0.9,1.5c-0.2,0.6-0.3,1.3-0.3,2.2c0,0.7,0.1,1.3,0.2,1.9c0.2,0.6,0.4,1.1,0.7,1.5
				c0.3,0.4,0.8,0.8,1.3,1c0.5,0.3,1.2,0.4,2,0.4c0.5,0,0.9,0,1.3-0.1c0.4-0.1,0.7-0.1,1-0.2c0.3-0.1,0.6-0.2,0.8-0.3
				s0.4-0.2,0.6-0.3l0.9,2.7c-0.5,0.3-1.1,0.5-2,0.8C207,197.3,206,197.4,204.9,197.4z"/>
			<path fill="#101012" d="M220,192.7c-0.4,1-0.9,1.7-1.3,2.4c-0.5,0.6-0.9,1.1-1.4,1.4s-1,0.6-1.5,0.7c-0.5,0.1-1,0.2-1.5,0.2
				c-0.5,0-1,0-1.5-0.1c-0.5-0.1-1-0.2-1.5-0.4l0.6-2.7c0.7,0.3,1.4,0.4,2.1,0.4c0.5,0,0.9-0.1,1.3-0.3c0.4-0.2,0.8-0.6,1.2-1.3
				c-0.6-0.9-1.2-1.9-1.7-2.8s-1.1-1.9-1.5-2.9c-0.5-0.9-0.9-1.9-1.4-2.7c-0.4-0.9-0.8-1.7-1.1-2.4h3.7c0.2,0.6,0.5,1.2,0.8,1.8
				c0.3,0.6,0.6,1.3,0.9,2c0.3,0.7,0.6,1.4,1,2.1c0.3,0.7,0.6,1.4,0.9,2c0.5-1.3,0.9-2.6,1.3-3.9c0.4-1.3,0.8-2.6,1.2-4h3.6
				c-0.4,1.1-0.7,2.2-1.1,3.1c-0.4,1-0.7,1.9-1.1,2.8c-0.3,0.9-0.7,1.7-1,2.5S220.4,192,220,192.7z"/>
			<path fill="#101012" d="M225.1,189.6c0-1.3,0.2-2.5,0.6-3.5c0.4-1,0.9-1.8,1.6-2.4c0.7-0.6,1.5-1.1,2.4-1.4
				c0.9-0.3,1.9-0.5,2.9-0.5c0.9,0,1.7,0.1,2.6,0.3c0.9,0.2,1.7,0.5,2.5,0.9l-1,2.6c-0.4-0.2-1-0.4-1.7-0.6
				c-0.7-0.2-1.5-0.3-2.4-0.3c-1.2,0-2.1,0.3-2.8,0.8c-0.7,0.5-1.1,1.4-1.3,2.6h6.2v2.9h-6.3c0.2,1.2,0.6,2.1,1.3,2.7
				s1.6,0.9,2.8,0.9c0.5,0,0.9,0,1.3-0.1s0.8-0.2,1.1-0.3c0.3-0.1,0.6-0.2,0.9-0.3s0.5-0.2,0.7-0.3l1.1,2.7c-0.8,0.4-1.6,0.7-2.5,1
				c-0.8,0.2-1.7,0.3-2.7,0.3c-1,0-2-0.1-2.9-0.4c-0.9-0.3-1.7-0.8-2.4-1.4c-0.7-0.6-1.2-1.4-1.6-2.4
				C225.3,192.2,225.1,191,225.1,189.6z"/>
			<path fill="#101012" d="M252.2,182.1v2.9h-4.5v12.1h-3.4V185h-4.5v-2.9H252.2z"/>
			<path fill="#101012" d="M265.9,192.2c0,1.7-0.6,2.9-1.9,3.8c-1.2,0.9-3,1.3-5.2,1.3c-0.6,0-1.3,0-2.1-0.1
				c-0.8-0.1-1.6-0.2-2.4-0.4v-14.7h3.4v5c0.2,0,0.4,0,0.5,0s0.3,0,0.5,0c2.4,0,4.3,0.4,5.4,1.3
				C265.3,189.2,265.9,190.5,265.9,192.2z M258.4,189.9c-0.1,0-0.2,0-0.3,0c-0.1,0-0.3,0-0.4,0v4.5c0.2,0,0.3,0,0.5,0
				c0.2,0,0.4,0,0.7,0c0.4,0,0.9,0,1.3-0.1c0.4-0.1,0.8-0.2,1.1-0.4c0.3-0.2,0.6-0.4,0.8-0.7c0.2-0.3,0.3-0.6,0.3-1.1
				c0-0.4-0.1-0.8-0.3-1.1c-0.2-0.3-0.5-0.5-0.8-0.7s-0.8-0.3-1.3-0.4C259.6,190,259,189.9,258.4,189.9z"/>
			<path fill="#101012" d="M275.5,197.4c-2.4,0-4.3-0.7-5.6-2c-1.3-1.4-1.9-3.3-1.9-5.8c0-1.2,0.2-2.4,0.6-3.3
				c0.4-1,0.9-1.8,1.6-2.5c0.7-0.7,1.5-1.2,2.4-1.5c0.9-0.3,2-0.5,3.1-0.5c0.6,0,1.2,0,1.7,0.1c0.5,0.1,1,0.2,1.4,0.3
				c0.4,0.1,0.7,0.2,1,0.4c0.3,0.1,0.4,0.2,0.6,0.3l-1,2.7c-0.5-0.2-1-0.5-1.6-0.6c-0.6-0.2-1.3-0.3-2.1-0.3c-0.5,0-1,0.1-1.5,0.3
				c-0.5,0.2-0.9,0.5-1.3,0.8c-0.4,0.4-0.7,0.9-0.9,1.5c-0.2,0.6-0.3,1.3-0.3,2.2c0,0.7,0.1,1.3,0.2,1.9c0.2,0.6,0.4,1.1,0.7,1.5
				c0.3,0.4,0.8,0.8,1.3,1c0.5,0.3,1.2,0.4,2,0.4c0.5,0,0.9,0,1.3-0.1c0.4-0.1,0.7-0.1,1-0.2c0.3-0.1,0.6-0.2,0.8-0.3
				s0.4-0.2,0.6-0.3l0.9,2.7c-0.5,0.3-1.1,0.5-2,0.8C277.6,197.3,276.6,197.4,275.5,197.4z"/>
			<path fill="#101012" d="M289.6,182c0.6,0,1.3,0,2.1,0.1c0.8,0.1,1.6,0.2,2.4,0.4v14.7h-3.4v-5.4h-1c-0.2,0-0.4,0-0.5,0
				s-0.4,0-0.6,0c-0.5,0.6-1,1.5-1.6,2.4s-1.1,2-1.6,3h-3.6c0.3-0.6,0.5-1.2,0.8-1.8s0.6-1.1,0.9-1.6c0.3-0.5,0.6-1,0.9-1.4
				c0.3-0.4,0.6-0.8,0.8-1.2c-0.3-0.1-0.6-0.3-0.9-0.6s-0.6-0.5-0.8-0.9s-0.4-0.7-0.6-1.2c-0.2-0.5-0.2-1-0.2-1.6
				c0-0.8,0.2-1.5,0.5-2.2c0.3-0.6,0.8-1.1,1.4-1.6c0.6-0.4,1.3-0.7,2.2-0.9C287.5,182.1,288.5,182,289.6,182z M289.4,184.9
				c-0.4,0-0.8,0-1.2,0.1c-0.4,0.1-0.7,0.2-1.1,0.3s-0.5,0.4-0.7,0.6s-0.3,0.6-0.3,1c0,0.8,0.3,1.3,0.8,1.6c0.5,0.3,1.3,0.4,2.4,0.4
				h1.4v-4.1c-0.2,0-0.4,0-0.6,0C290,184.9,289.7,184.9,289.4,184.9z"/>
			<path fill="#101012" d="M302.1,189.6c0-1.3,0.2-2.5,0.6-3.5c0.4-1,0.9-1.8,1.6-2.4c0.7-0.6,1.5-1.1,2.4-1.4
				c0.9-0.3,1.9-0.5,2.9-0.5c0.9,0,1.7,0.1,2.6,0.3c0.9,0.2,1.7,0.5,2.5,0.9l-1,2.6c-0.4-0.2-1-0.4-1.7-0.6
				c-0.7-0.2-1.5-0.3-2.4-0.3c-1.2,0-2.1,0.3-2.8,0.8c-0.7,0.5-1.1,1.4-1.3,2.6h6.2v2.9h-6.3c0.2,1.2,0.6,2.1,1.3,2.7
				s1.6,0.9,2.8,0.9c0.5,0,0.9,0,1.3-0.1s0.8-0.2,1.1-0.3c0.3-0.1,0.6-0.2,0.9-0.3s0.5-0.2,0.7-0.3l1.1,2.7c-0.8,0.4-1.6,0.7-2.5,1
				c-0.8,0.2-1.7,0.3-2.7,0.3c-1,0-2-0.1-2.9-0.4c-0.9-0.3-1.7-0.8-2.4-1.4c-0.7-0.6-1.2-1.4-1.6-2.4
				C302.3,192.2,302.1,191,302.1,189.6z"/>
			<path fill="#101012" d="M322.6,197.3c-0.8,0-1.6,0-2.5-0.1c-0.8-0.1-1.7-0.2-2.5-0.4v-14.6c0.7-0.1,1.5-0.2,2.3-0.3
				s1.6-0.1,2.3-0.1c1,0,1.8,0.1,2.6,0.2c0.8,0.1,1.5,0.4,2.1,0.7c0.6,0.3,1,0.8,1.4,1.3c0.3,0.5,0.5,1.2,0.5,2
				c0,1.2-0.6,2.1-1.7,2.8c1,0.4,1.6,0.9,1.9,1.5c0.3,0.6,0.5,1.3,0.5,2.1c0,1.6-0.6,2.8-1.7,3.6
				C326.6,196.9,324.9,197.3,322.6,197.3z M320.9,188h1.6c1,0,1.8-0.1,2.2-0.4c0.4-0.3,0.7-0.7,0.7-1.3c0-0.6-0.2-1-0.7-1.3
				c-0.5-0.2-1.1-0.4-2-0.4c-0.3,0-0.6,0-0.9,0c-0.3,0-0.6,0-0.9,0.1V188z M320.9,190.6v3.9c0.2,0,0.5,0.1,0.8,0.1c0.3,0,0.6,0,1,0
				c1,0,1.8-0.1,2.4-0.4s0.9-0.8,0.9-1.6c0-0.7-0.3-1.2-0.8-1.5c-0.5-0.3-1.3-0.4-2.2-0.4H320.9z"/>
			<path fill="#101012" d="M336.7,181.9c2.2,0,4,0.4,5.2,1.2c1.2,0.8,1.8,2.1,1.8,3.9c0,1.8-0.6,3.1-1.8,3.9
				c-1.2,0.8-2.9,1.2-5.2,1.2h-1.1v5h-3.4v-14.8c0.7-0.1,1.5-0.2,2.3-0.3S336.1,181.9,336.7,181.9z M336.9,184.8c-0.2,0-0.5,0-0.7,0
				c-0.2,0-0.4,0-0.6,0v4.3h1.1c1.2,0,2.1-0.2,2.6-0.5c0.6-0.3,0.9-0.9,0.9-1.8c0-0.4-0.1-0.8-0.2-1c-0.2-0.3-0.4-0.5-0.6-0.7
				c-0.3-0.2-0.6-0.3-1-0.3S337.4,184.8,336.9,184.8z"/>
			<path fill="#101012" d="M360.4,189.6c0,1.3-0.2,2.4-0.6,3.4c-0.4,1-0.9,1.8-1.6,2.4c-0.7,0.7-1.5,1.2-2.4,1.5
				c-0.9,0.3-1.9,0.5-3,0.5c-1,0-2-0.2-2.9-0.5c-0.9-0.3-1.7-0.8-2.4-1.5c-0.7-0.7-1.2-1.5-1.6-2.4c-0.4-1-0.6-2.1-0.6-3.4
				c0-1.3,0.2-2.4,0.6-3.4c0.4-1,0.9-1.8,1.6-2.5c0.7-0.7,1.5-1.2,2.4-1.5c0.9-0.3,1.9-0.5,2.8-0.5c1,0,2,0.2,2.9,0.5
				c0.9,0.3,1.7,0.8,2.4,1.5c0.7,0.7,1.2,1.5,1.6,2.5C360.2,187.2,360.4,188.3,360.4,189.6z M349,189.6c0,0.7,0.1,1.4,0.3,2
				c0.2,0.6,0.4,1.1,0.8,1.5c0.3,0.4,0.8,0.8,1.2,1c0.5,0.2,1.1,0.3,1.7,0.3c0.6,0,1.2-0.1,1.7-0.3s0.9-0.6,1.3-1
				c0.3-0.4,0.6-0.9,0.8-1.5s0.3-1.3,0.3-2c0-0.7-0.1-1.4-0.3-2s-0.4-1.1-0.8-1.5c-0.3-0.4-0.8-0.8-1.3-1s-1.1-0.3-1.7-0.3
				c-0.6,0-1.2,0.1-1.7,0.4c-0.5,0.2-0.9,0.6-1.2,1c-0.3,0.4-0.6,0.9-0.8,1.5C349.1,188.2,349,188.9,349,189.6z"/>
			<path fill="#101012" d="M375.6,182.1v15h-3.4V185h-5.6v12.2h-3.4v-15H375.6z"/>
			<path fill="#101012" d="M379.1,197.1v-15h10.1v2.8h-6.8v2.9h6v2.8h-6v3.6h7.3v2.8H379.1z"/>
			<path fill="#101012" d="M392.2,197.1v-15h3.4v8.9c0.5-0.8,1.1-1.6,1.7-2.4c0.6-0.8,1.2-1.7,1.8-2.4c0.6-0.8,1.2-1.5,1.8-2.2
				c0.6-0.7,1.1-1.3,1.6-1.8h2.8v15h-3.3v-9.8c-1.3,1.5-2.5,3.1-3.6,4.7s-2.2,3.4-3.1,5.1H392.2z M398.9,180.8
				c-0.5,0-0.9-0.1-1.3-0.2c-0.4-0.1-0.8-0.3-1.2-0.6c-0.3-0.3-0.6-0.6-0.9-1c-0.2-0.4-0.4-0.8-0.4-1.3l2.2-0.6
				c0.1,0.5,0.3,0.9,0.6,1.2c0.3,0.2,0.6,0.3,0.9,0.3c0.4,0,0.7-0.1,1-0.3c0.3-0.2,0.5-0.6,0.6-1.2l2.2,0.6c0,0.5-0.2,0.9-0.4,1.3
				c-0.2,0.4-0.5,0.7-0.8,1c-0.3,0.3-0.7,0.5-1.2,0.6C399.8,180.7,399.4,180.8,398.9,180.8z"/>
			<path fill="#101012" d="M415.4,197.4c-2.4,0-4.3-0.7-5.6-2c-1.3-1.4-1.9-3.3-1.9-5.8c0-1.2,0.2-2.4,0.6-3.3
				c0.4-1,0.9-1.8,1.6-2.5c0.7-0.7,1.5-1.2,2.4-1.5c0.9-0.3,2-0.5,3.1-0.5c0.6,0,1.2,0,1.7,0.1c0.5,0.1,1,0.2,1.4,0.3
				c0.4,0.1,0.7,0.2,1,0.4c0.3,0.1,0.4,0.2,0.6,0.3l-1,2.7c-0.5-0.2-1-0.5-1.6-0.6c-0.6-0.2-1.3-0.3-2.1-0.3c-0.5,0-1,0.1-1.5,0.3
				c-0.5,0.2-0.9,0.5-1.3,0.8c-0.4,0.4-0.7,0.9-0.9,1.5c-0.2,0.6-0.3,1.3-0.3,2.2c0,0.7,0.1,1.3,0.2,1.9c0.2,0.6,0.4,1.1,0.7,1.5
				c0.3,0.4,0.8,0.8,1.3,1c0.5,0.3,1.2,0.4,2,0.4c0.5,0,0.9,0,1.3-0.1c0.4-0.1,0.7-0.1,1-0.2c0.3-0.1,0.6-0.2,0.8-0.3
				s0.4-0.2,0.6-0.3l0.9,2.7c-0.5,0.3-1.1,0.5-2,0.8C417.6,197.3,416.5,197.4,415.4,197.4z"/>
			<path fill="#101012" d="M434.2,192.2c0,1.7-0.6,2.9-1.9,3.8c-1.2,0.9-3,1.3-5.2,1.3c-0.6,0-1.3,0-2.1-0.1
				c-0.8-0.1-1.6-0.2-2.4-0.4v-14.7h3.4v5c0.2,0,0.4,0,0.5,0s0.3,0,0.5,0c2.4,0,4.3,0.4,5.4,1.3
				C433.6,189.2,434.2,190.5,434.2,192.2z M426.6,189.9c-0.1,0-0.2,0-0.3,0c-0.1,0-0.3,0-0.4,0v4.5c0.2,0,0.3,0,0.5,0
				c0.2,0,0.4,0,0.7,0c0.4,0,0.9,0,1.3-0.1c0.4-0.1,0.8-0.2,1.1-0.4c0.3-0.2,0.6-0.4,0.8-0.7c0.2-0.3,0.3-0.6,0.3-1.1
				c0-0.4-0.1-0.8-0.3-1.1c-0.2-0.3-0.5-0.5-0.8-0.7s-0.8-0.3-1.3-0.4C427.8,190,427.3,189.9,426.6,189.9z"/>
			<path fill="#101012" d="M445.7,197.1c-0.3-0.5-0.7-1-1.1-1.6c-0.4-0.6-0.9-1.1-1.3-1.7c-0.5-0.6-1-1.1-1.5-1.7
				c-0.5-0.5-1-1-1.6-1.4v6.4h-3.4v-15h3.4v5.6c0.9-0.9,1.8-1.9,2.6-2.9c0.9-1,1.7-1.9,2.5-2.8h4c-1,1.2-2,2.4-3.1,3.5
				s-2.1,2.3-3.3,3.4c1.2,1,2.4,2.2,3.5,3.6c1.1,1.4,2.2,2.9,3.2,4.5H445.7z"/>
			<path fill="#101012" d="M451.7,197.1v-15h3.4v8.9c0.5-0.8,1.1-1.6,1.7-2.4c0.6-0.8,1.2-1.7,1.8-2.4c0.6-0.8,1.2-1.5,1.8-2.2
				c0.6-0.7,1.1-1.3,1.6-1.8h2.8v15h-3.3v-9.8c-1.3,1.5-2.5,3.1-3.6,4.7s-2.2,3.4-3.1,5.1H451.7z"/>
			<path fill="#101012" d="M472.1,182.1c0.3,0.5,0.6,1.1,0.9,1.8c0.3,0.7,0.7,1.5,1.1,2.3s0.7,1.6,1.1,2.5c0.4,0.9,0.7,1.7,1,2.4
				c0.3-0.8,0.7-1.6,1-2.4c0.4-0.9,0.7-1.7,1.1-2.5c0.4-0.8,0.7-1.6,1.1-2.3c0.3-0.7,0.6-1.3,0.9-1.8h3.1c0.1,1,0.3,2.1,0.4,3.3
				s0.2,2.5,0.3,3.9c0.1,1.3,0.2,2.7,0.3,4c0.1,1.3,0.1,2.6,0.2,3.8h-3.3c0-1.5-0.1-3-0.2-4.8c-0.1-1.7-0.2-3.5-0.3-5.2
				c-0.3,0.6-0.6,1.3-0.9,2c-0.3,0.7-0.6,1.5-0.9,2.2s-0.6,1.4-0.9,2.1c-0.3,0.7-0.5,1.2-0.7,1.7h-2.4c-0.2-0.5-0.4-1.1-0.7-1.7
				c-0.3-0.7-0.6-1.4-0.9-2.1c-0.3-0.7-0.6-1.5-0.9-2.2c-0.3-0.7-0.6-1.4-0.9-2c-0.1,1.7-0.3,3.5-0.3,5.2c-0.1,1.7-0.1,3.3-0.2,4.8
				h-3.3c0.1-1.2,0.1-2.4,0.2-3.8c0.1-1.3,0.2-2.7,0.3-4c0.1-1.3,0.2-2.6,0.3-3.9c0.1-1.2,0.3-2.4,0.4-3.3H472.1z"/>
			<path fill="#101012" d="M499.5,197.4c-2.4,0-4.3-0.7-5.6-2c-1.3-1.4-1.9-3.3-1.9-5.8c0-1.2,0.2-2.4,0.6-3.3
				c0.4-1,0.9-1.8,1.6-2.5c0.7-0.7,1.5-1.2,2.4-1.5c0.9-0.3,2-0.5,3.1-0.5c0.6,0,1.2,0,1.7,0.1c0.5,0.1,1,0.2,1.4,0.3
				c0.4,0.1,0.7,0.2,1,0.4c0.3,0.1,0.4,0.2,0.6,0.3l-1,2.7c-0.5-0.2-1-0.5-1.6-0.6c-0.6-0.2-1.3-0.3-2.1-0.3c-0.5,0-1,0.1-1.5,0.3
				c-0.5,0.2-0.9,0.5-1.3,0.8c-0.4,0.4-0.7,0.9-0.9,1.5c-0.2,0.6-0.3,1.3-0.3,2.2c0,0.7,0.1,1.3,0.2,1.9c0.2,0.6,0.4,1.1,0.7,1.5
				c0.3,0.4,0.8,0.8,1.3,1c0.5,0.3,1.2,0.4,2,0.4c0.5,0,0.9,0,1.3-0.1c0.4-0.1,0.7-0.1,1-0.2c0.3-0.1,0.6-0.2,0.8-0.3
				s0.4-0.2,0.6-0.3l0.9,2.7c-0.5,0.3-1.1,0.5-2,0.8C501.7,197.3,500.7,197.4,499.5,197.4z"/>
			<path fill="#101012" d="M520.5,189.6c0,1.3-0.2,2.4-0.6,3.4c-0.4,1-0.9,1.8-1.6,2.4c-0.7,0.7-1.5,1.2-2.4,1.5
				c-0.9,0.3-1.9,0.5-3,0.5c-1,0-2-0.2-2.9-0.5c-0.9-0.3-1.7-0.8-2.4-1.5c-0.7-0.7-1.2-1.5-1.6-2.4c-0.4-1-0.6-2.1-0.6-3.4
				c0-1.3,0.2-2.4,0.6-3.4c0.4-1,0.9-1.8,1.6-2.5c0.7-0.7,1.5-1.2,2.4-1.5c0.9-0.3,1.9-0.5,2.8-0.5c1,0,2,0.2,2.9,0.5
				c0.9,0.3,1.7,0.8,2.4,1.5c0.7,0.7,1.2,1.5,1.6,2.5C520.3,187.2,520.5,188.3,520.5,189.6z M509,189.6c0,0.7,0.1,1.4,0.3,2
				c0.2,0.6,0.4,1.1,0.8,1.5c0.3,0.4,0.8,0.8,1.2,1c0.5,0.2,1.1,0.3,1.7,0.3c0.6,0,1.2-0.1,1.7-0.3s0.9-0.6,1.3-1
				c0.3-0.4,0.6-0.9,0.8-1.5s0.3-1.3,0.3-2c0-0.7-0.1-1.4-0.3-2s-0.4-1.1-0.8-1.5c-0.3-0.4-0.8-0.8-1.3-1s-1.1-0.3-1.7-0.3
				c-0.6,0-1.2,0.1-1.7,0.4c-0.5,0.2-0.9,0.6-1.2,1c-0.3,0.4-0.6,0.9-0.8,1.5C509.1,188.2,509,188.9,509,189.6z"/>
			<path fill="#101012" d="M536.6,181.8c1,0,1.9,0.2,2.8,0.5c0.9,0.3,1.6,0.8,2.3,1.5c0.7,0.7,1.2,1.5,1.6,2.5
				c0.4,1,0.6,2.1,0.6,3.4c0,1.3-0.2,2.4-0.6,3.4c-0.4,1-0.9,1.8-1.6,2.4c-0.7,0.7-1.4,1.2-2.3,1.5c-0.9,0.3-1.8,0.5-2.8,0.5
				c-0.9,0-1.8-0.1-2.6-0.4c-0.8-0.3-1.6-0.7-2.2-1.3c-0.6-0.6-1.2-1.3-1.6-2.1c-0.4-0.8-0.7-1.8-0.8-2.9h-2.8v6.4h-3.4v-15h3.4v5.8
				h2.8c0.2-1,0.5-1.9,0.9-2.6c0.4-0.8,1-1.4,1.6-1.9c0.6-0.5,1.3-0.9,2.1-1.2C535,181.9,535.8,181.8,536.6,181.8z M536.6,194.5
				c1.2,0,2.1-0.4,2.8-1.3c0.7-0.9,1-2.1,1-3.6c0-1.5-0.3-2.7-1-3.6c-0.7-0.9-1.6-1.3-2.8-1.3s-2.1,0.4-2.8,1.3
				c-0.7,0.9-1,2.1-1,3.6c0,1.5,0.3,2.7,1,3.6C534.5,194.1,535.4,194.5,536.6,194.5z"/>
			<path fill="#101012" d="M547.6,188h2.3c0.4,0,0.8,0,1.1-0.1c0.3-0.1,0.6-0.2,0.9-0.3c0.3-0.1,0.5-0.3,0.6-0.6
				c0.1-0.2,0.2-0.5,0.2-0.9c0-0.5-0.2-0.9-0.6-1.1c-0.4-0.2-0.9-0.4-1.6-0.4c-0.8,0-1.5,0.1-2.1,0.3c-0.6,0.2-1.2,0.4-1.7,0.7
				l-1.1-2.7c0.6-0.4,1.3-0.7,2.1-0.9c0.8-0.2,1.7-0.3,2.8-0.3c0.8,0,1.6,0.1,2.3,0.3c0.7,0.2,1.3,0.4,1.8,0.8
				c0.5,0.4,0.9,0.8,1.2,1.3c0.3,0.5,0.4,1.2,0.4,1.9c0,0.5-0.1,1.1-0.4,1.6s-0.7,1-1.4,1.4c0.3,0.2,0.6,0.4,0.9,0.6
				c0.3,0.2,0.6,0.5,0.8,0.8c0.2,0.3,0.4,0.6,0.5,1c0.1,0.4,0.2,0.8,0.2,1.3c0,1.6-0.6,2.8-1.7,3.5c-1.1,0.7-2.7,1.1-4.7,1.1
				c-0.5,0-1,0-1.5-0.1s-1-0.2-1.4-0.3s-0.9-0.2-1.3-0.4c-0.4-0.1-0.7-0.3-1.1-0.5l1-2.6c0.2,0.1,0.5,0.2,0.7,0.3
				c0.3,0.1,0.6,0.2,1,0.3c0.4,0.1,0.7,0.2,1.1,0.3c0.4,0.1,0.8,0.1,1.2,0.1c1,0,1.7-0.1,2.3-0.4c0.6-0.3,0.9-0.8,0.9-1.4
				c0-0.4-0.1-0.8-0.3-1c-0.2-0.3-0.4-0.5-0.8-0.6c-0.3-0.1-0.7-0.2-1.1-0.3c-0.4-0.1-0.9-0.1-1.4-0.1h-2V188z"/>
			<path fill="#101012" d="M573.8,189.6c0,1.3-0.2,2.4-0.6,3.4c-0.4,1-0.9,1.8-1.6,2.4c-0.7,0.7-1.5,1.2-2.4,1.5
				c-0.9,0.3-1.9,0.5-3,0.5c-1,0-2-0.2-2.9-0.5c-0.9-0.3-1.7-0.8-2.4-1.5c-0.7-0.7-1.2-1.5-1.6-2.4c-0.4-1-0.6-2.1-0.6-3.4
				c0-1.3,0.2-2.4,0.6-3.4c0.4-1,0.9-1.8,1.6-2.5c0.7-0.7,1.5-1.2,2.4-1.5c0.9-0.3,1.9-0.5,2.8-0.5c1,0,2,0.2,2.9,0.5
				c0.9,0.3,1.7,0.8,2.4,1.5c0.7,0.7,1.2,1.5,1.6,2.5C573.6,187.2,573.8,188.3,573.8,189.6z M562.3,189.6c0,0.7,0.1,1.4,0.3,2
				c0.2,0.6,0.4,1.1,0.8,1.5c0.3,0.4,0.8,0.8,1.2,1c0.5,0.2,1.1,0.3,1.7,0.3c0.6,0,1.2-0.1,1.7-0.3s0.9-0.6,1.3-1
				c0.3-0.4,0.6-0.9,0.8-1.5s0.3-1.3,0.3-2c0-0.7-0.1-1.4-0.3-2s-0.4-1.1-0.8-1.5c-0.3-0.4-0.8-0.8-1.3-1s-1.1-0.3-1.7-0.3
				c-0.6,0-1.2,0.1-1.7,0.4c-0.5,0.2-0.9,0.6-1.2,1c-0.3,0.4-0.6,0.9-0.8,1.5C562.4,188.2,562.3,188.9,562.3,189.6z"/>
			<path fill="#101012" d="M580.6,182.1c0.3,0.5,0.6,1.1,0.9,1.8c0.3,0.7,0.7,1.5,1.1,2.3s0.7,1.6,1.1,2.5c0.4,0.9,0.7,1.7,1,2.4
				c0.3-0.8,0.7-1.6,1-2.4c0.4-0.9,0.7-1.7,1.1-2.5c0.4-0.8,0.7-1.6,1.1-2.3c0.3-0.7,0.6-1.3,0.9-1.8h3.1c0.1,1,0.3,2.1,0.4,3.3
				s0.2,2.5,0.3,3.9c0.1,1.3,0.2,2.7,0.3,4c0.1,1.3,0.1,2.6,0.2,3.8h-3.3c0-1.5-0.1-3-0.2-4.8c-0.1-1.7-0.2-3.5-0.3-5.2
				c-0.3,0.6-0.6,1.3-0.9,2c-0.3,0.7-0.6,1.5-0.9,2.2s-0.6,1.4-0.9,2.1c-0.3,0.7-0.5,1.2-0.7,1.7h-2.4c-0.2-0.5-0.4-1.1-0.7-1.7
				c-0.3-0.7-0.6-1.4-0.9-2.1c-0.3-0.7-0.6-1.5-0.9-2.2c-0.3-0.7-0.6-1.4-0.9-2c-0.1,1.7-0.3,3.5-0.3,5.2c-0.1,1.7-0.1,3.3-0.2,4.8
				h-3.3c0.1-1.2,0.1-2.4,0.2-3.8c0.1-1.3,0.2-2.7,0.3-4c0.1-1.3,0.2-2.6,0.3-3.9c0.1-1.2,0.3-2.4,0.4-3.3H580.6z"/>
		</g>
	</g>
</g>
</svg>
