<?xml version="1.0" encoding="UTF-8"?><svg id="Layer_1" xmlns="http://www.w3.org/2000/svg" xmlns:xlink="http://www.w3.org/1999/xlink" viewBox="0 0 151.73 66.01"><defs><style>.cls-1{fill:#95bbe4;}.cls-2{clip-path:url(#clippath-1);}.cls-3{clip-path:url(#clippath);}.cls-4{fill:none;}.cls-5{fill:#f06098;}.cls-6{fill:#48b9c7;}.cls-7{fill:#542e91;}</style><clipPath id="clippath"><rect class="cls-4" x="24.03" y="41.98" width="9" height="6.9"/></clipPath><clipPath id="clippath-1"><rect class="cls-4" x="33.03" y="17.08" width="9" height="6.9"/></clipPath></defs><polygon class="cls-6" points="39.33 38.98 36.63 38.98 36.63 41.08 39.73 41.08 39.73 41.68 35.93 41.68 35.93 35.88 39.63 35.88 39.63 36.48 36.63 36.48 36.63 38.38 39.33 38.38 39.33 38.98"/><path class="cls-6" d="m44.83,35.88v3.9c0,.6-.2,1.1-.6,1.4-.4.3-.9.5-1.6.5-.6,0-1.1-.2-1.5-.5s-.6-.8-.6-1.4v-3.9h.8v3.9c0,.4.1.8.4,1,.2.2.6.3,1,.3s.8-.1,1-.3c.3-.2.4-.6.4-1v-3.9h.7Z"/><path class="cls-6" d="m49.53,39.68h.8v.6h-.8v1.3h-.8v-1.3h-2.7v-.4l2.7-4h.9v3.8h-.1Zm-2.7,0h1.8v-2.7h0l-.1.2-1.7,2.5Z"/><path class="cls-6" d="m55.43,39.78h0c0,.6-.2,1-.6,1.4-.4.4-.9.5-1.5.5s-1.2-.2-1.6-.7c-.4-.5-.6-1-.6-1.8v-1c0-.7.2-1.3.6-1.8.4-.5.9-.7,1.6-.7.6,0,1.2.2,1.5.5.4.3.6.8.6,1.4h-.7c0-.4-.1-.7-.4-1-.2-.2-.6-.4-1-.4s-.8.2-1,.5c-.3.4-.4.8-.4,1.3v1c0,.5.1,1,.4,1.3.3.3.6.5,1,.5s.8-.1,1-.4c.2-.2.4-.6.4-1h.7v.4Z"/><rect class="cls-6" x="56.53" y="35.88" width=".8" height="5.7"/><polygon class="cls-6" points="60.83 40.28 60.93 40.68 61.03 40.68 61.13 40.28 62.63 35.88 63.43 35.88 61.33 41.68 60.63 41.68 58.53 35.88 59.33 35.88 60.83 40.28"/><rect class="cls-6" x="64.63" y="35.88" width=".8" height="5.7"/><polygon class="cls-6" points="68.03 41.08 70.73 41.08 70.73 41.68 67.23 41.68 67.23 35.88 68.03 35.88 68.03 41.08"/><path class="cls-6" d="m39.03,48.98c0-.3-.1-.5-.3-.7s-.5-.3-1-.4c-.6-.1-1.1-.4-1.4-.6-.3-.3-.5-.6-.5-1.1,0-.4.2-.8.5-1.1.4-.3.8-.4,1.4-.4s1.1.2,1.5.5.6.7.5,1.2h-.7c0-.3-.1-.6-.3-.8s-.5-.3-1-.3c-.4,0-.7.1-.9.3s-.3.4-.3.7c0,.2.1.5.3.6.2.2.6.3,1.1.4.6.1,1.1.4,1.4.7.3.3.5.7.5,1.1,0,.5-.2.8-.6,1.1-.4.3-.9.4-1.5.4s-1.1-.2-1.5-.5-.7-.7-.6-1.2h.7c0,.4.1.6.4.8.3.2.6.3,1,.3s.7-.1.9-.2c.3-.3.4-.5.4-.8"/><path class="cls-6" d="m44.83,48.08c0,.7-.2,1.3-.6,1.7-.4.5-.9.7-1.6.7-.6,0-1.1-.2-1.5-.7s-.6-1-.6-1.7v-1c0-.7.2-1.3.6-1.7.4-.5.9-.7,1.5-.7s1.2.2,1.6.7c.4.5.6,1,.6,1.7v1Zm-.7-1c0-.5-.1-1-.4-1.3-.3-.3-.6-.5-1.1-.5-.4,0-.8.2-1,.5s-.4.8-.4,1.3v1c0,.5.1,1,.4,1.3.2.3.6.5,1,.5s.8-.2,1.1-.5.4-.8.4-1.3v-1Z"/><path class="cls-6" d="m50.03,48.58h0c0,.6-.2,1-.6,1.4-.4.4-.9.5-1.5.5s-1.2-.2-1.6-.7c-.4-.5-.6-1-.6-1.8v-1c0-.7.2-1.3.6-1.8.4-.5.9-.7,1.6-.7.6,0,1.2.2,1.5.5.4.3.6.8.6,1.4h-.7c0-.4-.1-.7-.4-1-.2-.2-.6-.4-1-.4s-.8.2-1,.5c-.3.4-.4.8-.4,1.3v1c0,.5.1,1,.4,1.3.3.4.6.5,1,.5s.8-.1,1-.4c.2-.2.4-.6.4-1h.7v.4Z"/><rect class="cls-6" x="51.43" y="44.68" width=".8" height="5.7"/><polygon class="cls-6" points="57.13 47.78 54.43 47.78 54.43 49.88 57.53 49.88 57.53 50.48 53.73 50.48 53.73 44.68 57.43 44.68 57.43 45.28 54.43 45.28 54.43 47.18 57.13 47.18 57.13 47.78"/><polygon class="cls-6" points="62.73 45.28 60.83 45.28 60.83 50.48 60.13 50.48 60.13 45.28 58.23 45.28 58.23 44.68 62.73 44.68 62.73 45.28"/><polygon class="cls-6" points="65.83 47.58 67.33 44.68 68.23 44.68 66.13 48.38 66.13 50.48 65.43 50.48 65.43 48.38 63.43 44.68 64.33 44.68 65.83 47.58"/><path class="cls-6" d="m12.93,41.98h11.1v11.1c0,3.2,1.3,6.2,3.5,8.4l4.3,4.3c.5.5,1.2.1,1.2-.5v-29c0-1.8-1.5-3.3-3.3-3.3H.73c-.6,0-1,.8-.5,1.2l4.3,4.3c2.2,2.3,5.3,3.5,8.4,3.5"/><g class="cls-3"><polygon class="cls-1" points="33.03 41.98 24.03 48.88 24.03 41.98 33.03 41.98"/></g><path class="cls-7" d="m24.03,41.98h9v-5.7c0-1.8-1.5-3.3-3.3-3.3H.73c-.6,0-1,.8-.5,1.2l4.3,4.3c2.2,2.2,5.3,3.5,8.4,3.5h11.1Z"/><path class="cls-5" d="m53.13,23.98h-11.1v-11.1c0-3.2-1.3-6.2-3.5-8.4L34.23.18c-.4-.4-1.2-.1-1.2.5v29c0,1.8,1.5,3.3,3.3,3.3h29c.6,0,1-.8.5-1.2l-4.3-4.3c-2.2-2.2-5.3-3.5-8.4-3.5"/><g class="cls-2"><polygon class="cls-1" points="33.03 23.98 42.03 17.08 42.03 23.98 33.03 23.98"/></g><path class="cls-7" d="m42.03,23.98h-9v5.7c0,1.8,1.5,3.3,3.3,3.3h29c.6,0,1-.8.5-1.2l-4.3-4.3c-2.2-2.2-5.3-3.5-8.4-3.5h-11.1Z"/><path class="cls-6" d="m88.13,41.08h-3.8v2.6h4.5v1.4h-6.3v-9.1h6.3v1.4h-4.5v2.3h3.8v1.4Z"/><path class="cls-6" d="m97.23,35.98v6.1c0,1-.3,1.8-1,2.4-.7.6-1.6.8-2.7.8s-2-.3-2.7-.8c-.7-.6-1-1.4-1-2.4v-6.1h1.9v6.1c0,.6.2,1.1.5,1.4.3.3.8.5,1.3.5.6,0,1-.2,1.4-.4.3-.3.5-.8.5-1.4v-6.2h1.8Z"/><path class="cls-6" d="m100.73,41.78v3.3h-1.9v-9.1h3.7c1.1,0,1.9.3,2.5.8s.9,1.3.9,2.1c0,.9-.3,1.6-.9,2.1s-1.4.8-2.5.8c0,0-1.8,0-1.8,0Zm0-1.4h1.8c.5,0,.9-.1,1.2-.4s.4-.6.4-1.1c0-.4-.1-.8-.4-1.1s-.7-.4-1.2-.4h-1.8v3Z"/><path class="cls-6" d="m109.13,41.48v3.7h-1.9v-9.2h3.5c1.1,0,1.9.2,2.5.7s.9,1.1.9,2c0,.5-.1.9-.4,1.2-.2.3-.6.6-1.1.8.5.2.9.4,1.2.8.2.4.4.8.4,1.4v.7c0,.3,0,.5.1.8s.2.5.4.6v.1h-1.9c-.2-.1-.3-.4-.3-.7s-.1-.6-.1-.9v-.5c0-.5-.1-.8-.4-1.1s-.6-.4-1.1-.4h-1.8Zm0-1.4h1.6c.5,0,.9-.1,1.2-.3.3-.2.4-.5.4-1,0-.4-.1-.8-.4-1s-.6-.4-1.1-.4h-1.6v2.7h-.1Z"/><path class="cls-6" d="m123.33,41.38c0,1.1-.4,2.1-1.1,2.8s-1.6,1.1-2.8,1.1c-1.1,0-2.1-.4-2.8-1.1-.7-.7-1.1-1.7-1.1-2.8v-1.7c0-1.1.4-2.1,1.1-2.8s1.6-1.1,2.8-1.1c1.1,0,2.1.4,2.8,1.1.7.7,1.1,1.7,1.1,2.8v1.7Zm-1.9-1.7c0-.7-.2-1.3-.5-1.8-.4-.5-.9-.7-1.5-.7s-1.1.2-1.5.7c-.3.5-.5,1.1-.5,1.8v1.7c0,.7.2,1.3.5,1.8.4.5.8.7,1.5.7.6,0,1.1-.2,1.5-.7s.5-1.1.5-1.8v-1.7Z"/><path class="cls-6" d="m129.73,42.78c0-.4-.1-.6-.4-.9-.3-.2-.7-.4-1.3-.6-1.1-.3-1.9-.7-2.5-1.1-.6-.4-.8-1-.8-1.8s.3-1.4,1-1.9,1.5-.7,2.5-.7,1.8.3,2.5.8c.6.5.9,1.2.9,2h-1.8c0-.4-.1-.8-.4-1-.3-.3-.7-.4-1.2-.4s-.9.1-1.1.3c-.3.2-.4.5-.4.8s.1.6.4.8.8.4,1.5.6c1,.3,1.8.7,2.3,1.1.5.5.8,1.1.8,1.8,0,.8-.3,1.4-.9,1.9-.6.5-1.4.7-2.5.7-1,0-1.9-.3-2.6-.8s-1.1-1.2-1.1-2.2h1.8c0,.5.2,1,.5,1.2.3.3.8.4,1.4.4.5,0,.9-.1,1.2-.3.1-.1.2-.4.2-.7Z"/><path class="cls-6" d="m139.43,37.38h-2.6v7.8h-1.9v-7.8h-2.6v-1.4h7.1v1.4Z"/><path class="cls-6" d="m142.43,45.18h-1.9v-9.2h1.9v9.2Z"/><path class="cls-6" d="m146.13,41.48v3.7h-1.9v-9.2h3.5c1.1,0,1.9.2,2.5.7s.9,1.1.9,2c0,.5-.1.9-.4,1.2-.2.3-.6.6-1.1.8.5.2.9.4,1.2.8.2.4.4.8.4,1.4v.7c0,.3,0,.5.1.8s.2.5.4.6v.1h-1.9c-.2-.1-.3-.4-.3-.7s-.1-.6-.1-.9v-.5c0-.5-.1-.8-.4-1.1-.3-.3-.6-.4-1.1-.4h-1.8Zm0-1.4h1.6c.5,0,.9-.1,1.2-.3s.4-.5.4-1c0-.4-.1-.8-.4-1-.3-.2-.6-.4-1.1-.4h-1.6v2.7h-.1Z"/></svg>