<?xml version="1.0" encoding="utf-8"?>
<!-- Generator: Adobe Illustrator 17.1.0, SVG Export Plug-In . SVG Version: 6.00 Build 0)  -->
<!DOCTYPE svg PUBLIC "-//W3C//DTD SVG 1.1//EN" "http://www.w3.org/Graphics/SVG/1.1/DTD/svg11.dtd">
<svg version="1.1" id="Layer_1" xmlns="http://www.w3.org/2000/svg" xmlns:xlink="http://www.w3.org/1999/xlink" x="0px" y="0px"
	 viewBox="0 0 151.6 66" enable-background="new 0 0 151.6 66" xml:space="preserve">
<g>
	<g>
		<polygon fill="#48B9C7" points="39.3,39 36.6,39 36.6,41.1 39.7,41.1 39.7,41.7 35.9,41.7 35.9,35.9 39.6,35.9 39.6,36.5 
			36.6,36.5 36.6,38.4 39.3,38.4 		"/>
		<path fill="#48B9C7" d="M44.8,35.9v3.9c0,0.6-0.2,1.1-0.6,1.4c-0.4,0.3-0.9,0.5-1.6,0.5c-0.6,0-1.1-0.2-1.5-0.5
			c-0.4-0.3-0.6-0.8-0.6-1.4v-3.9h0.8v3.9c0,0.4,0.1,0.8,0.4,1c0.2,0.2,0.6,0.3,1,0.3c0.4,0,0.8-0.1,1-0.3c0.3-0.2,0.4-0.6,0.4-1
			v-3.9H44.8z"/>
		<path fill="#48B9C7" d="M49.5,39.7h0.8v0.6h-0.8v1.3h-0.8v-1.3h-2.7v-0.4l2.7-4h0.9V39.7z M46.8,39.7h1.8v-2.7l0,0l-0.1,0.2
			L46.8,39.7z"/>
		<path fill="#48B9C7" d="M55.4,39.8L55.4,39.8c0,0.6-0.2,1-0.6,1.4c-0.4,0.4-0.9,0.5-1.5,0.5c-0.6,0-1.2-0.2-1.6-0.7
			c-0.4-0.5-0.6-1-0.6-1.8v-1c0-0.7,0.2-1.3,0.6-1.8c0.4-0.5,0.9-0.7,1.6-0.7c0.6,0,1.2,0.2,1.5,0.5c0.4,0.3,0.6,0.8,0.6,1.4l0,0
			h-0.7c0-0.4-0.1-0.7-0.4-1c-0.2-0.2-0.6-0.4-1-0.4c-0.4,0-0.8,0.2-1,0.5c-0.3,0.4-0.4,0.8-0.4,1.3v1c0,0.5,0.1,1,0.4,1.3
			c0.3,0.3,0.6,0.5,1,0.5c0.4,0,0.8-0.1,1-0.4c0.2-0.2,0.4-0.6,0.4-1H55.4z"/>
		<rect x="56.5" y="35.9" fill="#48B9C7" width="0.8" height="5.7"/>
		<polygon fill="#48B9C7" points="60.8,40.3 60.9,40.7 61,40.7 61.1,40.3 62.6,35.9 63.4,35.9 61.3,41.7 60.6,41.7 58.5,35.9 
			59.3,35.9 		"/>
		<rect x="64.6" y="35.9" fill="#48B9C7" width="0.8" height="5.7"/>
		<polygon fill="#48B9C7" points="68,41.1 70.7,41.1 70.7,41.7 67.2,41.7 67.2,35.9 68,35.9 		"/>
		<path fill="#48B9C7" d="M39,49c0-0.3-0.1-0.5-0.3-0.7s-0.5-0.3-1-0.4c-0.6-0.1-1.1-0.4-1.4-0.6c-0.3-0.3-0.5-0.6-0.5-1.1
			c0-0.4,0.2-0.8,0.5-1.1c0.4-0.3,0.8-0.4,1.4-0.4c0.6,0,1.1,0.2,1.5,0.5c0.4,0.3,0.6,0.7,0.5,1.2l0,0H39c0-0.3-0.1-0.6-0.3-0.8
			c-0.2-0.2-0.5-0.3-1-0.3c-0.4,0-0.7,0.1-0.9,0.3c-0.2,0.2-0.3,0.4-0.3,0.7c0,0.2,0.1,0.5,0.3,0.6c0.2,0.2,0.6,0.3,1.1,0.4
			c0.6,0.1,1.1,0.4,1.4,0.7c0.3,0.3,0.5,0.7,0.5,1.1c0,0.5-0.2,0.8-0.6,1.1c-0.4,0.3-0.9,0.4-1.5,0.4c-0.6,0-1.1-0.2-1.5-0.5
			c-0.4-0.3-0.7-0.7-0.6-1.2l0,0h0.7c0,0.4,0.1,0.6,0.4,0.8c0.3,0.2,0.6,0.3,1,0.3c0.4,0,0.7-0.1,0.9-0.2C38.9,49.5,39,49.3,39,49"
			/>
		<path fill="#48B9C7" d="M44.8,48.1c0,0.7-0.2,1.3-0.6,1.7c-0.4,0.5-0.9,0.7-1.6,0.7c-0.6,0-1.1-0.2-1.5-0.7
			c-0.4-0.5-0.6-1-0.6-1.7v-1c0-0.7,0.2-1.3,0.6-1.7c0.4-0.5,0.9-0.7,1.5-0.7c0.6,0,1.2,0.2,1.6,0.7c0.4,0.5,0.6,1,0.6,1.7V48.1z
			 M44.1,47.1c0-0.5-0.1-1-0.4-1.3c-0.3-0.3-0.6-0.5-1.1-0.5c-0.4,0-0.8,0.2-1,0.5c-0.2,0.3-0.4,0.8-0.4,1.3v1c0,0.5,0.1,1,0.4,1.3
			c0.2,0.3,0.6,0.5,1,0.5c0.4,0,0.8-0.2,1.1-0.5c0.3-0.3,0.4-0.8,0.4-1.3V47.1z"/>
		<path fill="#48B9C7" d="M50,48.6L50,48.6c0,0.6-0.2,1-0.6,1.4c-0.4,0.4-0.9,0.5-1.5,0.5c-0.6,0-1.2-0.2-1.6-0.7
			c-0.4-0.5-0.6-1-0.6-1.8v-1c0-0.7,0.2-1.3,0.6-1.8c0.4-0.5,0.9-0.7,1.6-0.7c0.6,0,1.2,0.2,1.5,0.5c0.4,0.3,0.6,0.8,0.6,1.4l0,0
			h-0.7c0-0.4-0.1-0.7-0.4-1c-0.2-0.2-0.6-0.4-1-0.4c-0.4,0-0.8,0.2-1,0.5c-0.3,0.4-0.4,0.8-0.4,1.3v1c0,0.5,0.1,1,0.4,1.3
			c0.3,0.4,0.6,0.5,1,0.5c0.4,0,0.8-0.1,1-0.4c0.2-0.2,0.4-0.6,0.4-1H50z"/>
		<rect x="51.4" y="44.7" fill="#48B9C7" width="0.8" height="5.7"/>
		<polygon fill="#48B9C7" points="57.1,47.8 54.4,47.8 54.4,49.9 57.5,49.9 57.5,50.5 53.7,50.5 53.7,44.7 57.4,44.7 57.4,45.3 
			54.4,45.3 54.4,47.2 57.1,47.2 		"/>
		<polygon fill="#48B9C7" points="62.7,45.3 60.8,45.3 60.8,50.5 60.1,50.5 60.1,45.3 58.2,45.3 58.2,44.7 62.7,44.7 		"/>
		<polygon fill="#48B9C7" points="65.8,47.6 67.3,44.7 68.2,44.7 66.1,48.4 66.1,50.5 65.4,50.5 65.4,48.4 63.4,44.7 64.3,44.7 		
			"/>
		<path fill="#48B9C7" d="M12.9,42H24v11.1c0,3.2,1.3,6.2,3.5,8.4l4.3,4.3c0.5,0.5,1.2,0.1,1.2-0.5v-29c0-1.8-1.5-3.3-3.3-3.3h-29
			c-0.6,0-1,0.8-0.5,1.2l4.3,4.3C6.7,40.8,9.8,42,12.9,42"/>
		<g>
			<g>
				<defs>
					<rect id="SVGID_1_" x="24" y="42" width="9" height="6.9"/>
				</defs>
				<clipPath id="SVGID_2_">
					<use xlink:href="#SVGID_1_"  overflow="visible"/>
				</clipPath>
				<polygon clip-path="url(#SVGID_2_)" fill="#95BBE4" points="33,42 24,48.9 24,42 				"/>
			</g>
		</g>
		<path fill="#542E91" d="M24,42h9v-5.7c0-1.8-1.5-3.3-3.3-3.3h-29c-0.6,0-1,0.8-0.5,1.2l4.3,4.3c2.2,2.2,5.3,3.5,8.4,3.5H24z"/>
		<path fill="#F06098" d="M53.1,24H42V12.9c0-3.2-1.3-6.2-3.5-8.4l-4.3-4.3C33.8-0.2,33,0.1,33,0.7v29c0,1.8,1.5,3.3,3.3,3.3h29
			c0.6,0,1-0.8,0.5-1.2l-4.3-4.3C59.3,25.3,56.2,24,53.1,24"/>
		<g>
			<g>
				<defs>
					<rect id="SVGID_3_" x="33" y="17.1" width="9" height="6.9"/>
				</defs>
				<clipPath id="SVGID_4_">
					<use xlink:href="#SVGID_3_"  overflow="visible"/>
				</clipPath>
				<polygon clip-path="url(#SVGID_4_)" fill="#95BBE4" points="33,24 42,17.1 42,24 				"/>
			</g>
		</g>
		<path fill="#542E91" d="M42,24h-9v5.7c0,1.8,1.5,3.3,3.3,3.3h29c0.6,0,1-0.8,0.5-1.2l-4.3-4.3c-2.2-2.2-5.3-3.5-8.4-3.5H42z"/>
	</g>
	<g>
		<g>
			<path fill="#48B9C7" d="M88.1,46.1h-3.8v2.6h4.5v1.4h-6.3V41h6.3v1.4h-4.5v2.3h3.8V46.1z"/>
			<path fill="#48B9C7" d="M97.2,41v6.1c0,1-0.3,1.8-1,2.4c-0.7,0.6-1.6,0.8-2.7,0.8c-1.1,0-2-0.3-2.7-0.8c-0.7-0.6-1-1.4-1-2.4V41
				h1.9v6.1c0,0.6,0.2,1.1,0.5,1.4c0.3,0.3,0.8,0.5,1.3,0.5c0.6,0,1-0.2,1.4-0.4c0.3-0.3,0.5-0.8,0.5-1.4V41H97.2z"/>
			<path fill="#48B9C7" d="M100.7,46.8v3.3h-1.9V41h3.7c1.1,0,1.9,0.3,2.5,0.8c0.6,0.5,0.9,1.3,0.9,2.1c0,0.9-0.3,1.6-0.9,2.1
				c-0.6,0.5-1.4,0.8-2.5,0.8H100.7z M100.7,45.4h1.8c0.5,0,0.9-0.1,1.2-0.4s0.4-0.6,0.4-1.1c0-0.4-0.1-0.8-0.4-1.1
				c-0.3-0.3-0.7-0.4-1.2-0.4h-1.8V45.4z"/>
			<path fill="#48B9C7" d="M109.1,46.5v3.7h-1.9V41h3.5c1.1,0,1.9,0.2,2.5,0.7s0.9,1.1,0.9,2c0,0.5-0.1,0.9-0.4,1.2
				c-0.2,0.3-0.6,0.6-1.1,0.8c0.5,0.2,0.9,0.4,1.2,0.8c0.2,0.4,0.4,0.8,0.4,1.4v0.7c0,0.3,0,0.5,0.1,0.8c0.1,0.3,0.2,0.5,0.4,0.6
				v0.1h-1.9c-0.2-0.1-0.3-0.4-0.3-0.7s-0.1-0.6-0.1-0.9V48c0-0.5-0.1-0.8-0.4-1.1c-0.3-0.3-0.6-0.4-1.1-0.4H109.1z M109.1,45.1h1.6
				c0.5,0,0.9-0.1,1.2-0.3c0.3-0.2,0.4-0.5,0.4-1c0-0.4-0.1-0.8-0.4-1c-0.3-0.2-0.6-0.4-1.1-0.4h-1.6V45.1z"/>
			<path fill="#48B9C7" d="M123.3,46.4c0,1.1-0.4,2.1-1.1,2.8c-0.7,0.7-1.6,1.1-2.8,1.1c-1.1,0-2.1-0.4-2.8-1.1
				c-0.7-0.7-1.1-1.7-1.1-2.8v-1.7c0-1.1,0.4-2.1,1.1-2.8c0.7-0.7,1.6-1.1,2.8-1.1c1.1,0,2.1,0.4,2.8,1.1c0.7,0.7,1.1,1.7,1.1,2.8
				V46.4z M121.4,44.7c0-0.7-0.2-1.3-0.5-1.8c-0.4-0.5-0.9-0.7-1.5-0.7c-0.6,0-1.1,0.2-1.5,0.7c-0.3,0.5-0.5,1.1-0.5,1.8v1.7
				c0,0.7,0.2,1.3,0.5,1.8c0.4,0.5,0.8,0.7,1.5,0.7c0.6,0,1.1-0.2,1.5-0.7c0.4-0.5,0.5-1.1,0.5-1.8V44.7z"/>
			<path fill="#48B9C7" d="M129.7,47.8c0-0.4-0.1-0.6-0.4-0.9c-0.3-0.2-0.7-0.4-1.3-0.6c-1.1-0.3-1.9-0.7-2.5-1.1
				c-0.6-0.4-0.8-1-0.8-1.8c0-0.8,0.3-1.4,1-1.9s1.5-0.7,2.5-0.7c1,0,1.8,0.3,2.5,0.8c0.6,0.5,0.9,1.2,0.9,2l0,0h-1.8
				c0-0.4-0.1-0.8-0.4-1c-0.3-0.3-0.7-0.4-1.2-0.4c-0.5,0-0.9,0.1-1.1,0.3c-0.3,0.2-0.4,0.5-0.4,0.8c0,0.3,0.1,0.6,0.4,0.8
				c0.3,0.2,0.8,0.4,1.5,0.6c1,0.3,1.8,0.7,2.3,1.1c0.5,0.5,0.8,1.1,0.8,1.8c0,0.8-0.3,1.4-0.9,1.9c-0.6,0.5-1.4,0.7-2.5,0.7
				c-1,0-1.9-0.3-2.6-0.8c-0.7-0.5-1.1-1.2-1.1-2.2l0,0h1.8c0,0.5,0.2,1,0.5,1.2c0.3,0.3,0.8,0.4,1.4,0.4c0.5,0,0.9-0.1,1.2-0.3
				C129.6,48.4,129.7,48.1,129.7,47.8z"/>
			<path fill="#48B9C7" d="M139.4,42.4h-2.6v7.8h-1.9v-7.8h-2.6V41h7.1V42.4z"/>
			<path fill="#48B9C7" d="M142.4,50.2h-1.9V41h1.9V50.2z"/>
			<path fill="#48B9C7" d="M146.1,46.5v3.7h-1.9V41h3.5c1.1,0,1.9,0.2,2.5,0.7c0.6,0.5,0.9,1.1,0.9,2c0,0.5-0.1,0.9-0.4,1.2
				c-0.2,0.3-0.6,0.6-1.1,0.8c0.5,0.2,0.9,0.4,1.2,0.8c0.2,0.4,0.4,0.8,0.4,1.4v0.7c0,0.3,0,0.5,0.1,0.8c0.1,0.3,0.2,0.5,0.4,0.6
				v0.1h-1.9c-0.2-0.1-0.3-0.4-0.3-0.7s-0.1-0.6-0.1-0.9V48c0-0.5-0.1-0.8-0.4-1.1c-0.3-0.3-0.6-0.4-1.1-0.4H146.1z M146.1,45.1h1.6
				c0.5,0,0.9-0.1,1.2-0.3c0.3-0.2,0.4-0.5,0.4-1c0-0.4-0.1-0.8-0.4-1c-0.3-0.2-0.6-0.4-1.1-0.4h-1.6V45.1z"/>
		</g>
		<g>
			<polygon fill="#2A285E" points="88.6,29 86,29 86,36.7 84.1,36.7 84.1,29 81.6,29 81.6,27.6 88.6,27.6 			"/>
			<path fill="#2A285E" d="M97.3,32.9c0,1.1-0.4,2-1.1,2.8c-0.7,0.7-1.6,1.1-2.8,1.1c-1.1,0-2-0.4-2.7-1.1c-0.7-0.7-1.1-1.7-1.1-2.8
				v-1.6c0-1.1,0.3-2,1.1-2.8c0.7-0.7,1.6-1.1,2.7-1.1c1.1,0,2.1,0.4,2.8,1.1c0.7,0.7,1.1,1.7,1.1,2.8V32.9z M95.5,31.3
				c0-0.7-0.2-1.3-0.5-1.8c-0.4-0.5-0.8-0.7-1.5-0.7c-0.6,0-1.1,0.2-1.4,0.7c-0.3,0.5-0.5,1-0.5,1.8V33c0,0.7,0.2,1.3,0.5,1.8
				c0.3,0.5,0.8,0.7,1.4,0.7c0.6,0,1.1-0.2,1.5-0.7c0.4-0.5,0.5-1,0.5-1.8V31.3z"/>
			<path fill="#2A285E" d="M106.2,35.4c-0.3,0.4-0.7,0.7-1.3,1c-0.6,0.3-1.3,0.4-2.2,0.4c-1.1,0-2-0.3-2.7-1
				c-0.7-0.7-1.1-1.6-1.1-2.7v-1.9c0-1.1,0.3-2,1-2.7c0.7-0.7,1.6-1,2.6-1c1.1,0,2,0.3,2.6,0.8c0.6,0.5,0.9,1.3,0.9,2.1l0,0h-1.7
				c0-0.5-0.2-0.9-0.5-1.2c-0.3-0.3-0.7-0.4-1.2-0.4c-0.6,0-1,0.2-1.4,0.6c-0.3,0.4-0.5,1-0.5,1.7v1.9c0,0.7,0.2,1.3,0.5,1.7
				c0.4,0.4,0.8,0.6,1.4,0.6c0.4,0,0.8,0,1-0.1c0.3-0.1,0.5-0.2,0.6-0.3v-1.7h-1.6V32h3.4V35.4z"/>
			<polygon fill="#2A285E" points="113.5,32.8 109.8,32.8 109.8,35.4 114.2,35.4 114.2,36.8 107.9,36.8 107.9,27.6 114.2,27.6 
				114.2,29 109.8,29 109.8,31.3 113.5,31.3 			"/>
			<polygon fill="#2A285E" points="122.9,29 120.3,29 120.3,36.8 118.5,36.8 118.5,29 115.9,29 115.9,27.6 122.9,27.6 			"/>
			<polygon fill="#2A285E" points="131.9,36.8 130.1,36.8 130.1,33 126.4,33 126.4,36.8 124.5,36.8 124.5,27.6 126.4,27.6 
				126.4,31.5 130.1,31.5 130.1,27.6 131.9,27.6 			"/>
			<polygon fill="#2A285E" points="139.3,32.8 135.5,32.8 135.5,35.4 140,35.4 140,36.8 133.7,36.8 133.7,27.6 139.9,27.6 139.9,29 
				135.5,29 135.5,31.3 139.3,31.3 			"/>
			<path fill="#2A285E" d="M143.5,33.1v3.7h-1.8v-9.3h3.4c1,0,1.9,0.2,2.4,0.7c0.6,0.5,0.9,1.2,0.9,2c0,0.5-0.1,0.9-0.4,1.2
				c-0.2,0.3-0.6,0.6-1.1,0.8c0.5,0.2,0.9,0.4,1.2,0.8c0.2,0.4,0.4,0.8,0.4,1.4v0.7c0,0.3,0,0.5,0.1,0.8c0.1,0.3,0.2,0.5,0.4,0.6
				v0.1h-1.9c-0.2-0.1-0.3-0.4-0.3-0.7c-0.1-0.3-0.1-0.6-0.1-0.9v-0.7c0-0.5-0.1-0.8-0.4-1.1c-0.2-0.3-0.6-0.4-1.1-0.4H143.5z
				 M143.5,31.7h1.6c0.5,0,0.9-0.1,1.2-0.3c0.3-0.2,0.4-0.5,0.4-1c0-0.4-0.1-0.8-0.4-1c-0.3-0.3-0.6-0.4-1.1-0.4h-1.6V31.7z"/>
		</g>
	</g>
</g>
</svg>
