<?xml version="1.0" encoding="utf-8"?>
<!-- Generator: Adobe Illustrator 17.1.0, SVG Export Plug-In . SVG Version: 6.00 Build 0)  -->
<!DOCTYPE svg PUBLIC "-//W3C//DTD SVG 1.1//EN" "http://www.w3.org/Graphics/SVG/1.1/DTD/svg11.dtd">
<svg version="1.1" id="Layer_1" xmlns="http://www.w3.org/2000/svg" xmlns:xlink="http://www.w3.org/1999/xlink" x="0px" y="0px"
	 viewBox="0 0 48.2 27" enable-background="new 0 0 48.2 27" xml:space="preserve">
<g>
	<polygon fill="#8DC63F" points="0.4,7 0.4,19.2 0.4,20 1.2,20 44.8,20 48.1,13.5 44.8,7 	"/>
	<polygon fill="#034EA2" points="48.1,4.4 48.1,0.2 32.3,0.2 28.3,0.2 28.3,26.8 32.1,26.8 32.3,26.8 48.1,26.8 48.1,22.6
		32.3,22.6 32.3,15.6 47.1,15.6 48.1,13.5 47.1,11.4 32.3,11.4 32.3,4.4 	"/>
	<g>
		<rect y="0.3" fill="#034EA2" width="4" height="26.3"/>
	</g>
	<path fill="#034EA2" d="M17.2,23.4c-4.4,0-7.9-3-7.9-9.8c0-0.1,0-0.1,0-0.2c0-0.1,0-0.1,0-0.2c0-6.8,3.5-9.8,7.9-9.8
		c3.3,0,5.4,3.1,6.2,4.6h4.2C27.2,5.9,24.9,0,16.7,0C9,0,4.9,5.4,4.9,13.1c0,0.1,0,0.2,0,0.4c0,0.1,0,0.2,0,0.4
		C4.9,21.6,9,27,16.7,27c8.3,0,10.5-5.9,11-8.1h-4.2C22.6,20.4,20.6,23.4,17.2,23.4z"/>
	<polygon fill="#8DC63F" points="0,11.2 2.3,13.5 0,15.8 	"/>
</g>
</svg>
