<?xml version="1.0" encoding="utf-8"?>
<!-- Generator: Adobe Illustrator 17.1.0, SVG Export Plug-In . SVG Version: 6.00 Build 0)  -->
<!DOCTYPE svg PUBLIC "-//W3C//DTD SVG 1.1//EN" "http://www.w3.org/Graphics/SVG/1.1/DTD/svg11.dtd">
<svg version="1.1" id="Layer_1" xmlns="http://www.w3.org/2000/svg" xmlns:xlink="http://www.w3.org/1999/xlink" x="0px" y="0px"
	 viewBox="0 0 183.7 66" enable-background="new 0 0 183.7 66" xml:space="preserve">
<g>
	<polygon fill="#FFFFFF" points="39.6,36.5 39.6,35.9 35.9,35.9 35.9,41.7 39.7,41.7 39.7,41.1 36.6,41.1 36.6,39 39.3,39 
		39.3,38.4 36.6,38.4 36.6,36.5 	"/>
	<path fill="#FFFFFF" d="M42.6,41.7c0.7,0,1.2-0.2,1.6-0.5c0.4-0.3,0.6-0.8,0.6-1.4v-3.9H44v3.9c0,0.4-0.1,0.8-0.4,1
		c-0.3,0.2-0.6,0.3-1,0.3c-0.4,0-0.7-0.1-1-0.3c-0.2-0.2-0.4-0.6-0.4-1v-3.9h-0.8v3.9c0,0.6,0.2,1.1,0.6,1.4
		C41.5,41.6,42,41.7,42.6,41.7z"/>
	<path fill="#FFFFFF" d="M49.5,35.9h-0.9l-2.7,4v0.4h2.7v1.3h0.8v-1.3h0.8v-0.6h-0.8V35.9z M48.7,39.7h-1.8l1.7-2.5l0.1-0.2l0,0
		V39.7z"/>
	<path fill="#FFFFFF" d="M55.4,39.8L55.4,39.8l-0.8,0c0,0.4-0.1,0.7-0.4,1c-0.2,0.2-0.6,0.4-1,0.4c-0.4,0-0.8-0.2-1-0.5
		c-0.3-0.3-0.4-0.8-0.4-1.3v-1c0-0.5,0.1-0.9,0.4-1.3c0.3-0.3,0.6-0.5,1-0.5c0.4,0,0.8,0.1,1,0.4c0.2,0.2,0.4,0.6,0.4,1h0.7l0,0
		c0-0.6-0.2-1-0.6-1.4c-0.4-0.3-0.9-0.5-1.5-0.5c-0.6,0-1.2,0.2-1.6,0.7c-0.4,0.5-0.6,1-0.6,1.8v1c0,0.7,0.2,1.3,0.6,1.8
		c0.4,0.5,0.9,0.7,1.6,0.7c0.6,0,1.2-0.2,1.5-0.5C55.2,40.8,55.4,40.4,55.4,39.8z"/>
	<rect x="56.5" y="35.9" fill="#FFFFFF" width="0.8" height="5.7"/>
	<polygon fill="#FFFFFF" points="61,40.7 60.9,40.7 60.8,40.2 59.3,35.9 58.5,35.9 60.6,41.7 61.3,41.7 63.4,35.9 62.6,35.9 
		61.1,40.2 	"/>
	<rect x="64.6" y="35.9" fill="#FFFFFF" width="0.8" height="5.7"/>
	<polygon fill="#FFFFFF" points="68,35.9 67.2,35.9 67.2,41.7 70.7,41.7 70.7,41.1 68,41.1 	"/>
	<path fill="#FFFFFF" d="M37.9,47.2c-0.5-0.1-0.9-0.3-1.1-0.4c-0.2-0.2-0.3-0.4-0.3-0.6c0-0.3,0.1-0.5,0.3-0.7
		c0.2-0.2,0.5-0.3,0.9-0.3c0.4,0,0.7,0.1,1,0.3c0.2,0.2,0.3,0.5,0.3,0.8h0.7l0,0c0-0.5-0.2-0.9-0.5-1.2c-0.4-0.3-0.9-0.5-1.5-0.5
		c-0.6,0-1.1,0.1-1.4,0.4c-0.4,0.3-0.5,0.7-0.5,1.1c0,0.4,0.2,0.8,0.5,1.1c0.3,0.3,0.8,0.5,1.4,0.6c0.5,0.1,0.9,0.3,1,0.4
		S39,48.7,39,49c0,0.3-0.1,0.5-0.3,0.7c-0.2,0.2-0.5,0.2-0.9,0.2c-0.4,0-0.7-0.1-1-0.3c-0.3-0.2-0.4-0.5-0.4-0.8h-0.7l0,0
		c0,0.5,0.2,0.9,0.6,1.2c0.4,0.3,0.9,0.5,1.5,0.5c0.6,0,1.1-0.1,1.5-0.4c0.4-0.3,0.6-0.7,0.6-1.1c0-0.4-0.2-0.8-0.5-1.1
		C39,47.6,38.5,47.4,37.9,47.2z"/>
	<path fill="#FFFFFF" d="M42.7,44.6c-0.6,0-1.1,0.2-1.5,0.7c-0.4,0.5-0.6,1-0.6,1.7v1c0,0.7,0.2,1.3,0.6,1.7
		c0.4,0.5,0.9,0.7,1.5,0.7c0.6,0,1.2-0.2,1.6-0.7c0.4-0.5,0.6-1,0.6-1.7v-1c0-0.7-0.2-1.3-0.6-1.7C43.8,44.9,43.3,44.6,42.7,44.6z
		 M44.1,48.1c0,0.5-0.1,1-0.4,1.3c-0.3,0.3-0.6,0.5-1.1,0.5c-0.4,0-0.8-0.2-1-0.5c-0.2-0.3-0.4-0.8-0.4-1.3v-1c0-0.5,0.1-1,0.4-1.3
		c0.2-0.3,0.6-0.5,1-0.5c0.4,0,0.8,0.2,1.1,0.5c0.3,0.3,0.4,0.8,0.4,1.3V48.1z"/>
	<path fill="#FFFFFF" d="M46.9,45.8c0.3-0.3,0.6-0.5,1-0.5c0.4,0,0.8,0.1,1,0.4c0.2,0.2,0.4,0.6,0.4,1H50l0,0c0-0.6-0.2-1-0.6-1.4
		c-0.4-0.3-0.9-0.5-1.5-0.5c-0.6,0-1.2,0.2-1.6,0.7c-0.4,0.5-0.6,1-0.6,1.8v1c0,0.7,0.2,1.3,0.6,1.8c0.4,0.5,0.9,0.7,1.6,0.7
		c0.6,0,1.2-0.2,1.5-0.5c0.4-0.4,0.6-0.8,0.6-1.4l0,0h-0.7c0,0.4-0.1,0.7-0.4,1c-0.2,0.2-0.6,0.4-1,0.4c-0.4,0-0.8-0.2-1-0.5
		c-0.3-0.3-0.4-0.8-0.4-1.3v-1C46.5,46.5,46.6,46.1,46.9,45.8z"/>
	<rect x="51.4" y="44.7" fill="#FFFFFF" width="0.8" height="5.7"/>
	<polygon fill="#FFFFFF" points="54.4,47.8 57.1,47.8 57.1,47.2 54.4,47.2 54.4,45.3 57.4,45.3 57.4,44.7 53.7,44.7 53.7,50.5 
		57.5,50.5 57.5,49.8 54.4,49.8 	"/>
	<polygon fill="#FFFFFF" points="58.2,45.3 60.1,45.3 60.1,50.5 60.8,50.5 60.8,45.3 62.7,45.3 62.7,44.7 58.2,44.7 	"/>
	<polygon fill="#FFFFFF" points="65.8,47.6 64.3,44.7 63.4,44.7 65.4,48.4 65.4,50.4 66.1,50.4 66.1,48.4 68.2,44.7 67.3,44.7 	"/>
	<path fill="#FFFFFF" d="M30.8,33.2c-0.3-0.1-0.7-0.2-1-0.2h0h-29h0c-0.1,0-0.2,0-0.3,0.1c-0.3,0.2-0.4,0.5-0.4,0.8
		c0,0.1,0.1,0.2,0.2,0.3l4.3,4.3c2.2,2.2,5.3,3.5,8.4,3.5h0H24v6.9h0v4.2c0,3.2,1.3,6.2,3.5,8.4l4.3,4.3c0.5,0.5,1.2,0.1,1.2-0.5
		v-29C33,34.8,32.1,33.6,30.8,33.2z"/>
	<path fill="#FFFFFF" d="M36.3,33L36.3,33h29h0c0.1,0,0.2,0,0.3-0.1c0.4-0.2,0.5-0.6,0.4-0.9c0-0.1-0.1-0.2-0.2-0.2l-4.3-4.3
		c-0.6-0.6-1.2-1.1-1.8-1.5c-0.5-0.3-1-0.6-1.5-0.8c-1.6-0.7-3.3-1.2-5.1-1.2h0H42v-6.9h0v-4.2c0-3.2-1.3-6.2-3.5-8.4l-4.3-4.3
		C33.8-0.2,33,0.1,33,0.7v16.4V24v5.7c0,1.3,0.8,2.5,1.9,3C35.3,32.9,35.8,33,36.3,33z"/>
	<polygon fill="#FFFFFF" points="84.1,36.7 86,36.7 86,29 88.6,29 88.6,27.6 81.6,27.6 81.6,29 84.1,29 	"/>
	<path fill="#FFFFFF" d="M93.5,36.8c1.1,0,2.1-0.4,2.8-1.1c0.7-0.7,1.1-1.7,1.1-2.8v-1.6c0-1.1-0.4-2-1.1-2.8
		c-0.7-0.7-1.6-1.1-2.8-1.1c-1.1,0-2,0.4-2.7,1.1c-0.7,0.7-1.1,1.7-1.1,2.8v1.6c0,1.1,0.4,2,1.1,2.8C91.4,36.4,92.3,36.8,93.5,36.8z
		 M91.5,31.3c0-0.7,0.2-1.3,0.5-1.8c0.3-0.5,0.8-0.7,1.4-0.7c0.6,0,1.1,0.2,1.5,0.7c0.4,0.5,0.5,1,0.5,1.8v1.7
		c0,0.7-0.2,1.3-0.5,1.8c-0.4,0.5-0.8,0.7-1.5,0.7c-0.6,0-1.1-0.2-1.4-0.7c-0.3-0.5-0.5-1-0.5-1.8V31.3z"/>
	<path fill="#FFFFFF" d="M102.8,36.8c0.9,0,1.6-0.1,2.2-0.4c0.6-0.3,1-0.6,1.3-1V32h-3.4v1.3h1.6v1.7c-0.1,0.1-0.3,0.2-0.6,0.3
		c-0.3,0.1-0.6,0.1-1,0.1c-0.6,0-1.1-0.2-1.4-0.6c-0.4-0.4-0.5-1-0.5-1.7v-1.9c0-0.7,0.2-1.2,0.5-1.7c0.3-0.4,0.8-0.6,1.4-0.6
		c0.5,0,0.9,0.1,1.2,0.4c0.3,0.3,0.4,0.7,0.5,1.2h1.7l0,0c0-0.9-0.3-1.6-0.9-2.1c-0.6-0.5-1.4-0.8-2.6-0.8c-1.1,0-1.9,0.3-2.6,1
		c-0.7,0.7-1,1.6-1,2.7v1.9c0,1.1,0.4,2,1.1,2.7C100.7,36.5,101.7,36.8,102.8,36.8z"/>
	<polygon fill="#FFFFFF" points="114.2,35.4 109.8,35.4 109.8,32.7 113.5,32.7 113.5,31.3 109.8,31.3 109.8,29 114.2,29 114.2,27.6 
		107.9,27.6 107.9,36.8 114.2,36.8 	"/>
	<polygon fill="#FFFFFF" points="118.5,36.8 120.3,36.8 120.3,29 122.9,29 122.9,27.5 115.9,27.5 115.9,29 118.5,29 	"/>
	<polygon fill="#FFFFFF" points="126.4,33 130.1,33 130.1,36.8 131.9,36.8 131.9,27.6 130.1,27.6 130.1,31.5 126.4,31.5 126.4,27.6 
		124.6,27.6 124.6,36.8 126.4,36.8 	"/>
	<polygon fill="#FFFFFF" points="140,35.4 135.5,35.4 135.5,32.7 139.3,32.7 139.3,31.3 135.5,31.3 135.5,29 139.9,29 139.9,27.6 
		133.7,27.6 133.7,36.8 140,36.8 	"/>
	<path fill="#FFFFFF" d="M143.5,33.1h1.7c0.5,0,0.8,0.1,1.1,0.4c0.2,0.3,0.4,0.6,0.4,1.1v0.7c0,0.3,0,0.6,0.1,0.9
		c0.1,0.3,0.2,0.5,0.3,0.7h1.9v-0.1c-0.2-0.1-0.3-0.3-0.4-0.6c-0.1-0.3-0.1-0.6-0.1-0.8v-0.7c0-0.6-0.1-1-0.4-1.4
		c-0.2-0.4-0.6-0.6-1.2-0.8c0.5-0.2,0.8-0.5,1.1-0.8c0.2-0.3,0.4-0.8,0.4-1.2c0-0.9-0.3-1.5-0.9-2c-0.6-0.5-1.4-0.7-2.4-0.7h-3.4
		v9.3h1.8V33.1z M143.5,29h1.6c0.5,0,0.9,0.1,1.1,0.4c0.3,0.3,0.4,0.6,0.4,1c0,0.4-0.1,0.8-0.4,1c-0.3,0.2-0.6,0.3-1.2,0.3h-1.6V29z
		"/>
	<path fill="#FFFFFF" d="M86,50.3c1.1,0,2-0.3,2.6-0.9c0.6-0.6,0.9-1.4,0.9-2.4l0,0h-1.8c0,0.6-0.1,1.1-0.4,1.4
		c-0.3,0.3-0.7,0.5-1.3,0.5c-0.6,0-1-0.2-1.4-0.7c-0.3-0.5-0.5-1-0.5-1.7v-0.2h2.8v-1.4h-2.8v-0.2c0-0.7,0.2-1.3,0.5-1.7
		c0.3-0.5,0.8-0.7,1.3-0.7c0.6,0,1.1,0.2,1.4,0.5c0.3,0.3,0.4,0.8,0.4,1.4h1.8l0,0c0-1-0.3-1.8-0.9-2.4c-0.6-0.6-1.5-0.9-2.7-0.9
		c-1.1,0-2,0.4-2.6,1.1c-0.7,0.7-1,1.6-1,2.8v1.8c0,1.1,0.3,2,1,2.8C84,49.9,84.9,50.3,86,50.3z"/>
	<path fill="#FFFFFF" d="M96.7,49.5c0.6-0.5,0.9-1.1,0.9-2c0-0.5-0.1-1-0.4-1.4s-0.7-0.6-1.2-0.8c0.4-0.2,0.8-0.4,1-0.8
		c0.2-0.3,0.3-0.7,0.3-1.1c0-0.8-0.3-1.5-0.9-1.9c-0.6-0.4-1.5-0.6-2.5-0.6h-3.1v9.2h3.6C95.3,50.2,96.1,49.9,96.7,49.5z M92.5,42.4
		h1.3c0.5,0,0.9,0.1,1.2,0.3c0.3,0.2,0.4,0.5,0.4,0.9c0,0.4-0.1,0.7-0.4,0.9c-0.3,0.2-0.6,0.3-1.1,0.3h-1.3V42.4z M92.5,46.1h1.8
		c0.5,0,0.8,0.1,1,0.4c0.2,0.2,0.3,0.6,0.3,1c0,0.4-0.1,0.7-0.4,0.9c-0.3,0.2-0.6,0.3-1.1,0.3h-1.7V46.1z"/>
	<path fill="#FFFFFF" d="M100.8,46.8h1.8c1.1,0,1.9-0.3,2.5-0.8c0.6-0.5,0.9-1.2,0.9-2.1c0-0.9-0.3-1.6-0.9-2.1
		c-0.6-0.5-1.4-0.8-2.5-0.8H99v9.2h1.9V46.8z M100.8,42.4h1.8c0.5,0,0.9,0.1,1.2,0.4c0.3,0.3,0.4,0.7,0.4,1.1c0,0.4-0.1,0.8-0.4,1.1
		c-0.3,0.3-0.7,0.4-1.2,0.4h-1.8V42.4z"/>
	<path fill="#FFFFFF" d="M113.8,49.2c0.7-0.7,1.1-1.7,1.1-2.8v-1.7c0-1.1-0.4-2.1-1.1-2.8c-0.7-0.7-1.7-1.1-2.8-1.1
		c-1.1,0-2.1,0.4-2.8,1.1c-0.7,0.7-1.1,1.7-1.1,2.8v1.7c0,1.1,0.4,2.1,1.1,2.8c0.7,0.7,1.6,1.1,2.8,1.1
		C112.1,50.3,113.1,49.9,113.8,49.2z M109.5,48.2c-0.4-0.5-0.5-1.1-0.5-1.8v-1.7c0-0.7,0.2-1.3,0.5-1.8c0.3-0.5,0.8-0.7,1.5-0.7
		c0.6,0,1.1,0.2,1.5,0.7c0.4,0.5,0.5,1.1,0.5,1.8v1.7c0,0.7-0.2,1.3-0.5,1.8c-0.4,0.5-0.8,0.7-1.5,0.7
		C110.3,48.9,109.9,48.6,109.5,48.2z"/>
	<polygon fill="#FFFFFF" points="116.3,50.2 118.1,50.2 118.1,42.4 121.9,42.4 121.9,50.2 123.8,50.2 123.8,40.9 116.3,40.9 	"/>
	<polygon fill="#FFFFFF" points="131.8,42.4 131.8,40.9 125.5,40.9 125.5,50.2 131.8,50.2 131.8,48.7 127.3,48.7 127.3,46.1 
		131.2,46.1 131.2,44.7 127.3,44.7 127.3,42.4 	"/>
	<polygon fill="#FFFFFF" points="134.8,47.1 134.7,47.1 134.7,40.9 132.9,40.9 132.9,50.2 134.7,50.2 138.5,44 138.5,44 138.5,50.2 
		140.3,50.2 140.3,40.9 138.5,40.9 	"/>
	<path fill="#FFFFFF" d="M137.2,38.7c-0.1,0.1-0.3,0.2-0.6,0.2c-0.3,0-0.5-0.1-0.6-0.2c-0.1-0.1-0.2-0.3-0.2-0.6h-1.4l0,0
		c0,0.5,0.2,1,0.6,1.3c0.4,0.3,0.9,0.5,1.6,0.5c0.7,0,1.2-0.2,1.6-0.5c0.4-0.3,0.6-0.8,0.6-1.3l0,0h-1.4
		C137.4,38.4,137.3,38.6,137.2,38.7z"/>
	<path fill="#FFFFFF" d="M145.4,40.8c-1.1,0-2,0.4-2.6,1.1c-0.7,0.7-1,1.6-1,2.8v1.8c0,1.1,0.3,2,1,2.8c0.7,0.7,1.6,1.1,2.7,1.1
		c1.1,0,2-0.3,2.6-0.9c0.6-0.6,0.9-1.4,0.9-2.4l0,0h-1.8c0,0.6-0.1,1.1-0.4,1.4c-0.3,0.3-0.7,0.5-1.3,0.5c-0.6,0-1-0.2-1.4-0.7
		c-0.3-0.5-0.5-1-0.5-1.7v-1.8c0-0.7,0.2-1.3,0.5-1.7c0.3-0.5,0.8-0.7,1.3-0.7c0.6,0,1.1,0.2,1.4,0.5c0.3,0.3,0.4,0.8,0.4,1.4h1.8
		l0,0c0-1-0.3-1.8-0.9-2.4C147.5,41.1,146.6,40.8,145.4,40.8z"/>
	<path fill="#FFFFFF" d="M153.8,44.4h-1.6v-3.4h-1.9v9.2h3.4c1.1,0,1.9-0.3,2.5-0.8c0.6-0.5,0.9-1.3,0.9-2.1c0-0.9-0.3-1.6-0.9-2.1
		C155.7,44.6,154.8,44.4,153.8,44.4z M155,48.3c-0.3,0.3-0.7,0.4-1.2,0.4h-1.6v-3h1.6c0.5,0,0.9,0.1,1.2,0.4s0.4,0.6,0.4,1
		C155.4,47.7,155.3,48,155,48.3z"/>
	<polygon fill="#FFFFFF" points="165.9,40.9 163.6,40.9 161.2,44.7 160.3,44.7 160.3,40.9 158.5,40.9 158.5,50.2 160.3,50.2 
		160.3,46.3 161.4,46.3 163.9,50.2 166.1,50.2 162.8,45.2 	"/>
	<polygon fill="#FFFFFF" points="168.7,47.1 168.7,47.1 168.7,40.9 166.8,40.9 166.8,50.2 168.7,50.2 172.4,44 172.4,44 172.4,50.2 
		174.3,50.2 174.3,40.9 172.4,40.9 	"/>
	<polygon fill="#FFFFFF" points="181.8,40.9 178.1,47.1 178,47.1 178,40.9 176.2,40.9 176.2,50.2 178,50.2 181.8,44 181.8,44 
		181.8,50.2 183.7,50.2 183.7,40.9 	"/>
	<path fill="#FFFFFF" d="M179.9,40c0.7,0,1.2-0.2,1.6-0.5c0.4-0.3,0.6-0.8,0.6-1.3l0,0h-1.4c0,0.2-0.1,0.4-0.2,0.6s-0.3,0.2-0.6,0.2
		c-0.3,0-0.5-0.1-0.6-0.2c-0.1-0.1-0.2-0.3-0.2-0.6h-1.4l0,0c0,0.5,0.2,1,0.6,1.3C178.7,39.8,179.3,40,179.9,40z"/>
	<polygon fill="#FFFFFF" points="82.4,63.7 84.3,63.7 84.3,55.9 88.1,55.9 88.1,63.7 89.9,63.7 89.9,54.4 82.4,54.4 	"/>
	<path fill="#FFFFFF" d="M95.3,54.4h-3.7v9.2h1.9v-3.3h1.8c1.1,0,1.9-0.3,2.5-0.8c0.6-0.5,0.9-1.2,0.9-2.1c0-0.9-0.3-1.6-0.9-2.1
		C97.2,54.7,96.4,54.4,95.3,54.4z M96.5,58.5c-0.3,0.3-0.7,0.4-1.2,0.4h-1.8v-3h1.8c0.5,0,0.9,0.1,1.2,0.4c0.3,0.3,0.4,0.7,0.4,1.1
		C96.9,57.8,96.8,58.2,96.5,58.5z"/>
	<path fill="#FFFFFF" d="M103.7,54.3c-1.1,0-2.1,0.4-2.8,1.1c-0.7,0.7-1.1,1.7-1.1,2.8v1.7c0,1.1,0.4,2.1,1.1,2.8
		c0.7,0.7,1.6,1.1,2.8,1.1c1.1,0,2.1-0.4,2.8-1.1c0.7-0.7,1.1-1.7,1.1-2.8v-1.7c0-1.1-0.4-2.1-1.1-2.8
		C105.7,54.7,104.8,54.3,103.7,54.3z M105.7,59.9c0,0.7-0.2,1.3-0.5,1.8c-0.4,0.5-0.8,0.7-1.5,0.7c-0.6,0-1.1-0.2-1.5-0.7
		c-0.4-0.5-0.5-1.1-0.5-1.8v-1.7c0-0.7,0.2-1.3,0.5-1.8c0.3-0.5,0.8-0.7,1.5-0.7c0.6,0,1.1,0.2,1.5,0.7c0.4,0.5,0.5,1.1,0.5,1.8
		V59.9z"/>
	<path fill="#FFFFFF" d="M112.4,54.3c-1.1,0-2,0.4-2.6,1.1c-0.7,0.7-1,1.6-1,2.8V60c0,1.1,0.3,2,1,2.8c0.7,0.7,1.6,1.1,2.7,1.1
		c1.1,0,2-0.3,2.6-0.9c0.6-0.6,0.9-1.4,0.9-2.4l0,0h-1.8c0,0.6-0.1,1.1-0.4,1.4c-0.3,0.3-0.7,0.5-1.3,0.5c-0.6,0-1-0.2-1.4-0.7
		c-0.3-0.5-0.5-1-0.5-1.7v-1.8c0-0.7,0.2-1.3,0.5-1.7c0.3-0.5,0.8-0.7,1.3-0.7c0.6,0,1.1,0.2,1.4,0.5c0.3,0.3,0.4,0.8,0.4,1.4h1.8
		l0,0c0-1-0.3-1.8-0.9-2.4C114.4,54.6,113.5,54.3,112.4,54.3z"/>
	<polygon fill="#FFFFFF" points="116.4,55.9 119,55.9 119,63.7 120.8,63.7 120.8,55.9 123.4,55.9 123.4,54.4 116.4,54.4 	"/>
	<rect x="124.6" y="54.4" fill="#FFFFFF" width="1.9" height="9.2"/>
	<path fill="#FFFFFF" d="M132,54.4h-3.7v9.2h1.9v-3.3h1.8c1.1,0,1.9-0.3,2.5-0.8c0.6-0.5,0.9-1.2,0.9-2.1c0-0.9-0.3-1.6-0.9-2.1
		C133.9,54.7,133,54.4,132,54.4z M133.1,58.5c-0.3,0.3-0.7,0.4-1.2,0.4h-1.8v-3h1.8c0.5,0,0.9,0.1,1.2,0.4c0.3,0.3,0.4,0.7,0.4,1.1
		C133.5,57.8,133.4,58.2,133.1,58.5z"/>
</g>
</svg>
