<?xml version="1.0" encoding="utf-8"?>
<!-- Generator: Adobe Illustrator 17.1.0, SVG Export Plug-In . SVG Version: 6.00 Build 0)  -->
<!DOCTYPE svg PUBLIC "-//W3C//DTD SVG 1.1//EN" "http://www.w3.org/Graphics/SVG/1.1/DTD/svg11.dtd">
<svg version="1.1" id="Layer_1" xmlns="http://www.w3.org/2000/svg" xmlns:xlink="http://www.w3.org/1999/xlink" x="0px" y="0px"
	 viewBox="0 0 332.7 32" enable-background="new 0 0 332.7 32" xml:space="preserve">
<g>
	<g>
		<g>
			<path fill="#3B4256" d="M67.3,4.8v8.4h-1.2V5.8h-4v7.4h-1.2V4.8H67.3z"/>
			<path fill="#3B4256" d="M74.9,10.1c0,0.5-0.1,0.9-0.2,1.3c-0.1,0.4-0.3,0.8-0.6,1s-0.5,0.5-0.9,0.7c-0.4,0.2-0.8,0.2-1.2,0.2
				c-0.4,0-0.7,0-1-0.1s-0.5-0.2-0.6-0.3v2.5h-1.1V7.1c0.3-0.1,0.6-0.1,1-0.2c0.4-0.1,0.9-0.1,1.4-0.1c0.5,0,0.9,0.1,1.3,0.2
				s0.7,0.4,1,0.7c0.3,0.3,0.5,0.6,0.6,1C74.9,9.1,74.9,9.6,74.9,10.1z M73.8,10.1c0-0.7-0.2-1.3-0.5-1.7c-0.4-0.4-0.9-0.6-1.5-0.6
				c-0.3,0-0.6,0-0.8,0c-0.2,0-0.3,0.1-0.5,0.1v4c0.1,0.1,0.3,0.2,0.6,0.3c0.3,0.1,0.5,0.2,0.9,0.2c0.3,0,0.6-0.1,0.8-0.2
				c0.2-0.1,0.4-0.3,0.6-0.5s0.3-0.4,0.3-0.7C73.7,10.7,73.8,10.4,73.8,10.1z"/>
			<path fill="#3B4256" d="M82.2,10.1c0,0.5-0.1,1-0.2,1.4c-0.1,0.4-0.4,0.8-0.6,1c-0.3,0.3-0.6,0.5-0.9,0.7
				c-0.4,0.2-0.8,0.2-1.2,0.2c-0.4,0-0.8-0.1-1.2-0.2c-0.4-0.2-0.7-0.4-0.9-0.7s-0.5-0.6-0.6-1c-0.1-0.4-0.2-0.9-0.2-1.4
				c0-0.5,0.1-0.9,0.2-1.4s0.4-0.8,0.6-1.1S77.6,7.2,78,7c0.4-0.2,0.8-0.2,1.2-0.2c0.4,0,0.8,0.1,1.2,0.2c0.4,0.2,0.7,0.4,0.9,0.7
				c0.3,0.3,0.5,0.6,0.6,1.1S82.2,9.6,82.2,10.1z M81,10.1c0-0.7-0.2-1.3-0.5-1.7c-0.3-0.4-0.8-0.6-1.3-0.6c-0.6,0-1,0.2-1.3,0.6
				c-0.3,0.4-0.5,1-0.5,1.7c0,0.7,0.2,1.3,0.5,1.7s0.8,0.6,1.3,0.6c0.6,0,1-0.2,1.3-0.6C80.8,11.4,81,10.8,81,10.1z"/>
			<path fill="#3B4256" d="M83.5,10.1c0-0.6,0.1-1,0.2-1.5c0.2-0.4,0.4-0.8,0.6-1c0.3-0.3,0.6-0.5,0.9-0.6s0.7-0.2,1.1-0.2
				c0.9,0,1.5,0.3,2,0.8C88.7,8.1,89,8.9,89,10c0,0,0,0.1,0,0.2c0,0.1,0,0.1,0,0.2h-4.3c0,0.7,0.2,1.2,0.6,1.5
				c0.3,0.3,0.9,0.5,1.6,0.5c0.4,0,0.7,0,1-0.1c0.3-0.1,0.5-0.1,0.6-0.2l0.2,0.9c-0.1,0.1-0.4,0.1-0.7,0.2c-0.3,0.1-0.7,0.1-1.2,0.1
				c-0.6,0-1-0.1-1.4-0.2c-0.4-0.2-0.7-0.4-1-0.7c-0.3-0.3-0.5-0.6-0.6-1S83.5,10.6,83.5,10.1z M87.8,9.5c0-0.5-0.1-0.9-0.4-1.3
				s-0.6-0.5-1.1-0.5c-0.3,0-0.5,0.1-0.7,0.2c-0.2,0.1-0.4,0.2-0.5,0.4c-0.1,0.2-0.2,0.3-0.3,0.6c-0.1,0.2-0.1,0.4-0.2,0.6H87.8z"/>
			<path fill="#3B4256" d="M93,9.8c0.3,0.2,0.5,0.4,0.8,0.7s0.6,0.6,0.9,0.9c0.3,0.3,0.5,0.6,0.8,1s0.4,0.6,0.6,0.9h-1.3
				c-0.2-0.3-0.4-0.6-0.6-0.8c-0.2-0.3-0.5-0.6-0.7-0.8c-0.3-0.3-0.5-0.5-0.8-0.7c-0.3-0.2-0.5-0.4-0.8-0.6v3h-1.1V6.9h1.1v2.7
				C92,9.4,92.2,9.2,92.5,9s0.5-0.5,0.8-0.8c0.3-0.3,0.5-0.5,0.7-0.7c0.2-0.2,0.4-0.4,0.5-0.6h1.3c-0.2,0.2-0.4,0.4-0.6,0.7
				c-0.2,0.2-0.5,0.5-0.7,0.8c-0.3,0.3-0.5,0.5-0.8,0.8C93.4,9.4,93.2,9.6,93,9.8z"/>
			<path fill="#3B4256" d="M101.7,6.9v0.9h-2.1v5.4h-1.1V7.9h-2.1V6.9H101.7z"/>
			<path fill="#3B4256" d="M110,15.5h-1.1v-2.2c-0.5,0-0.9-0.1-1.3-0.2c-0.4-0.1-0.8-0.4-1.1-0.6s-0.6-0.6-0.8-1
				c-0.2-0.4-0.3-0.8-0.3-1.3c0-0.5,0.1-0.9,0.3-1.3c0.2-0.4,0.4-0.7,0.8-1s0.7-0.5,1.1-0.6c0.4-0.1,0.9-0.2,1.3-0.2V4l1.1-0.2v3.1
				c0.5,0,0.9,0.1,1.3,0.2c0.4,0.1,0.8,0.4,1.1,0.6c0.3,0.3,0.6,0.6,0.8,1c0.2,0.4,0.3,0.8,0.3,1.3c0,0.5-0.1,0.9-0.3,1.3
				c-0.2,0.4-0.4,0.7-0.8,1c-0.3,0.3-0.7,0.5-1.1,0.6c-0.4,0.1-0.9,0.2-1.3,0.2V15.5z M106.6,10.1c0,0.4,0.1,0.7,0.2,0.9
				s0.3,0.5,0.5,0.7c0.2,0.2,0.5,0.3,0.7,0.4c0.3,0.1,0.6,0.2,0.9,0.2V7.8c-0.3,0-0.6,0.1-0.9,0.2c-0.3,0.1-0.5,0.3-0.7,0.4
				c-0.2,0.2-0.4,0.4-0.5,0.7S106.6,9.7,106.6,10.1z M110,12.3c0.3,0,0.6-0.1,0.9-0.2c0.3-0.1,0.5-0.2,0.7-0.4
				c0.2-0.2,0.4-0.4,0.5-0.7c0.1-0.3,0.2-0.6,0.2-0.9c0-0.3-0.1-0.7-0.2-0.9c-0.1-0.3-0.3-0.5-0.5-0.7c-0.2-0.2-0.5-0.3-0.7-0.4
				c-0.3-0.1-0.6-0.2-0.9-0.2V12.3z"/>
			<path fill="#3B4256" d="M115.7,5.8c-0.2,0-0.4-0.1-0.5-0.2S115,5.3,115,5c0-0.2,0.1-0.4,0.2-0.5s0.3-0.2,0.5-0.2
				c0.2,0,0.4,0.1,0.5,0.2c0.1,0.1,0.2,0.3,0.2,0.5c0,0.2-0.1,0.4-0.2,0.5C116.1,5.7,115.9,5.8,115.7,5.8z M116.3,13.2h-1.1V6.9h1.1
				V13.2z"/>
			<path fill="#3B4256" d="M123.5,13.2h-1.1v-2.8h-2.9v2.8h-1.1V6.9h1.1v2.6h2.9V6.9h1.1V13.2z"/>
			<path fill="#3B4256" d="M127.5,6.8c0.5,0,0.8,0.1,1.1,0.2c0.3,0.1,0.6,0.3,0.8,0.5c0.2,0.2,0.3,0.5,0.4,0.8
				c0.1,0.3,0.1,0.6,0.1,1v3.9c-0.1,0-0.2,0-0.4,0.1c-0.2,0-0.4,0.1-0.6,0.1c-0.2,0-0.5,0-0.7,0.1c-0.3,0-0.5,0-0.8,0
				c-0.4,0-0.7,0-1-0.1c-0.3-0.1-0.6-0.2-0.8-0.3c-0.2-0.2-0.4-0.4-0.5-0.6c-0.1-0.3-0.2-0.6-0.2-0.9c0-0.3,0.1-0.6,0.2-0.9
				c0.1-0.3,0.3-0.5,0.6-0.6s0.5-0.3,0.9-0.3c0.3-0.1,0.7-0.1,1-0.1c0.1,0,0.2,0,0.4,0c0.1,0,0.2,0,0.3,0c0.1,0,0.2,0,0.3,0.1
				c0.1,0,0.1,0,0.2,0V9.2c0-0.2,0-0.4-0.1-0.6s-0.1-0.3-0.2-0.5c-0.1-0.1-0.2-0.3-0.4-0.3c-0.2-0.1-0.4-0.1-0.7-0.1
				c-0.4,0-0.7,0-1,0.1c-0.3,0.1-0.5,0.1-0.6,0.2L125.7,7c0.1-0.1,0.4-0.1,0.7-0.2S127.1,6.8,127.5,6.8z M127.6,12.4
				c0.3,0,0.5,0,0.7,0c0.2,0,0.4,0,0.5-0.1v-1.9c-0.1,0-0.2-0.1-0.4-0.1s-0.4,0-0.7,0c-0.2,0-0.4,0-0.5,0c-0.2,0-0.4,0.1-0.5,0.2
				c-0.2,0.1-0.3,0.2-0.4,0.3c-0.1,0.1-0.2,0.3-0.2,0.5c0,0.4,0.1,0.7,0.4,0.8C126.8,12.3,127.2,12.4,127.6,12.4z"/>
			<path fill="#3B4256" d="M137,13.2h-1.1v-2.8H133v2.8h-1.1V6.9h1.1v2.6h2.9V6.9h1.1V13.2z"/>
			<path fill="#3B4256" d="M141.8,13.4c-0.5,0-1-0.1-1.3-0.2s-0.7-0.4-1-0.7s-0.5-0.6-0.6-1c-0.1-0.4-0.2-0.8-0.2-1.3
				s0.1-0.9,0.2-1.3c0.1-0.4,0.3-0.8,0.6-1.1c0.3-0.3,0.6-0.5,1-0.7c0.4-0.2,0.8-0.2,1.3-0.2c0.3,0,0.6,0,0.9,0.1
				c0.3,0,0.6,0.1,0.8,0.2l-0.3,1c-0.2-0.1-0.4-0.1-0.6-0.2c-0.2,0-0.5-0.1-0.7-0.1c-0.6,0-1.1,0.2-1.5,0.6c-0.3,0.4-0.5,1-0.5,1.7
				c0,0.3,0,0.7,0.1,0.9c0.1,0.3,0.2,0.5,0.4,0.7c0.2,0.2,0.4,0.4,0.6,0.5c0.3,0.1,0.6,0.2,0.9,0.2c0.3,0,0.6,0,0.8-0.1
				s0.4-0.1,0.6-0.2l0.2,0.9c-0.1,0-0.2,0.1-0.3,0.1c-0.1,0-0.3,0.1-0.4,0.1s-0.3,0.1-0.5,0.1C142.1,13.4,142,13.4,141.8,13.4z"/>
			<path fill="#3B4256" d="M144.2,14.4c0.1,0,0.2,0.1,0.3,0.1c0.1,0,0.3,0.1,0.4,0.1c0.4,0,0.8-0.1,1-0.3c0.3-0.2,0.5-0.5,0.7-1
				c-0.5-1-1-2-1.4-3.1c-0.4-1.1-0.8-2.2-1.1-3.3h1.2c0.1,0.4,0.2,0.8,0.3,1.2s0.3,0.9,0.4,1.3c0.2,0.4,0.3,0.9,0.5,1.3
				c0.2,0.4,0.4,0.9,0.6,1.3c0.3-0.9,0.6-1.7,0.8-2.5c0.2-0.8,0.4-1.7,0.6-2.6h1.2c-0.3,1.2-0.6,2.3-1,3.4c-0.4,1.1-0.7,2.1-1.2,3.1
				c-0.2,0.4-0.3,0.7-0.5,0.9c-0.2,0.3-0.4,0.5-0.6,0.6c-0.2,0.2-0.4,0.3-0.7,0.4c-0.3,0.1-0.6,0.1-0.9,0.1c-0.1,0-0.2,0-0.3,0
				s-0.2,0-0.3,0c-0.1,0-0.2,0-0.3-0.1s-0.1,0-0.2-0.1L144.2,14.4z"/>
			<path fill="#3B4256" d="M150.6,10.1c0-0.5,0.1-0.9,0.2-1.3c0.1-0.4,0.3-0.7,0.6-1c0.3-0.3,0.6-0.5,1-0.7s0.8-0.3,1.3-0.3
				c0.2,0,0.3,0,0.5,0c0.2,0,0.3,0,0.5,0.1c0.2,0,0.3,0.1,0.4,0.1c0.1,0,0.2,0.1,0.3,0.1L155.2,8c-0.1-0.1-0.3-0.1-0.6-0.2
				c-0.2-0.1-0.5-0.1-0.9-0.1c-0.6,0-1.1,0.2-1.4,0.5c-0.3,0.3-0.5,0.8-0.6,1.3h2.6v0.9h-2.6c0,0.6,0.2,1.1,0.6,1.4s0.8,0.5,1.5,0.5
				c0.2,0,0.3,0,0.5,0c0.2,0,0.3,0,0.5-0.1c0.1,0,0.3-0.1,0.4-0.1c0.1,0,0.2-0.1,0.3-0.1l0.2,1c-0.1,0.1-0.4,0.1-0.7,0.2
				c-0.3,0.1-0.7,0.1-1.2,0.1c-0.5,0-1-0.1-1.4-0.2c-0.4-0.2-0.7-0.4-1-0.7c-0.3-0.3-0.5-0.6-0.6-1.1S150.6,10.5,150.6,10.1z"/>
			<path fill="#3B4256" d="M161.6,6.9v0.9h-2.1v5.4h-1.1V7.9h-2.1V6.9H161.6z"/>
			<path fill="#3B4256" d="M162.8,13.1V6.9h1.1v2.4c0.1,0,0.2,0,0.3,0c0.1,0,0.2,0,0.4,0s0.3,0,0.4,0c0.1,0,0.3,0,0.4,0
				c0.3,0,0.7,0,1,0.1c0.3,0.1,0.6,0.2,0.8,0.4c0.2,0.2,0.4,0.4,0.6,0.6c0.1,0.3,0.2,0.6,0.2,0.9c0,0.4-0.1,0.7-0.2,1
				c-0.1,0.3-0.3,0.5-0.6,0.7c-0.2,0.2-0.5,0.3-0.9,0.4c-0.3,0.1-0.7,0.1-1.1,0.1c-0.4,0-0.8,0-1.2-0.1
				C163.5,13.3,163.2,13.2,162.8,13.1z M165.2,12.5c0.5,0,0.9-0.1,1.1-0.3c0.3-0.2,0.4-0.5,0.4-0.9c0-0.2,0-0.4-0.1-0.5
				c-0.1-0.1-0.2-0.3-0.3-0.4c-0.1-0.1-0.3-0.2-0.5-0.2c-0.2,0-0.4-0.1-0.6-0.1c-0.2,0-0.4,0-0.7,0s-0.4,0-0.6,0.1v2.2
				c0,0,0.1,0,0.2,0c0.1,0,0.2,0,0.3,0c0.1,0,0.2,0,0.4,0C164.9,12.4,165.1,12.5,165.2,12.5z"/>
			<path fill="#3B4256" d="M172,13.4c-0.5,0-1-0.1-1.3-0.2s-0.7-0.4-1-0.7s-0.5-0.6-0.6-1c-0.1-0.4-0.2-0.8-0.2-1.3s0.1-0.9,0.2-1.3
				c0.1-0.4,0.3-0.8,0.6-1.1c0.3-0.3,0.6-0.5,1-0.7c0.4-0.2,0.8-0.2,1.3-0.2c0.3,0,0.6,0,0.9,0.1c0.3,0,0.6,0.1,0.8,0.2l-0.3,1
				c-0.2-0.1-0.4-0.1-0.6-0.2c-0.2,0-0.5-0.1-0.7-0.1c-0.6,0-1.1,0.2-1.5,0.6c-0.3,0.4-0.5,1-0.5,1.7c0,0.3,0,0.7,0.1,0.9
				c0.1,0.3,0.2,0.5,0.4,0.7c0.2,0.2,0.4,0.4,0.6,0.5c0.3,0.1,0.6,0.2,0.9,0.2c0.3,0,0.6,0,0.8-0.1s0.4-0.1,0.6-0.2l0.2,0.9
				c-0.1,0-0.2,0.1-0.3,0.1c-0.1,0-0.3,0.1-0.4,0.1s-0.3,0.1-0.5,0.1C172.3,13.4,172.2,13.4,172,13.4z"/>
			<path fill="#3B4256" d="M177.6,10.8c-0.1,0-0.2,0-0.4,0c-0.1,0-0.2,0-0.3,0c-0.3,0.4-0.5,0.8-0.7,1.2c-0.2,0.4-0.5,0.9-0.6,1.2
				h-1.1c0.1-0.2,0.2-0.5,0.3-0.7c0.1-0.2,0.3-0.5,0.4-0.7s0.3-0.5,0.4-0.7c0.1-0.2,0.3-0.4,0.4-0.6c-0.2-0.1-0.4-0.2-0.6-0.3
				c-0.1-0.1-0.3-0.2-0.4-0.4c-0.1-0.1-0.2-0.3-0.2-0.5c0-0.2-0.1-0.3-0.1-0.5c0-0.4,0.1-0.7,0.2-0.9c0.1-0.3,0.3-0.5,0.6-0.7
				c0.2-0.2,0.5-0.3,0.8-0.4c0.3-0.1,0.7-0.1,1.1-0.1c0.5,0,1,0,1.4,0.1c0.4,0,0.7,0.1,0.9,0.2v6.2h-1.1v-2.5H177.6z M178.6,7.8
				c-0.1,0-0.2,0-0.4,0c-0.2,0-0.4,0-0.7,0c-0.5,0-0.8,0.1-1.1,0.3c-0.3,0.2-0.4,0.5-0.4,0.9c0,0.4,0.1,0.7,0.4,0.8s0.7,0.2,1.1,0.2
				h1.1V7.8z"/>
			<path fill="#3B4256" d="M188.2,13.4c-0.6,0-1.1-0.1-1.6-0.3s-0.9-0.5-1.2-0.9c-0.3-0.4-0.6-0.8-0.8-1.4c-0.2-0.5-0.3-1.2-0.3-1.9
				c0-0.7,0.1-1.3,0.3-1.9c0.2-0.5,0.5-1,0.8-1.4s0.8-0.7,1.3-0.9c0.5-0.2,1-0.3,1.6-0.3c0.3,0,0.7,0,0.9,0.1c0.3,0,0.5,0.1,0.8,0.2
				c0.2,0.1,0.4,0.1,0.5,0.2c0.1,0.1,0.2,0.1,0.3,0.2l-0.3,0.9c-0.2-0.1-0.4-0.2-0.8-0.3c-0.3-0.1-0.8-0.2-1.3-0.2
				c-0.4,0-0.8,0.1-1.1,0.2c-0.3,0.1-0.6,0.3-0.9,0.6c-0.2,0.2-0.4,0.5-0.6,0.9c-0.1,0.3-0.2,0.7-0.3,1.1h3.7v1h-3.7
				c0,0.4,0.1,0.8,0.2,1.2c0.1,0.4,0.3,0.7,0.6,0.9c0.2,0.3,0.5,0.5,0.9,0.6c0.3,0.1,0.7,0.2,1.2,0.2c0.5,0,1-0.1,1.3-0.2
				c0.4-0.1,0.6-0.2,0.8-0.3l0.3,1c-0.1,0-0.2,0.1-0.3,0.2c-0.1,0.1-0.3,0.1-0.6,0.2s-0.5,0.1-0.8,0.1S188.6,13.4,188.2,13.4z"/>
			<path fill="#3B4256" d="M194.4,13.3c-0.5,0-0.9,0-1.3-0.1s-0.7-0.1-1-0.2V7c0.2-0.1,0.6-0.1,1-0.2c0.4,0,0.8-0.1,1.3-0.1
				c0.3,0,0.7,0,1,0.1c0.3,0.1,0.6,0.2,0.8,0.3s0.4,0.3,0.6,0.5c0.1,0.2,0.2,0.5,0.2,0.9c0,0.3-0.1,0.6-0.2,0.8s-0.4,0.4-0.6,0.5
				c0.3,0.1,0.6,0.3,0.8,0.5s0.3,0.6,0.3,1c0,0.4-0.1,0.7-0.2,0.9c-0.1,0.3-0.4,0.5-0.6,0.6c-0.3,0.2-0.6,0.3-0.9,0.3
				C195.2,13.3,194.8,13.3,194.4,13.3z M194.4,9.5c0.2,0,0.4,0,0.6,0c0.2,0,0.3-0.1,0.5-0.2c0.1-0.1,0.2-0.2,0.3-0.3
				s0.1-0.3,0.1-0.5c0-0.2,0-0.3-0.1-0.5s-0.2-0.2-0.4-0.3c-0.2-0.1-0.3-0.1-0.5-0.1c-0.2,0-0.4,0-0.6,0c-0.2,0-0.4,0-0.6,0
				c-0.2,0-0.4,0-0.5,0v1.8H194.4z M193.2,12.4c0,0,0.1,0,0.2,0c0.1,0,0.2,0,0.3,0c0.1,0,0.2,0,0.4,0c0.1,0,0.2,0,0.4,0
				c0.2,0,0.5,0,0.7,0s0.4-0.1,0.6-0.2c0.2-0.1,0.3-0.2,0.4-0.3c0.1-0.1,0.1-0.3,0.1-0.5c0-0.2,0-0.4-0.1-0.5
				c-0.1-0.1-0.2-0.2-0.3-0.3c-0.1-0.1-0.3-0.1-0.5-0.2c-0.2,0-0.4,0-0.6,0h-1.3V12.4z"/>
			<path fill="#3B4256" d="M204.4,10.1c0,0.5-0.1,0.9-0.2,1.3c-0.1,0.4-0.3,0.8-0.6,1s-0.5,0.5-0.9,0.7c-0.4,0.2-0.8,0.2-1.2,0.2
				c-0.4,0-0.7,0-1-0.1s-0.5-0.2-0.6-0.3v2.5h-1.1V7.1c0.3-0.1,0.6-0.1,1-0.2c0.4-0.1,0.9-0.1,1.4-0.1c0.5,0,0.9,0.1,1.3,0.2
				s0.7,0.4,1,0.7c0.3,0.3,0.5,0.6,0.6,1C204.3,9.1,204.4,9.6,204.4,10.1z M203.2,10.1c0-0.7-0.2-1.3-0.5-1.7
				c-0.4-0.4-0.9-0.6-1.5-0.6c-0.3,0-0.6,0-0.8,0c-0.2,0-0.3,0.1-0.5,0.1v4c0.1,0.1,0.3,0.2,0.6,0.3c0.3,0.1,0.5,0.2,0.9,0.2
				c0.3,0,0.6-0.1,0.8-0.2c0.2-0.1,0.4-0.3,0.6-0.5s0.3-0.4,0.3-0.7C203.2,10.7,203.2,10.4,203.2,10.1z"/>
			<path fill="#3B4256" d="M211.6,10.1c0,0.5-0.1,1-0.2,1.4c-0.1,0.4-0.4,0.8-0.6,1c-0.3,0.3-0.6,0.5-0.9,0.7
				c-0.4,0.2-0.8,0.2-1.2,0.2c-0.4,0-0.8-0.1-1.2-0.2c-0.4-0.2-0.7-0.4-0.9-0.7s-0.5-0.6-0.6-1c-0.1-0.4-0.2-0.9-0.2-1.4
				c0-0.5,0.1-0.9,0.2-1.4s0.4-0.8,0.6-1.1s0.6-0.5,0.9-0.7c0.4-0.2,0.8-0.2,1.2-0.2c0.4,0,0.8,0.1,1.2,0.2c0.4,0.2,0.7,0.4,0.9,0.7
				c0.3,0.3,0.5,0.6,0.6,1.1S211.6,9.6,211.6,10.1z M210.5,10.1c0-0.7-0.2-1.3-0.5-1.7c-0.3-0.4-0.8-0.6-1.3-0.6
				c-0.6,0-1,0.2-1.3,0.6c-0.3,0.4-0.5,1-0.5,1.7c0,0.7,0.2,1.3,0.5,1.7s0.8,0.6,1.3,0.6c0.6,0,1-0.2,1.3-0.6
				C210.3,11.4,210.5,10.8,210.5,10.1z"/>
			<path fill="#3B4256" d="M218.4,13.2h-1.1V7.9h-2.8v5.4h-1.1V6.9h5.1V13.2z"/>
			<path fill="#3B4256" d="M220,10.1c0-0.6,0.1-1,0.2-1.5c0.2-0.4,0.4-0.8,0.6-1c0.3-0.3,0.6-0.5,0.9-0.6s0.7-0.2,1.1-0.2
				c0.9,0,1.5,0.3,2,0.8c0.5,0.5,0.7,1.3,0.7,2.4c0,0,0,0.1,0,0.2c0,0.1,0,0.1,0,0.2h-4.3c0,0.7,0.2,1.2,0.6,1.5
				c0.3,0.3,0.9,0.5,1.6,0.5c0.4,0,0.7,0,1-0.1c0.3-0.1,0.5-0.1,0.6-0.2l0.2,0.9c-0.1,0.1-0.4,0.1-0.7,0.2c-0.3,0.1-0.7,0.1-1.2,0.1
				c-0.6,0-1-0.1-1.4-0.2c-0.4-0.2-0.7-0.4-1-0.7c-0.3-0.3-0.5-0.6-0.6-1S220,10.6,220,10.1z M224.4,9.5c0-0.5-0.1-0.9-0.4-1.3
				s-0.6-0.5-1.1-0.5c-0.3,0-0.5,0.1-0.7,0.2c-0.2,0.1-0.4,0.2-0.5,0.4c-0.1,0.2-0.2,0.3-0.3,0.6c-0.1,0.2-0.1,0.4-0.2,0.6H224.4z"
				/>
			<path fill="#3B4256" d="M232.5,6.9v6.3h-1.1V8.4c-0.2,0.3-0.5,0.7-0.8,1.1s-0.6,0.8-0.9,1.3s-0.6,0.9-0.8,1.3
				c-0.3,0.4-0.5,0.8-0.7,1.1h-1V6.9h1.1v4.5c0.2-0.3,0.4-0.7,0.7-1.1c0.3-0.4,0.5-0.8,0.8-1.2c0.3-0.4,0.6-0.8,0.9-1.2
				s0.6-0.7,0.8-1H232.5z M229.9,5.9c-0.5,0-0.9-0.1-1.2-0.4c-0.3-0.3-0.5-0.6-0.6-1.1l0.9-0.2c0.1,0.3,0.2,0.5,0.3,0.6
				c0.2,0.2,0.4,0.2,0.6,0.2c0.3,0,0.5-0.1,0.6-0.2c0.2-0.2,0.3-0.4,0.3-0.6l0.9,0.2c-0.1,0.5-0.3,0.8-0.6,1.1
				C230.8,5.8,230.4,5.9,229.9,5.9z"/>
			<path fill="#3B4256" d="M237.3,13.4c-0.5,0-1-0.1-1.3-0.2s-0.7-0.4-1-0.7s-0.5-0.6-0.6-1c-0.1-0.4-0.2-0.8-0.2-1.3
				s0.1-0.9,0.2-1.3c0.1-0.4,0.3-0.8,0.6-1.1c0.3-0.3,0.6-0.5,1-0.7c0.4-0.2,0.8-0.2,1.3-0.2c0.3,0,0.6,0,0.9,0.1
				c0.3,0,0.6,0.1,0.8,0.2l-0.3,1c-0.2-0.1-0.4-0.1-0.6-0.2c-0.2,0-0.5-0.1-0.7-0.1c-0.6,0-1.1,0.2-1.5,0.6c-0.3,0.4-0.5,1-0.5,1.7
				c0,0.3,0,0.7,0.1,0.9c0.1,0.3,0.2,0.5,0.4,0.7c0.2,0.2,0.4,0.4,0.6,0.5c0.3,0.1,0.6,0.2,0.9,0.2c0.3,0,0.6,0,0.8-0.1
				s0.4-0.1,0.6-0.2l0.2,0.9c-0.1,0-0.2,0.1-0.3,0.1c-0.1,0-0.3,0.1-0.4,0.1s-0.3,0.1-0.5,0.1C237.6,13.4,237.4,13.4,237.3,13.4z"/>
			<path fill="#3B4256" d="M240.3,13.1V6.9h1.1v2.4c0.1,0,0.2,0,0.3,0c0.1,0,0.2,0,0.4,0s0.3,0,0.4,0c0.1,0,0.3,0,0.4,0
				c0.3,0,0.7,0,1,0.1c0.3,0.1,0.6,0.2,0.8,0.4c0.2,0.2,0.4,0.4,0.6,0.6c0.1,0.3,0.2,0.6,0.2,0.9c0,0.4-0.1,0.7-0.2,1
				c-0.1,0.3-0.3,0.5-0.6,0.7c-0.2,0.2-0.5,0.3-0.9,0.4c-0.3,0.1-0.7,0.1-1.1,0.1c-0.4,0-0.8,0-1.2-0.1
				C241,13.3,240.6,13.2,240.3,13.1z M242.6,12.5c0.5,0,0.9-0.1,1.1-0.3c0.3-0.2,0.4-0.5,0.4-0.9c0-0.2,0-0.4-0.1-0.5
				c-0.1-0.1-0.2-0.3-0.3-0.4c-0.1-0.1-0.3-0.2-0.5-0.2c-0.2,0-0.4-0.1-0.6-0.1c-0.2,0-0.4,0-0.7,0s-0.4,0-0.6,0.1v2.2
				c0,0,0.1,0,0.2,0c0.1,0,0.2,0,0.3,0c0.1,0,0.2,0,0.4,0C242.4,12.4,242.5,12.5,242.6,12.5z"/>
			<path fill="#3B4256" d="M249,9.8c0.3,0.2,0.5,0.4,0.8,0.7s0.6,0.6,0.9,0.9c0.3,0.3,0.5,0.6,0.8,1s0.4,0.6,0.6,0.9h-1.3
				c-0.2-0.3-0.4-0.6-0.6-0.8c-0.2-0.3-0.5-0.6-0.7-0.8c-0.3-0.3-0.5-0.5-0.8-0.7c-0.3-0.2-0.5-0.4-0.8-0.6v3h-1.1V6.9h1.1v2.7
				c0.2-0.2,0.4-0.4,0.7-0.6s0.5-0.5,0.8-0.8c0.3-0.3,0.5-0.5,0.7-0.7c0.2-0.2,0.4-0.4,0.5-0.6h1.3c-0.2,0.2-0.4,0.4-0.6,0.7
				c-0.2,0.2-0.5,0.5-0.7,0.8c-0.3,0.3-0.5,0.5-0.8,0.8C249.5,9.4,249.2,9.6,249,9.8z"/>
			<path fill="#3B4256" d="M258.6,6.9v6.3h-1.1V8.4c-0.2,0.3-0.5,0.7-0.8,1.1s-0.6,0.8-0.9,1.3s-0.6,0.9-0.8,1.3
				c-0.3,0.4-0.5,0.8-0.7,1.1h-1V6.9h1.1v4.5c0.2-0.3,0.4-0.7,0.7-1.1c0.3-0.4,0.5-0.8,0.8-1.2c0.3-0.4,0.6-0.8,0.9-1.2
				s0.6-0.7,0.8-1H258.6z"/>
			<path fill="#3B4256" d="M261.8,8.6c-0.1,0.8-0.1,1.6-0.2,2.4c0,0.8-0.1,1.5-0.1,2.3h-1.1c0-0.5,0-1,0.1-1.5
				c0-0.5,0.1-1.1,0.1-1.6c0-0.5,0.1-1.1,0.1-1.6s0.1-1,0.2-1.5h1c0.3,0.4,0.6,1,0.9,1.7c0.3,0.7,0.7,1.6,1.2,2.5
				c0.5-1,0.9-1.8,1.2-2.5s0.7-1.3,0.9-1.7h1c0.1,0.5,0.1,1,0.2,1.5s0.1,1.1,0.1,1.6s0.1,1.1,0.1,1.6c0,0.5,0.1,1.1,0.1,1.5h-1.1
				c0-0.7-0.1-1.5-0.1-2.3c0-0.8-0.1-1.6-0.2-2.4c-0.1,0.3-0.3,0.6-0.4,0.9c-0.2,0.4-0.3,0.7-0.5,1.1c-0.2,0.4-0.3,0.7-0.5,1
				s-0.3,0.6-0.3,0.8h-0.9c-0.1-0.2-0.2-0.5-0.4-0.8c-0.1-0.3-0.3-0.7-0.5-1.1c-0.2-0.4-0.3-0.7-0.5-1.1
				C262.1,9.1,262,8.8,261.8,8.6z"/>
			<path fill="#3B4256" d="M276.1,13.4c-0.6,0-1.1-0.1-1.6-0.3c-0.5-0.2-0.9-0.5-1.3-0.9s-0.6-0.8-0.8-1.4c-0.2-0.5-0.3-1.2-0.3-1.9
				s0.1-1.3,0.3-1.9c0.2-0.5,0.5-1,0.9-1.4c0.4-0.4,0.8-0.7,1.3-0.9s1-0.3,1.6-0.3c0.3,0,0.7,0,0.9,0.1c0.3,0,0.5,0.1,0.7,0.2
				s0.4,0.1,0.5,0.2c0.1,0.1,0.2,0.1,0.3,0.1l-0.3,1c-0.1,0-0.2-0.1-0.3-0.2s-0.3-0.1-0.5-0.2c-0.2-0.1-0.4-0.1-0.6-0.1
				c-0.2,0-0.4-0.1-0.6-0.1c-0.4,0-0.8,0.1-1.2,0.2c-0.4,0.2-0.7,0.4-0.9,0.7c-0.3,0.3-0.4,0.6-0.6,1.1s-0.2,0.9-0.2,1.4
				c0,0.5,0.1,1,0.2,1.4s0.3,0.8,0.5,1.1s0.5,0.5,0.9,0.7c0.4,0.2,0.8,0.2,1.2,0.2c0.5,0,1-0.1,1.3-0.2c0.4-0.1,0.6-0.2,0.8-0.3
				l0.3,1c-0.1,0-0.2,0.1-0.3,0.2c-0.1,0.1-0.3,0.1-0.5,0.2c-0.2,0.1-0.5,0.1-0.8,0.1S276.5,13.4,276.1,13.4z"/>
			<path fill="#3B4256" d="M285.4,10.1c0,0.5-0.1,1-0.2,1.4c-0.1,0.4-0.4,0.8-0.6,1c-0.3,0.3-0.6,0.5-0.9,0.7
				c-0.4,0.2-0.8,0.2-1.2,0.2c-0.4,0-0.8-0.1-1.2-0.2c-0.4-0.2-0.7-0.4-0.9-0.7s-0.5-0.6-0.6-1c-0.1-0.4-0.2-0.9-0.2-1.4
				c0-0.5,0.1-0.9,0.2-1.4s0.4-0.8,0.6-1.1s0.6-0.5,0.9-0.7c0.4-0.2,0.8-0.2,1.2-0.2c0.4,0,0.8,0.1,1.2,0.2c0.4,0.2,0.7,0.4,0.9,0.7
				c0.3,0.3,0.5,0.6,0.6,1.1S285.4,9.6,285.4,10.1z M284.2,10.1c0-0.7-0.2-1.3-0.5-1.7c-0.3-0.4-0.8-0.6-1.3-0.6
				c-0.6,0-1,0.2-1.3,0.6c-0.3,0.4-0.5,1-0.5,1.7c0,0.7,0.2,1.3,0.5,1.7s0.8,0.6,1.3,0.6c0.6,0,1-0.2,1.3-0.6
				C284.1,11.4,284.2,10.8,284.2,10.1z"/>
			<path fill="#3B4256" d="M288.2,9.5h1.4c0-0.4,0.2-0.8,0.3-1.1c0.2-0.3,0.4-0.6,0.6-0.9c0.3-0.2,0.5-0.4,0.9-0.6
				c0.3-0.1,0.7-0.2,1-0.2c0.4,0,0.8,0.1,1.1,0.2c0.4,0.2,0.7,0.4,0.9,0.7c0.3,0.3,0.5,0.6,0.6,1.1s0.2,0.9,0.2,1.4
				c0,0.5-0.1,1-0.2,1.4c-0.1,0.4-0.3,0.8-0.6,1c-0.3,0.3-0.6,0.5-0.9,0.7c-0.4,0.2-0.7,0.2-1.1,0.2c-0.4,0-0.8-0.1-1.1-0.2
				s-0.6-0.3-0.9-0.6c-0.3-0.3-0.5-0.6-0.6-0.9s-0.3-0.8-0.3-1.2h-1.4v2.8h-1.1V6.9h1.1V9.5z M294.2,10.1c0-0.7-0.2-1.3-0.5-1.7
				c-0.3-0.4-0.7-0.6-1.3-0.6s-0.9,0.2-1.3,0.6c-0.3,0.4-0.5,1-0.5,1.7c0,0.7,0.2,1.3,0.5,1.7c0.3,0.4,0.7,0.6,1.3,0.6
				s0.9-0.2,1.3-0.6S294.2,10.8,294.2,10.1z"/>
			<path fill="#3B4256" d="M298.4,6.8c0.4,0,0.7,0,1,0.1c0.3,0.1,0.6,0.2,0.8,0.3c0.2,0.1,0.4,0.3,0.5,0.5c0.1,0.2,0.2,0.5,0.2,0.8
				c0,0.2,0,0.4-0.1,0.5c-0.1,0.2-0.1,0.3-0.2,0.4s-0.2,0.2-0.3,0.3s-0.2,0.1-0.3,0.2c0.4,0.1,0.7,0.3,0.9,0.6
				c0.2,0.3,0.3,0.6,0.3,1.1c0,0.6-0.2,1-0.7,1.3s-1.1,0.4-2,0.4c-0.5,0-0.9,0-1.3-0.1c-0.4-0.1-0.6-0.2-0.8-0.2l0.2-1
				c0.1,0,0.4,0.1,0.7,0.2c0.3,0.1,0.7,0.1,1.2,0.1c0.5,0,0.9-0.1,1.2-0.2c0.3-0.2,0.4-0.4,0.4-0.7c0-0.2-0.1-0.4-0.2-0.6
				c-0.1-0.1-0.2-0.2-0.4-0.3c-0.2-0.1-0.3-0.1-0.5-0.1c-0.2,0-0.3,0-0.5,0h-1.1V9.5h1c0.1,0,0.3,0,0.5,0c0.2,0,0.3-0.1,0.4-0.1
				c0.1-0.1,0.2-0.2,0.3-0.3c0.1-0.1,0.1-0.3,0.1-0.5c0-0.2,0-0.3-0.1-0.4s-0.2-0.2-0.3-0.3c-0.1-0.1-0.3-0.1-0.5-0.2
				c-0.2,0-0.4-0.1-0.5-0.1c-0.1,0-0.3,0-0.5,0c-0.2,0-0.3,0.1-0.5,0.1c-0.2,0-0.3,0.1-0.4,0.1c-0.1,0-0.2,0.1-0.3,0.1l-0.2-1
				c0.1,0,0.2-0.1,0.3-0.1c0.1,0,0.3-0.1,0.5-0.1c0.2,0,0.4-0.1,0.6-0.1S298.2,6.8,298.4,6.8z"/>
			<path fill="#3B4256" d="M308.3,10.1c0,0.5-0.1,1-0.2,1.4c-0.1,0.4-0.4,0.8-0.6,1c-0.3,0.3-0.6,0.5-0.9,0.7
				c-0.4,0.2-0.8,0.2-1.2,0.2c-0.4,0-0.8-0.1-1.2-0.2c-0.4-0.2-0.7-0.4-0.9-0.7s-0.5-0.6-0.6-1c-0.1-0.4-0.2-0.9-0.2-1.4
				c0-0.5,0.1-0.9,0.2-1.4s0.4-0.8,0.6-1.1s0.6-0.5,0.9-0.7c0.4-0.2,0.8-0.2,1.2-0.2c0.4,0,0.8,0.1,1.2,0.2c0.4,0.2,0.7,0.4,0.9,0.7
				c0.3,0.3,0.5,0.6,0.6,1.1S308.3,9.6,308.3,10.1z M307.2,10.1c0-0.7-0.2-1.3-0.5-1.7c-0.3-0.4-0.8-0.6-1.3-0.6
				c-0.6,0-1,0.2-1.3,0.6c-0.3,0.4-0.5,1-0.5,1.7c0,0.7,0.2,1.3,0.5,1.7s0.8,0.6,1.3,0.6c0.6,0,1-0.2,1.3-0.6
				C307,11.4,307.2,10.8,307.2,10.1z"/>
			<path fill="#3B4256" d="M311.2,8.6c-0.1,0.8-0.1,1.6-0.2,2.4c0,0.8-0.1,1.5-0.1,2.3h-1.1c0-0.5,0-1,0.1-1.5
				c0-0.5,0.1-1.1,0.1-1.6c0-0.5,0.1-1.1,0.1-1.6s0.1-1,0.2-1.5h1c0.3,0.4,0.6,1,0.9,1.7c0.3,0.7,0.7,1.6,1.2,2.5
				c0.5-1,0.9-1.8,1.2-2.5s0.7-1.3,0.9-1.7h1c0.1,0.5,0.1,1,0.2,1.5s0.1,1.1,0.1,1.6s0.1,1.1,0.1,1.6c0,0.5,0.1,1.1,0.1,1.5H316
				c0-0.7-0.1-1.5-0.1-2.3c0-0.8-0.1-1.6-0.2-2.4c-0.1,0.3-0.3,0.6-0.4,0.9c-0.2,0.4-0.3,0.7-0.5,1.1c-0.2,0.4-0.3,0.7-0.5,1
				s-0.3,0.6-0.3,0.8H313c-0.1-0.2-0.2-0.5-0.4-0.8c-0.1-0.3-0.3-0.7-0.5-1.1c-0.2-0.4-0.3-0.7-0.5-1.1
				C311.5,9.1,311.3,8.8,311.2,8.6z"/>
			<path fill="#3B4256" d="M326.3,6.9v0.9h-2.1v5.4h-1.1V7.9H321V6.9H326.3z"/>
			<path fill="#3B4256" d="M329.5,6.8c0.5,0,0.8,0.1,1.1,0.2c0.3,0.1,0.6,0.3,0.8,0.5c0.2,0.2,0.3,0.5,0.4,0.8
				c0.1,0.3,0.1,0.6,0.1,1v3.9c-0.1,0-0.2,0-0.4,0.1c-0.2,0-0.4,0.1-0.6,0.1c-0.2,0-0.5,0-0.7,0.1c-0.3,0-0.5,0-0.8,0
				c-0.4,0-0.7,0-1-0.1c-0.3-0.1-0.6-0.2-0.8-0.3c-0.2-0.2-0.4-0.4-0.5-0.6c-0.1-0.3-0.2-0.6-0.2-0.9c0-0.3,0.1-0.6,0.2-0.9
				c0.1-0.3,0.3-0.5,0.6-0.6s0.5-0.3,0.9-0.3c0.3-0.1,0.7-0.1,1-0.1c0.1,0,0.2,0,0.4,0c0.1,0,0.2,0,0.3,0c0.1,0,0.2,0,0.3,0.1
				c0.1,0,0.1,0,0.2,0V9.2c0-0.2,0-0.4-0.1-0.6s-0.1-0.3-0.2-0.5c-0.1-0.1-0.2-0.3-0.4-0.3c-0.2-0.1-0.4-0.1-0.7-0.1
				c-0.4,0-0.7,0-1,0.1c-0.3,0.1-0.5,0.1-0.6,0.2L327.7,7c0.1-0.1,0.4-0.1,0.7-0.2S329.1,6.8,329.5,6.8z M329.6,12.4
				c0.3,0,0.5,0,0.7,0c0.2,0,0.4,0,0.5-0.1v-1.9c-0.1,0-0.2-0.1-0.4-0.1s-0.4,0-0.7,0c-0.2,0-0.4,0-0.5,0c-0.2,0-0.4,0.1-0.5,0.2
				c-0.2,0.1-0.3,0.2-0.4,0.3c-0.1,0.1-0.2,0.3-0.2,0.5c0,0.4,0.1,0.7,0.4,0.8C328.8,12.3,329.2,12.4,329.6,12.4z"/>
			<path fill="#3B4256" d="M66.4,24.3c0,0.5-0.1,0.9-0.2,1.3c-0.1,0.4-0.3,0.8-0.6,1s-0.5,0.5-0.9,0.7c-0.4,0.2-0.8,0.2-1.2,0.2
				c-0.4,0-0.7,0-1-0.1s-0.5-0.2-0.6-0.3v2.5h-1.1v-8.4c0.3-0.1,0.6-0.1,1-0.2c0.4-0.1,0.9-0.1,1.4-0.1c0.5,0,0.9,0.1,1.3,0.2
				s0.7,0.4,1,0.7c0.3,0.3,0.5,0.6,0.6,1C66.3,23.3,66.4,23.8,66.4,24.3z M65.2,24.3c0-0.7-0.2-1.3-0.5-1.7
				c-0.4-0.4-0.9-0.6-1.5-0.6c-0.3,0-0.6,0-0.8,0c-0.2,0-0.3,0.1-0.5,0.1v4c0.1,0.1,0.3,0.2,0.6,0.3c0.3,0.1,0.5,0.2,0.9,0.2
				c0.3,0,0.6-0.1,0.8-0.2c0.2-0.1,0.4-0.3,0.6-0.5s0.3-0.4,0.3-0.7C65.2,24.9,65.2,24.6,65.2,24.3z"/>
			<path fill="#3B4256" d="M67.4,24.3c0-0.6,0.1-1,0.2-1.5c0.2-0.4,0.4-0.8,0.6-1c0.3-0.3,0.6-0.5,0.9-0.6s0.7-0.2,1.1-0.2
				c0.9,0,1.5,0.3,2,0.8c0.5,0.5,0.7,1.3,0.7,2.4c0,0,0,0.1,0,0.2c0,0.1,0,0.1,0,0.2h-4.3c0,0.7,0.2,1.2,0.6,1.5
				c0.3,0.3,0.9,0.5,1.6,0.5c0.4,0,0.7,0,1-0.1c0.3-0.1,0.5-0.1,0.6-0.2l0.2,0.9c-0.1,0.1-0.4,0.1-0.7,0.2c-0.3,0.1-0.7,0.1-1.2,0.1
				c-0.6,0-1-0.1-1.4-0.2c-0.4-0.2-0.7-0.4-1-0.7c-0.3-0.3-0.5-0.6-0.6-1S67.4,24.7,67.4,24.3z M71.7,23.6c0-0.5-0.1-0.9-0.4-1.3
				s-0.6-0.5-1.1-0.5c-0.3,0-0.5,0.1-0.7,0.2c-0.2,0.1-0.4,0.2-0.5,0.4c-0.1,0.2-0.2,0.3-0.3,0.6c-0.1,0.2-0.1,0.4-0.2,0.6H71.7z"/>
			<path fill="#3B4256" d="M76.3,20.9c0.5,0,0.8,0.1,1.1,0.2c0.3,0.1,0.6,0.3,0.8,0.5c0.2,0.2,0.3,0.5,0.4,0.8
				c0.1,0.3,0.1,0.6,0.1,1v3.9c-0.1,0-0.2,0-0.4,0.1c-0.2,0-0.4,0.1-0.6,0.1c-0.2,0-0.5,0-0.7,0.1c-0.3,0-0.5,0-0.8,0
				c-0.4,0-0.7,0-1-0.1c-0.3-0.1-0.6-0.2-0.8-0.3c-0.2-0.2-0.4-0.4-0.5-0.6c-0.1-0.3-0.2-0.6-0.2-0.9c0-0.3,0.1-0.6,0.2-0.9
				c0.1-0.3,0.3-0.5,0.6-0.6s0.5-0.3,0.9-0.3c0.3-0.1,0.7-0.1,1-0.1c0.1,0,0.2,0,0.4,0c0.1,0,0.2,0,0.3,0c0.1,0,0.2,0,0.3,0.1
				c0.1,0,0.1,0,0.2,0v-0.3c0-0.2,0-0.4-0.1-0.6s-0.1-0.3-0.2-0.5c-0.1-0.1-0.2-0.3-0.4-0.3c-0.2-0.1-0.4-0.1-0.7-0.1
				c-0.4,0-0.7,0-1,0.1c-0.3,0.1-0.5,0.1-0.6,0.2l-0.1-0.9c0.1-0.1,0.4-0.1,0.7-0.2S75.9,20.9,76.3,20.9z M76.4,26.6
				c0.3,0,0.5,0,0.7,0c0.2,0,0.4,0,0.5-0.1v-1.9c-0.1,0-0.2-0.1-0.4-0.1s-0.4,0-0.7,0c-0.2,0-0.4,0-0.5,0c-0.2,0-0.4,0.1-0.5,0.2
				c-0.2,0.1-0.3,0.2-0.4,0.3C75,25.1,75,25.3,75,25.5c0,0.4,0.1,0.7,0.4,0.8C75.6,26.5,76,26.6,76.4,26.6z"/>
			<path fill="#3B4256" d="M82.6,22c0,0.3,0,0.6,0,0.9c0,0.3,0,0.6-0.1,0.9c0,0.3-0.1,0.6-0.1,0.9c-0.1,0.3-0.1,0.6-0.2,0.8
				c-0.1,0.3-0.2,0.5-0.3,0.7s-0.3,0.4-0.5,0.6c-0.2,0.2-0.4,0.3-0.7,0.4c-0.3,0.1-0.6,0.2-0.9,0.2l-0.2-0.9
				c0.4-0.1,0.7-0.2,0.9-0.4c0.2-0.2,0.4-0.5,0.6-0.8c0.1-0.3,0.2-0.6,0.3-0.9c0.1-0.3,0.1-0.7,0.1-1.1c0-0.4,0-0.8,0-1.1
				c0-0.4,0-0.7,0-1.1h4.2v6.3h-1.1V22H82.6z"/>
			<path fill="#3B4256" d="M88,20c-0.2,0-0.4-0.1-0.5-0.2s-0.2-0.3-0.2-0.5c0-0.2,0.1-0.4,0.2-0.5s0.3-0.2,0.5-0.2
				c0.2,0,0.4,0.1,0.5,0.2c0.1,0.1,0.2,0.3,0.2,0.5c0,0.2-0.1,0.4-0.2,0.5C88.3,19.9,88.2,20,88,20z M88.5,27.4h-1.1v-6.3h1.1V27.4z
				"/>
			<path fill="#3B4256" d="M91.8,20.9c0.4,0,0.7,0,1,0.1c0.3,0.1,0.6,0.2,0.8,0.3c0.2,0.1,0.4,0.3,0.5,0.5c0.1,0.2,0.2,0.5,0.2,0.8
				c0,0.2,0,0.4-0.1,0.5c-0.1,0.2-0.1,0.3-0.2,0.4s-0.2,0.2-0.3,0.3s-0.2,0.1-0.3,0.2c0.4,0.1,0.7,0.3,0.9,0.6
				c0.2,0.3,0.3,0.6,0.3,1.1c0,0.6-0.2,1-0.7,1.3s-1.1,0.4-2,0.4c-0.5,0-0.9,0-1.3-0.1c-0.4-0.1-0.6-0.2-0.8-0.2l0.2-1
				c0.1,0,0.4,0.1,0.7,0.2c0.3,0.1,0.7,0.1,1.2,0.1c0.5,0,0.9-0.1,1.2-0.2c0.3-0.2,0.4-0.4,0.4-0.7c0-0.2-0.1-0.4-0.2-0.6
				c-0.1-0.1-0.2-0.2-0.4-0.3c-0.2-0.1-0.3-0.1-0.5-0.1c-0.2,0-0.3,0-0.5,0h-1.1v-0.9h1c0.1,0,0.3,0,0.5,0c0.2,0,0.3-0.1,0.4-0.1
				c0.1-0.1,0.2-0.2,0.3-0.3c0.1-0.1,0.1-0.3,0.1-0.5c0-0.2,0-0.3-0.1-0.4s-0.2-0.2-0.3-0.3c-0.1-0.1-0.3-0.1-0.5-0.2
				c-0.2,0-0.4-0.1-0.5-0.1c-0.1,0-0.3,0-0.5,0c-0.2,0-0.3,0.1-0.5,0.1c-0.2,0-0.3,0.1-0.4,0.1c-0.1,0-0.2,0.1-0.3,0.1l-0.2-1
				c0.1,0,0.2-0.1,0.3-0.1c0.1,0,0.3-0.1,0.5-0.1c0.2,0,0.4-0.1,0.6-0.1S91.6,20.9,91.8,20.9z"/>
			<path fill="#3B4256" d="M95.2,28.6c0.1,0,0.2,0.1,0.3,0.1c0.1,0,0.3,0.1,0.4,0.1c0.4,0,0.8-0.1,1-0.3c0.3-0.2,0.5-0.5,0.7-1
				c-0.5-1-1-2-1.4-3.1c-0.4-1.1-0.8-2.2-1.1-3.3h1.2c0.1,0.4,0.2,0.8,0.3,1.2s0.3,0.9,0.4,1.3c0.2,0.4,0.3,0.9,0.5,1.3
				c0.2,0.4,0.4,0.9,0.6,1.3c0.3-0.9,0.6-1.7,0.8-2.5c0.2-0.8,0.4-1.7,0.6-2.6h1.2c-0.3,1.2-0.6,2.3-1,3.4c-0.4,1.1-0.7,2.1-1.2,3.1
				c-0.2,0.4-0.3,0.7-0.5,0.9c-0.2,0.3-0.4,0.5-0.6,0.6c-0.2,0.2-0.4,0.3-0.7,0.4c-0.3,0.1-0.6,0.1-0.9,0.1c-0.1,0-0.2,0-0.3,0
				s-0.2,0-0.3,0c-0.1,0-0.2,0-0.3-0.1s-0.1,0-0.2-0.1L95.2,28.6z"/>
			<path fill="#3B4256" d="M101.4,24.2c0-0.5,0.1-0.9,0.2-1.3c0.1-0.4,0.3-0.7,0.6-1c0.3-0.3,0.6-0.5,1-0.7s0.8-0.3,1.3-0.3
				c0.2,0,0.3,0,0.5,0c0.2,0,0.3,0,0.5,0.1c0.2,0,0.3,0.1,0.4,0.1c0.1,0,0.2,0.1,0.3,0.1l-0.2,0.9c-0.1-0.1-0.3-0.1-0.6-0.2
				c-0.2-0.1-0.5-0.1-0.9-0.1c-0.6,0-1.1,0.2-1.4,0.5c-0.3,0.3-0.5,0.8-0.6,1.3h2.6v0.9h-2.6c0,0.6,0.2,1.1,0.6,1.4s0.8,0.5,1.5,0.5
				c0.2,0,0.3,0,0.5,0c0.2,0,0.3,0,0.5-0.1c0.1,0,0.3-0.1,0.4-0.1c0.1,0,0.2-0.1,0.3-0.1l0.2,1c-0.1,0.1-0.4,0.1-0.7,0.2
				c-0.3,0.1-0.7,0.1-1.2,0.1c-0.5,0-1-0.1-1.4-0.2c-0.4-0.2-0.7-0.4-1-0.7c-0.3-0.3-0.5-0.6-0.6-1.1S101.4,24.7,101.4,24.2z"/>
			<path fill="#3B4256" d="M112,21.1V22h-2.1v5.4h-1.1V22h-2.1v-0.9H112z"/>
			<path fill="#3B4256" d="M112.9,27.3v-6.2h1.1v2.4c0.1,0,0.2,0,0.3,0c0.1,0,0.2,0,0.4,0s0.3,0,0.4,0c0.1,0,0.3,0,0.4,0
				c0.3,0,0.7,0,1,0.1c0.3,0.1,0.6,0.2,0.8,0.4c0.2,0.2,0.4,0.4,0.6,0.6c0.1,0.3,0.2,0.6,0.2,0.9c0,0.4-0.1,0.7-0.2,1
				c-0.1,0.3-0.3,0.5-0.6,0.7c-0.2,0.2-0.5,0.3-0.9,0.4c-0.3,0.1-0.7,0.1-1.1,0.1c-0.4,0-0.8,0-1.2-0.1
				C113.7,27.4,113.3,27.4,112.9,27.3z M115.3,26.6c0.5,0,0.9-0.1,1.1-0.3c0.3-0.2,0.4-0.5,0.4-0.9c0-0.2,0-0.4-0.1-0.5
				c-0.1-0.1-0.2-0.3-0.3-0.4c-0.1-0.1-0.3-0.2-0.5-0.2c-0.2,0-0.4-0.1-0.6-0.1c-0.2,0-0.4,0-0.7,0s-0.4,0-0.6,0.1v2.2
				c0,0,0.1,0,0.2,0c0.1,0,0.2,0,0.3,0c0.1,0,0.2,0,0.4,0C115.1,26.6,115.2,26.6,115.3,26.6z"/>
			<path fill="#3B4256" d="M121.8,27.6c-0.5,0-1-0.1-1.3-0.2s-0.7-0.4-1-0.7s-0.5-0.6-0.6-1c-0.1-0.4-0.2-0.8-0.2-1.3
				s0.1-0.9,0.2-1.3c0.1-0.4,0.3-0.8,0.6-1.1c0.3-0.3,0.6-0.5,1-0.7c0.4-0.2,0.8-0.2,1.3-0.2c0.3,0,0.6,0,0.9,0.1
				c0.3,0,0.6,0.1,0.8,0.2l-0.3,1c-0.2-0.1-0.4-0.1-0.6-0.2c-0.2,0-0.5-0.1-0.7-0.1c-0.6,0-1.1,0.2-1.5,0.6c-0.3,0.4-0.5,1-0.5,1.7
				c0,0.3,0,0.7,0.1,0.9c0.1,0.3,0.2,0.5,0.4,0.7c0.2,0.2,0.4,0.4,0.6,0.5c0.3,0.1,0.6,0.2,0.9,0.2c0.3,0,0.6,0,0.8-0.1
				s0.4-0.1,0.6-0.2l0.2,0.9c-0.1,0-0.2,0.1-0.3,0.1c-0.1,0-0.3,0.1-0.4,0.1s-0.3,0.1-0.5,0.1C122.1,27.5,122,27.6,121.8,27.6z"/>
			<path fill="#3B4256" d="M127.1,25c-0.1,0-0.2,0-0.4,0c-0.1,0-0.2,0-0.3,0c-0.3,0.4-0.5,0.8-0.7,1.2c-0.2,0.4-0.5,0.9-0.6,1.2
				h-1.1c0.1-0.2,0.2-0.5,0.3-0.7c0.1-0.2,0.3-0.5,0.4-0.7s0.3-0.5,0.4-0.7c0.1-0.2,0.3-0.4,0.4-0.6c-0.2-0.1-0.4-0.2-0.6-0.3
				c-0.1-0.1-0.3-0.2-0.4-0.4c-0.1-0.1-0.2-0.3-0.2-0.5c0-0.2-0.1-0.3-0.1-0.5c0-0.4,0.1-0.7,0.2-0.9c0.1-0.3,0.3-0.5,0.6-0.7
				c0.2-0.2,0.5-0.3,0.8-0.4c0.3-0.1,0.7-0.1,1.1-0.1c0.5,0,1,0,1.4,0.1c0.4,0,0.7,0.1,0.9,0.2v6.2h-1.1V25H127.1z M128.1,21.9
				c-0.1,0-0.2,0-0.4,0c-0.2,0-0.4,0-0.7,0c-0.5,0-0.8,0.1-1.1,0.3c-0.3,0.2-0.4,0.5-0.4,0.9c0,0.4,0.1,0.7,0.4,0.8s0.7,0.2,1.1,0.2
				h1.1V21.9z"/>
			<path fill="#3B4256" d="M135.8,24c0.3,0.2,0.5,0.4,0.8,0.7s0.6,0.6,0.9,0.9c0.3,0.3,0.5,0.6,0.8,1s0.4,0.6,0.6,0.9h-1.3
				c-0.2-0.3-0.4-0.6-0.6-0.8c-0.2-0.3-0.5-0.6-0.7-0.8c-0.3-0.3-0.5-0.5-0.8-0.7c-0.3-0.2-0.5-0.4-0.8-0.6v3h-1.1v-6.3h1.1v2.7
				c0.2-0.2,0.4-0.4,0.7-0.6s0.5-0.5,0.8-0.8c0.3-0.3,0.5-0.5,0.7-0.7c0.2-0.2,0.4-0.4,0.5-0.6h1.3c-0.2,0.2-0.4,0.4-0.6,0.7
				c-0.2,0.2-0.5,0.5-0.7,0.8c-0.3,0.3-0.5,0.5-0.8,0.8C136.2,23.5,136,23.8,135.8,24z"/>
			<path fill="#3B4256" d="M145,24.3c0,0.5-0.1,1-0.2,1.4c-0.1,0.4-0.4,0.8-0.6,1c-0.3,0.3-0.6,0.5-0.9,0.7
				c-0.4,0.2-0.8,0.2-1.2,0.2c-0.4,0-0.8-0.1-1.2-0.2c-0.4-0.2-0.7-0.4-0.9-0.7s-0.5-0.6-0.6-1c-0.1-0.4-0.2-0.9-0.2-1.4
				c0-0.5,0.1-0.9,0.2-1.4s0.4-0.8,0.6-1.1s0.6-0.5,0.9-0.7c0.4-0.2,0.8-0.2,1.2-0.2c0.4,0,0.8,0.1,1.2,0.2c0.4,0.2,0.7,0.4,0.9,0.7
				c0.3,0.3,0.5,0.6,0.6,1.1S145,23.8,145,24.3z M143.8,24.3c0-0.7-0.2-1.3-0.5-1.7c-0.3-0.4-0.8-0.6-1.3-0.6c-0.6,0-1,0.2-1.3,0.6
				c-0.3,0.4-0.5,1-0.5,1.7c0,0.7,0.2,1.3,0.5,1.7s0.8,0.6,1.3,0.6c0.6,0,1-0.2,1.3-0.6C143.6,25.5,143.8,25,143.8,24.3z"/>
			<path fill="#3B4256" d="M151.5,27.4h-1.1v-2.8h-2.9v2.8h-1.1v-6.3h1.1v2.6h2.9v-2.6h1.1V27.4z"/>
			<path fill="#3B4256" d="M155.9,27.6c-0.5,0-1-0.1-1.3-0.2s-0.7-0.4-1-0.7s-0.5-0.6-0.6-1c-0.1-0.4-0.2-0.8-0.2-1.3
				s0.1-0.9,0.2-1.3c0.1-0.4,0.3-0.8,0.6-1.1c0.3-0.3,0.6-0.5,1-0.7c0.4-0.2,0.8-0.2,1.3-0.2c0.3,0,0.6,0,0.9,0.1
				c0.3,0,0.6,0.1,0.8,0.2l-0.3,1c-0.2-0.1-0.4-0.1-0.6-0.2c-0.2,0-0.5-0.1-0.7-0.1c-0.6,0-1.1,0.2-1.5,0.6c-0.3,0.4-0.5,1-0.5,1.7
				c0,0.3,0,0.7,0.1,0.9c0.1,0.3,0.2,0.5,0.4,0.7c0.2,0.2,0.4,0.4,0.6,0.5c0.3,0.1,0.6,0.2,0.9,0.2c0.3,0,0.6,0,0.8-0.1
				s0.4-0.1,0.6-0.2l0.2,0.9c-0.1,0-0.2,0.1-0.3,0.1c-0.1,0-0.3,0.1-0.4,0.1s-0.3,0.1-0.5,0.1C156.3,27.5,156.1,27.6,155.9,27.6z"/>
			<path fill="#3B4256" d="M164,24.3c0,0.5-0.1,1-0.2,1.4c-0.1,0.4-0.4,0.8-0.6,1c-0.3,0.3-0.6,0.5-0.9,0.7
				c-0.4,0.2-0.8,0.2-1.2,0.2c-0.4,0-0.8-0.1-1.2-0.2c-0.4-0.2-0.7-0.4-0.9-0.7s-0.5-0.6-0.6-1c-0.1-0.4-0.2-0.9-0.2-1.4
				c0-0.5,0.1-0.9,0.2-1.4s0.4-0.8,0.6-1.1s0.6-0.5,0.9-0.7c0.4-0.2,0.8-0.2,1.2-0.2c0.4,0,0.8,0.1,1.2,0.2c0.4,0.2,0.7,0.4,0.9,0.7
				c0.3,0.3,0.5,0.6,0.6,1.1S164,23.8,164,24.3z M162.8,24.3c0-0.7-0.2-1.3-0.5-1.7c-0.3-0.4-0.8-0.6-1.3-0.6c-0.6,0-1,0.2-1.3,0.6
				c-0.3,0.4-0.5,1-0.5,1.7c0,0.7,0.2,1.3,0.5,1.7s0.8,0.6,1.3,0.6c0.6,0,1-0.2,1.3-0.6C162.7,25.5,162.8,25,162.8,24.3z"/>
			<path fill="#3B4256" d="M170.9,24.3c0,0.5-0.1,0.9-0.2,1.3c-0.1,0.4-0.3,0.8-0.6,1s-0.5,0.5-0.9,0.7c-0.4,0.2-0.8,0.2-1.2,0.2
				c-0.4,0-0.7,0-1-0.1s-0.5-0.2-0.6-0.3v2.5h-1.1v-8.4c0.3-0.1,0.6-0.1,1-0.2c0.4-0.1,0.9-0.1,1.4-0.1c0.5,0,0.9,0.1,1.3,0.2
				s0.7,0.4,1,0.7c0.3,0.3,0.5,0.6,0.6,1C170.8,23.3,170.9,23.8,170.9,24.3z M169.7,24.3c0-0.7-0.2-1.3-0.5-1.7
				c-0.4-0.4-0.9-0.6-1.5-0.6c-0.3,0-0.6,0-0.8,0c-0.2,0-0.3,0.1-0.5,0.1v4c0.1,0.1,0.3,0.2,0.6,0.3c0.3,0.1,0.5,0.2,0.9,0.2
				c0.3,0,0.6-0.1,0.8-0.2c0.2-0.1,0.4-0.3,0.6-0.5s0.3-0.4,0.3-0.7C169.7,24.9,169.7,24.6,169.7,24.3z"/>
			<path fill="#3B4256" d="M177.3,26.5h0.9v2.7h-1.1v-1.8h-4.8v-6.3h1.1v5.4h2.8v-5.4h1.1V26.5z"/>
			<path fill="#3B4256" d="M179.7,20c-0.2,0-0.4-0.1-0.5-0.2s-0.2-0.3-0.2-0.5c0-0.2,0.1-0.4,0.2-0.5s0.3-0.2,0.5-0.2
				c0.2,0,0.4,0.1,0.5,0.2c0.1,0.1,0.2,0.3,0.2,0.5c0,0.2-0.1,0.4-0.2,0.5C180.1,19.9,179.9,20,179.7,20z M180.3,27.4h-1.1v-6.3h1.1
				V27.4z"/>
			<path fill="#3B4256" d="M181.2,28.6c0.1,0,0.2,0.1,0.3,0.1c0.1,0,0.3,0.1,0.4,0.1c0.4,0,0.8-0.1,1-0.3c0.3-0.2,0.5-0.5,0.7-1
				c-0.5-1-1-2-1.4-3.1c-0.4-1.1-0.8-2.2-1.1-3.3h1.2c0.1,0.4,0.2,0.8,0.3,1.2s0.3,0.9,0.4,1.3c0.2,0.4,0.3,0.9,0.5,1.3
				c0.2,0.4,0.4,0.9,0.6,1.3c0.3-0.9,0.6-1.7,0.8-2.5c0.2-0.8,0.4-1.7,0.6-2.6h1.2c-0.3,1.2-0.6,2.3-1,3.4c-0.4,1.1-0.7,2.1-1.2,3.1
				c-0.2,0.4-0.3,0.7-0.5,0.9c-0.2,0.3-0.4,0.5-0.6,0.6c-0.2,0.2-0.4,0.3-0.7,0.4c-0.3,0.1-0.6,0.1-0.9,0.1c-0.1,0-0.2,0-0.3,0
				s-0.2,0-0.3,0c-0.1,0-0.2,0-0.3-0.1s-0.1,0-0.2-0.1L181.2,28.6z"/>
			<path fill="#3B4256" d="M189,22.8c-0.1,0.8-0.1,1.6-0.2,2.4c0,0.8-0.1,1.5-0.1,2.3h-1.1c0-0.5,0-1,0.1-1.5c0-0.5,0.1-1.1,0.1-1.6
				c0-0.5,0.1-1.1,0.1-1.6s0.1-1,0.2-1.5h1c0.3,0.4,0.6,1,0.9,1.7c0.3,0.7,0.7,1.6,1.2,2.5c0.5-1,0.9-1.8,1.2-2.5s0.7-1.3,0.9-1.7h1
				c0.1,0.5,0.1,1,0.2,1.5s0.1,1.1,0.1,1.6s0.1,1.1,0.1,1.6c0,0.5,0.1,1.1,0.1,1.5h-1.1c0-0.7-0.1-1.5-0.1-2.3
				c0-0.8-0.1-1.6-0.2-2.4c-0.1,0.3-0.3,0.6-0.4,0.9c-0.2,0.4-0.3,0.7-0.5,1.1c-0.2,0.4-0.3,0.7-0.5,1s-0.3,0.6-0.3,0.8h-0.9
				c-0.1-0.2-0.2-0.5-0.4-0.8c-0.1-0.3-0.3-0.7-0.5-1.1c-0.2-0.4-0.3-0.7-0.5-1.1C189.2,23.3,189.1,23,189,22.8z"/>
			<path fill="#3B4256" d="M202,24.3c0,0.5-0.1,1-0.2,1.4c-0.1,0.4-0.4,0.8-0.6,1c-0.3,0.3-0.6,0.5-0.9,0.7
				c-0.4,0.2-0.8,0.2-1.2,0.2c-0.4,0-0.8-0.1-1.2-0.2c-0.4-0.2-0.7-0.4-0.9-0.7s-0.5-0.6-0.6-1c-0.1-0.4-0.2-0.9-0.2-1.4
				c0-0.5,0.1-0.9,0.2-1.4s0.4-0.8,0.6-1.1s0.6-0.5,0.9-0.7c0.4-0.2,0.8-0.2,1.2-0.2c0.4,0,0.8,0.1,1.2,0.2c0.4,0.2,0.7,0.4,0.9,0.7
				c0.3,0.3,0.5,0.6,0.6,1.1S202,23.8,202,24.3z M200.8,24.3c0-0.7-0.2-1.3-0.5-1.7c-0.3-0.4-0.8-0.6-1.3-0.6c-0.6,0-1,0.2-1.3,0.6
				c-0.3,0.4-0.5,1-0.5,1.7c0,0.7,0.2,1.3,0.5,1.7s0.8,0.6,1.3,0.6c0.6,0,1-0.2,1.3-0.6C200.6,25.5,200.8,25,200.8,24.3z"/>
			<path fill="#3B4256" d="M204.5,22.8c-0.1,0.8-0.1,1.6-0.2,2.4c0,0.8-0.1,1.5-0.1,2.3h-1.1c0-0.5,0-1,0.1-1.5
				c0-0.5,0.1-1.1,0.1-1.6c0-0.5,0.1-1.1,0.1-1.6s0.1-1,0.2-1.5h1c0.3,0.4,0.6,1,0.9,1.7c0.3,0.7,0.7,1.6,1.2,2.5
				c0.5-1,0.9-1.8,1.2-2.5s0.7-1.3,0.9-1.7h1c0.1,0.5,0.1,1,0.2,1.5s0.1,1.1,0.1,1.6s0.1,1.1,0.1,1.6c0,0.5,0.1,1.1,0.1,1.5h-1.1
				c0-0.7-0.1-1.5-0.1-2.3c0-0.8-0.1-1.6-0.2-2.4c-0.1,0.3-0.3,0.6-0.4,0.9c-0.2,0.4-0.3,0.7-0.5,1.1c-0.2,0.4-0.3,0.7-0.5,1
				s-0.3,0.6-0.3,0.8h-0.9c-0.1-0.2-0.2-0.5-0.4-0.8c-0.1-0.3-0.3-0.7-0.5-1.1c-0.2-0.4-0.3-0.7-0.5-1.1
				C204.8,23.3,204.6,23,204.5,22.8z"/>
			<path fill="#3B4256" d="M219.6,27.4h-1.1V22h-2.8v5.4h-1.1v-6.3h5.1V27.4z"/>
			<path fill="#3B4256" d="M221.8,20c-0.2,0-0.4-0.1-0.5-0.2s-0.2-0.3-0.2-0.5c0-0.2,0.1-0.4,0.2-0.5s0.3-0.2,0.5-0.2
				c0.2,0,0.4,0.1,0.5,0.2c0.1,0.1,0.2,0.3,0.2,0.5c0,0.2-0.1,0.4-0.2,0.5C222.2,19.9,222.1,20,221.8,20z M222.4,27.4h-1.1v-6.3h1.1
				V27.4z"/>
			<path fill="#3B4256" d="M223.3,26.5h0.7c0.3-0.4,0.5-0.8,0.6-1.2s0.3-0.8,0.4-1.3c0.1-0.4,0.1-0.9,0.2-1.4c0-0.5,0-1,0-1.5h4.1
				v5.4h0.9v2.7h-1.1v-1.8h-4.7v1.8h-1.1V26.5z M228.2,26.5V22h-2c0,0.4,0,0.8-0.1,1.1c0,0.4-0.1,0.8-0.2,1.1
				c-0.1,0.4-0.2,0.7-0.3,1.1s-0.3,0.7-0.5,1.1H228.2z"/>
			<path fill="#3B4256" d="M236.1,24c0.3,0.2,0.5,0.4,0.8,0.7s0.6,0.6,0.9,0.9c0.3,0.3,0.5,0.6,0.8,1s0.4,0.6,0.6,0.9h-1.3
				c-0.2-0.3-0.4-0.6-0.6-0.8c-0.2-0.3-0.5-0.6-0.7-0.8c-0.3-0.3-0.5-0.5-0.8-0.7c-0.3-0.2-0.5-0.4-0.8-0.6v3h-1.1v-6.3h1.1v2.7
				c0.2-0.2,0.4-0.4,0.7-0.6s0.5-0.5,0.8-0.8c0.3-0.3,0.5-0.5,0.7-0.7c0.2-0.2,0.4-0.4,0.5-0.6h1.3c-0.2,0.2-0.4,0.4-0.6,0.7
				c-0.2,0.2-0.5,0.5-0.7,0.8c-0.3,0.3-0.5,0.5-0.8,0.8C236.5,23.5,236.3,23.8,236.1,24z"/>
			<path fill="#3B4256" d="M239.4,24.3c0-0.6,0.1-1,0.2-1.5c0.2-0.4,0.4-0.8,0.6-1c0.3-0.3,0.6-0.5,0.9-0.6s0.7-0.2,1.1-0.2
				c0.9,0,1.5,0.3,2,0.8c0.5,0.5,0.7,1.3,0.7,2.4c0,0,0,0.1,0,0.2c0,0.1,0,0.1,0,0.2h-4.3c0,0.7,0.2,1.2,0.6,1.5
				c0.3,0.3,0.9,0.5,1.6,0.5c0.4,0,0.7,0,1-0.1c0.3-0.1,0.5-0.1,0.6-0.2l0.2,0.9c-0.1,0.1-0.4,0.1-0.7,0.2c-0.3,0.1-0.7,0.1-1.2,0.1
				c-0.6,0-1-0.1-1.4-0.2c-0.4-0.2-0.7-0.4-1-0.7c-0.3-0.3-0.5-0.6-0.6-1S239.4,24.7,239.4,24.3z M243.7,23.6c0-0.5-0.1-0.9-0.4-1.3
				s-0.6-0.5-1.1-0.5c-0.3,0-0.5,0.1-0.7,0.2c-0.2,0.1-0.4,0.2-0.5,0.4c-0.1,0.2-0.2,0.3-0.3,0.6c-0.1,0.2-0.1,0.4-0.2,0.6H243.7z"
				/>
			<path fill="#3B4256" d="M251.8,24.3c0,0.5-0.1,0.9-0.2,1.3c-0.1,0.4-0.3,0.8-0.6,1s-0.5,0.5-0.9,0.7c-0.4,0.2-0.8,0.2-1.2,0.2
				c-0.4,0-0.7,0-1-0.1s-0.5-0.2-0.6-0.3v2.5h-1.1v-8.4c0.3-0.1,0.6-0.1,1-0.2c0.4-0.1,0.9-0.1,1.4-0.1c0.5,0,0.9,0.1,1.3,0.2
				s0.7,0.4,1,0.7c0.3,0.3,0.5,0.6,0.6,1C251.8,23.3,251.8,23.8,251.8,24.3z M250.7,24.3c0-0.7-0.2-1.3-0.5-1.7
				c-0.4-0.4-0.9-0.6-1.5-0.6c-0.3,0-0.6,0-0.8,0c-0.2,0-0.3,0.1-0.5,0.1v4c0.1,0.1,0.3,0.2,0.6,0.3c0.3,0.1,0.5,0.2,0.9,0.2
				c0.3,0,0.6-0.1,0.8-0.2c0.2-0.1,0.4-0.3,0.6-0.5s0.3-0.4,0.3-0.7C250.6,24.9,250.7,24.6,250.7,24.3z"/>
			<path fill="#3B4256" d="M253.7,20c-0.2,0-0.4-0.1-0.5-0.2s-0.2-0.3-0.2-0.5c0-0.2,0.1-0.4,0.2-0.5s0.3-0.2,0.5-0.2
				c0.2,0,0.4,0.1,0.5,0.2c0.1,0.1,0.2,0.3,0.2,0.5c0,0.2-0.1,0.4-0.2,0.5C254.1,19.9,253.9,20,253.7,20z M254.3,27.4h-1.1v-6.3h1.1
				V27.4z"/>
			<path fill="#3B4256" d="M258.3,27.5c-0.5,0-0.9,0-1.3-0.1s-0.7-0.1-1-0.2v-6.1c0.2-0.1,0.6-0.1,1-0.2c0.4,0,0.8-0.1,1.3-0.1
				c0.3,0,0.7,0,1,0.1c0.3,0.1,0.6,0.2,0.8,0.3s0.4,0.3,0.6,0.5c0.1,0.2,0.2,0.5,0.2,0.9c0,0.3-0.1,0.6-0.2,0.8s-0.4,0.4-0.6,0.5
				c0.3,0.1,0.6,0.3,0.8,0.5s0.3,0.6,0.3,1c0,0.4-0.1,0.7-0.2,0.9c-0.1,0.3-0.4,0.5-0.6,0.6c-0.3,0.2-0.6,0.3-0.9,0.3
				C259.1,27.5,258.7,27.5,258.3,27.5z M258.3,23.7c0.2,0,0.4,0,0.6,0c0.2,0,0.3-0.1,0.5-0.2c0.1-0.1,0.2-0.2,0.3-0.3
				s0.1-0.3,0.1-0.5c0-0.2,0-0.3-0.1-0.5s-0.2-0.2-0.4-0.3c-0.2-0.1-0.3-0.1-0.5-0.1c-0.2,0-0.4,0-0.6,0c-0.2,0-0.4,0-0.6,0
				c-0.2,0-0.4,0-0.5,0v1.8H258.3z M257.1,26.6c0,0,0.1,0,0.2,0c0.1,0,0.2,0,0.3,0c0.1,0,0.2,0,0.4,0c0.1,0,0.2,0,0.4,0
				c0.2,0,0.5,0,0.7,0s0.4-0.1,0.6-0.2c0.2-0.1,0.3-0.2,0.4-0.3c0.1-0.1,0.1-0.3,0.1-0.5c0-0.2,0-0.4-0.1-0.5
				c-0.1-0.1-0.2-0.2-0.3-0.3c-0.1-0.1-0.3-0.1-0.5-0.2c-0.2,0-0.4,0-0.6,0h-1.3V26.6z"/>
			<path fill="#3B4256" d="M267.6,27.4h-1.1v-2.8h-2.9v2.8h-1.1v-6.3h1.1v2.6h2.9v-2.6h1.1V27.4z"/>
			<path fill="#3B4256" d="M274.6,21.1v6.3h-1.1v-4.8c-0.2,0.3-0.5,0.7-0.8,1.1s-0.6,0.8-0.9,1.3s-0.6,0.9-0.8,1.3
				c-0.3,0.4-0.5,0.8-0.7,1.1h-1v-6.3h1.1v4.5c0.2-0.3,0.4-0.7,0.7-1.1c0.3-0.4,0.5-0.8,0.8-1.2c0.3-0.4,0.6-0.8,0.9-1.2
				s0.6-0.7,0.8-1H274.6z"/>
			<path fill="#3B4256" d="M281.4,26.5h0.9v2.7h-1.1v-1.8h-4.8v-6.3h1.1v5.4h2.8v-5.4h1.1V26.5z"/>
			<path fill="#3B4256" d="M287.6,21.1V22h-2.1v5.4h-1.1V22h-2.1v-0.9H287.6z"/>
			<path fill="#3B4256" d="M290.9,27.5c-0.5,0-0.9,0-1.3-0.1s-0.7-0.1-1-0.2v-6.1c0.2-0.1,0.6-0.1,1-0.2c0.4,0,0.8-0.1,1.3-0.1
				c0.3,0,0.7,0,1,0.1c0.3,0.1,0.6,0.2,0.8,0.3s0.4,0.3,0.6,0.5c0.1,0.2,0.2,0.5,0.2,0.9c0,0.3-0.1,0.6-0.2,0.8s-0.4,0.4-0.6,0.5
				c0.3,0.1,0.6,0.3,0.8,0.5s0.3,0.6,0.3,1c0,0.4-0.1,0.7-0.2,0.9c-0.1,0.3-0.4,0.5-0.6,0.6c-0.3,0.2-0.6,0.3-0.9,0.3
				C291.6,27.5,291.3,27.5,290.9,27.5z M290.9,23.7c0.2,0,0.4,0,0.6,0c0.2,0,0.3-0.1,0.5-0.2c0.1-0.1,0.2-0.2,0.3-0.3
				s0.1-0.3,0.1-0.5c0-0.2,0-0.3-0.1-0.5s-0.2-0.2-0.4-0.3c-0.2-0.1-0.3-0.1-0.5-0.1c-0.2,0-0.4,0-0.6,0c-0.2,0-0.4,0-0.6,0
				c-0.2,0-0.4,0-0.5,0v1.8H290.9z M289.7,26.6c0,0,0.1,0,0.2,0c0.1,0,0.2,0,0.3,0c0.1,0,0.2,0,0.4,0c0.1,0,0.2,0,0.4,0
				c0.2,0,0.5,0,0.7,0s0.4-0.1,0.6-0.2c0.2-0.1,0.3-0.2,0.4-0.3c0.1-0.1,0.1-0.3,0.1-0.5c0-0.2,0-0.4-0.1-0.5
				c-0.1-0.1-0.2-0.2-0.3-0.3c-0.1-0.1-0.3-0.1-0.5-0.2c-0.2,0-0.4,0-0.6,0h-1.3V26.6z"/>
			<path fill="#3B4256" d="M300.6,24.3c0,0.5-0.1,1-0.2,1.4c-0.1,0.4-0.4,0.8-0.6,1c-0.3,0.3-0.6,0.5-0.9,0.7
				c-0.4,0.2-0.8,0.2-1.2,0.2c-0.4,0-0.8-0.1-1.2-0.2c-0.4-0.2-0.7-0.4-0.9-0.7s-0.5-0.6-0.6-1c-0.1-0.4-0.2-0.9-0.2-1.4
				c0-0.5,0.1-0.9,0.2-1.4s0.4-0.8,0.6-1.1s0.6-0.5,0.9-0.7c0.4-0.2,0.8-0.2,1.2-0.2c0.4,0,0.8,0.1,1.2,0.2c0.4,0.2,0.7,0.4,0.9,0.7
				c0.3,0.3,0.5,0.6,0.6,1.1S300.6,23.8,300.6,24.3z M299.4,24.3c0-0.7-0.2-1.3-0.5-1.7c-0.3-0.4-0.8-0.6-1.3-0.6
				c-0.6,0-1,0.2-1.3,0.6c-0.3,0.4-0.5,1-0.5,1.7c0,0.7,0.2,1.3,0.5,1.7s0.8,0.6,1.3,0.6c0.6,0,1-0.2,1.3-0.6
				C299.2,25.5,299.4,25,299.4,24.3z"/>
			<path fill="#3B4256" d="M303.1,22.8c-0.1,0.8-0.1,1.6-0.2,2.4c0,0.8-0.1,1.5-0.1,2.3h-1.1c0-0.5,0-1,0.1-1.5
				c0-0.5,0.1-1.1,0.1-1.6c0-0.5,0.1-1.1,0.1-1.6s0.1-1,0.2-1.5h1c0.3,0.4,0.6,1,0.9,1.7c0.3,0.7,0.7,1.6,1.2,2.5
				c0.5-1,0.9-1.8,1.2-2.5s0.7-1.3,0.9-1.7h1c0.1,0.5,0.1,1,0.2,1.5s0.1,1.1,0.1,1.6s0.1,1.1,0.1,1.6c0,0.5,0.1,1.1,0.1,1.5h-1.1
				c0-0.7-0.1-1.5-0.1-2.3c0-0.8-0.1-1.6-0.2-2.4c-0.1,0.3-0.3,0.6-0.4,0.9c-0.2,0.4-0.3,0.7-0.5,1.1c-0.2,0.4-0.3,0.7-0.5,1
				s-0.3,0.6-0.3,0.8h-0.9c-0.1-0.2-0.2-0.5-0.4-0.8c-0.1-0.3-0.3-0.7-0.5-1.1c-0.2-0.4-0.3-0.7-0.5-1.1
				C303.4,23.3,303.2,23,303.1,22.8z"/>
			<path fill="#3B4256" d="M313.2,27.4V19h5.1v1h-3.9v2.5h3.5v1h-3.5v3.9H313.2z"/>
			<path fill="#3B4256" d="M322.9,27.6c-0.6,0-1.1-0.1-1.6-0.3c-0.5-0.2-0.9-0.5-1.3-0.9s-0.6-0.8-0.8-1.4c-0.2-0.5-0.3-1.2-0.3-1.9
				s0.1-1.3,0.3-1.9c0.2-0.5,0.5-1,0.9-1.4c0.4-0.4,0.8-0.7,1.3-0.9s1-0.3,1.6-0.3c0.3,0,0.7,0,0.9,0.1c0.3,0,0.5,0.1,0.7,0.2
				s0.4,0.1,0.5,0.2c0.1,0.1,0.2,0.1,0.3,0.1l-0.3,1c-0.1,0-0.2-0.1-0.3-0.2s-0.3-0.1-0.5-0.2c-0.2-0.1-0.4-0.1-0.6-0.1
				c-0.2,0-0.4-0.1-0.6-0.1c-0.4,0-0.8,0.1-1.2,0.2c-0.4,0.2-0.7,0.4-0.9,0.7c-0.3,0.3-0.4,0.6-0.6,1.1s-0.2,0.9-0.2,1.4
				c0,0.5,0.1,1,0.2,1.4s0.3,0.8,0.5,1.1s0.5,0.5,0.9,0.7c0.4,0.2,0.8,0.2,1.2,0.2c0.5,0,1-0.1,1.3-0.2c0.4-0.1,0.6-0.2,0.8-0.3
				l0.3,1c-0.1,0-0.2,0.1-0.3,0.2c-0.1,0.1-0.3,0.1-0.5,0.2c-0.2,0.1-0.5,0.1-0.8,0.1S323.3,27.6,322.9,27.6z"/>
			<path fill="#3B4256" d="M331.5,23.3h1.2v3.9c-0.1,0-0.2,0.1-0.4,0.1c-0.2,0-0.4,0.1-0.6,0.1c-0.2,0-0.5,0.1-0.8,0.1
				c-0.3,0-0.6,0-0.9,0c-0.6,0-1.1-0.1-1.6-0.3c-0.5-0.2-0.9-0.5-1.3-0.9s-0.6-0.8-0.8-1.4c-0.2-0.5-0.3-1.2-0.3-1.9
				s0.1-1.3,0.3-1.9c0.2-0.5,0.5-1,0.9-1.4c0.4-0.4,0.8-0.7,1.3-0.9c0.5-0.2,1-0.3,1.6-0.3c0.4,0,0.7,0,1,0.1c0.3,0,0.5,0.1,0.8,0.2
				c0.2,0.1,0.4,0.1,0.5,0.2c0.1,0.1,0.2,0.1,0.3,0.1l-0.4,1c-0.2-0.2-0.5-0.3-0.9-0.4s-0.8-0.2-1.2-0.2c-0.4,0-0.8,0.1-1.2,0.2
				c-0.4,0.2-0.7,0.4-0.9,0.7c-0.2,0.3-0.4,0.6-0.6,1.1c-0.1,0.4-0.2,0.9-0.2,1.4c0,0.5,0.1,1,0.2,1.4s0.3,0.8,0.5,1.1
				s0.5,0.5,0.9,0.7c0.4,0.2,0.8,0.2,1.2,0.2c0.3,0,0.6,0,0.9-0.1c0.2,0,0.4-0.1,0.5-0.1V23.3z"/>
		</g>
	</g>
	<g>
		<g>
			<g>
				<rect fill="#034EA2" width="48" height="32"/>
			</g>
			<path fill="#034EA2" d="M24,16"/>
		</g>
		<g>
			<polygon fill="#FFF200" points="23,7 24,6.2 25,7 24.6,5.8 25.6,5 24.4,5 24,3.8 23.6,5 22.3,5 23.4,5.8 			"/>
			<polygon fill="#FFF200" points="17.7,8.4 18.7,7.6 19.8,8.4 19.4,7.2 20.4,6.4 19.1,6.4 18.7,5.2 18.4,6.4 17.1,6.4 18.1,7.2
				"/>
			<polygon fill="#FFF200" points="14.9,9.1 14.5,10.3 13.3,10.3 14.3,11 13.9,12.2 14.9,11.5 15.9,12.2 15.5,11 16.6,10.3
				15.3,10.3 			"/>
			<polygon fill="#FFF200" points="13.5,16.7 14.5,17.5 14.1,16.3 15.2,15.5 13.9,15.5 13.5,14.3 13.1,15.5 11.9,15.5 12.9,16.3
				12.5,17.5 			"/>
			<polygon fill="#FFF200" points="15.3,20.8 14.9,19.6 14.5,20.8 13.3,20.8 14.3,21.5 13.9,22.7 14.9,22 15.9,22.7 15.5,21.5
				16.6,20.8 			"/>
			<polygon fill="#FFF200" points="19.1,24.6 18.8,23.4 18.4,24.6 17.1,24.6 18.1,25.4 17.7,26.6 18.8,25.8 19.8,26.6 19.4,25.4
				20.4,24.6 			"/>
			<polygon fill="#FFF200" points="24.4,26 24,24.8 23.6,26 22.3,26 23.4,26.7 23,27.9 24,27.2 25,27.9 24.6,26.7 25.6,26 			"/>
			<polygon fill="#FFF200" points="29.6,24.6 29.2,23.4 28.8,24.6 27.6,24.6 28.6,25.4 28.2,26.6 29.2,25.8 30.2,26.6 29.9,25.4
				30.9,24.6 			"/>
			<polygon fill="#FFF200" points="33.5,20.8 33.1,19.6 32.7,20.8 31.4,20.8 32.4,21.5 32.1,22.7 33.1,22 34.1,22.7 33.7,21.5
				34.7,20.8 			"/>
			<polygon fill="#FFF200" points="36.1,15.5 34.8,15.5 34.5,14.3 34.1,15.5 32.8,15.5 33.8,16.2 33.4,17.4 34.5,16.7 35.5,17.4
				35.1,16.2 			"/>
			<polygon fill="#FFF200" points="32.1,12.2 33.1,11.5 34.1,12.2 33.7,11 34.7,10.3 33.5,10.3 33.1,9.1 32.7,10.3 31.4,10.3
				32.4,11 			"/>
			<polygon fill="#FFF200" points="29.2,5.2 28.9,6.4 27.6,6.4 28.6,7.2 28.2,8.4 29.2,7.6 30.3,8.4 29.9,7.2 30.9,6.4 29.6,6.4
				"/>
		</g>
	</g>
</g>
</svg>
