<?xml version="1.0" encoding="utf-8"?>
<!-- Generator: Adobe Illustrator 17.1.0, SVG Export Plug-In . SVG Version: 6.00 Build 0)  -->
<!DOCTYPE svg PUBLIC "-//W3C//DTD SVG 1.1//EN" "http://www.w3.org/Graphics/SVG/1.1/DTD/svg11.dtd">
<svg version="1.1" id="Layer_1" xmlns="http://www.w3.org/2000/svg" xmlns:xlink="http://www.w3.org/1999/xlink" x="0px" y="0px"
	 viewBox="0 0 183 65.8" enable-background="new 0 0 183 65.8" xml:space="preserve">
<g>
	<g>
		<polygon fill="#48B9C7" points="39.1,38.9 36.5,38.9 36.5,40.9 39.5,40.9 39.5,41.5 35.7,41.5 35.7,35.8 39.5,35.8 39.5,36.4
			36.5,36.4 36.5,38.3 39.1,38.3 		"/>
		<path fill="#48B9C7" d="M44.7,35.8v3.9c0,0.6-0.2,1.1-0.6,1.4c-0.4,0.3-0.9,0.5-1.6,0.5c-0.6,0-1.1-0.2-1.5-0.5
			c-0.4-0.3-0.6-0.8-0.6-1.4v-3.9h0.8v3.9c0,0.4,0.1,0.8,0.4,1c0.2,0.2,0.6,0.3,1,0.3c0.4,0,0.8-0.1,1-0.3c0.3-0.2,0.4-0.6,0.4-1
			v-3.9H44.7z"/>
		<path fill="#48B9C7" d="M49.3,39.6h0.8v0.6h-0.8v1.3h-0.8v-1.3h-2.7v-0.4l2.7-4h0.9V39.6z M46.6,39.6h1.8v-2.7l0,0l-0.1,0.2
			L46.6,39.6z"/>
		<path fill="#48B9C7" d="M55.2,39.7L55.2,39.7c0,0.6-0.2,1-0.6,1.4c-0.4,0.4-0.9,0.5-1.5,0.5c-0.6,0-1.2-0.2-1.6-0.7
			c-0.4-0.5-0.6-1-0.6-1.7v-1c0-0.7,0.2-1.3,0.6-1.7c0.4-0.5,0.9-0.7,1.6-0.7c0.6,0,1.2,0.2,1.5,0.5c0.4,0.3,0.6,0.8,0.6,1.4l0,0
			h-0.7c0-0.4-0.1-0.7-0.4-0.9c-0.2-0.2-0.6-0.3-1-0.3c-0.4,0-0.8,0.2-1,0.5c-0.3,0.3-0.4,0.8-0.4,1.3v1c0,0.5,0.1,1,0.4,1.3
			c0.3,0.3,0.6,0.5,1,0.5c0.4,0,0.8-0.1,1-0.3c0.2-0.2,0.4-0.6,0.4-1H55.2z"/>
		<rect x="56.3" y="35.8" fill="#48B9C7" width="0.8" height="5.7"/>
		<polygon fill="#48B9C7" points="60.6,40.1 60.7,40.6 60.7,40.6 60.9,40.1 62.4,35.8 63.2,35.8 61.1,41.5 60.4,41.5 58.3,35.8
			59.1,35.8 		"/>
		<rect x="64.4" y="35.8" fill="#48B9C7" width="0.8" height="5.7"/>
		<polygon fill="#48B9C7" points="67.7,40.9 70.4,40.9 70.4,41.5 66.9,41.5 66.9,35.8 67.7,35.8 		"/>
		<path fill="#48B9C7" d="M38.9,48.8c0-0.3-0.1-0.5-0.3-0.7c-0.2-0.2-0.5-0.3-1-0.4c-0.6-0.1-1.1-0.4-1.4-0.6
			c-0.3-0.3-0.5-0.6-0.5-1.1c0-0.4,0.2-0.8,0.5-1.1c0.4-0.3,0.8-0.4,1.4-0.4c0.6,0,1.1,0.2,1.5,0.5c0.4,0.3,0.5,0.7,0.5,1.2l0,0
			h-0.7c0-0.3-0.1-0.6-0.3-0.8c-0.2-0.2-0.5-0.3-1-0.3c-0.4,0-0.7,0.1-0.9,0.3c-0.2,0.2-0.3,0.4-0.3,0.7c0,0.2,0.1,0.5,0.3,0.6
			c0.2,0.2,0.6,0.3,1.1,0.4c0.6,0.1,1.1,0.4,1.4,0.7c0.3,0.3,0.5,0.7,0.5,1.1c0,0.5-0.2,0.8-0.6,1.1c-0.4,0.3-0.9,0.4-1.5,0.4
			c-0.6,0-1.1-0.2-1.5-0.5c-0.4-0.3-0.7-0.7-0.6-1.2l0,0h0.7c0,0.4,0.1,0.6,0.4,0.8c0.3,0.2,0.6,0.3,1,0.3c0.4,0,0.7-0.1,0.9-0.2
			C38.7,49.3,38.9,49.1,38.9,48.8"/>
		<path fill="#48B9C7" d="M44.7,47.9c0,0.7-0.2,1.3-0.6,1.7c-0.4,0.5-0.9,0.7-1.6,0.7c-0.6,0-1.1-0.2-1.5-0.7
			c-0.4-0.5-0.6-1-0.6-1.7v-1c0-0.7,0.2-1.3,0.6-1.7c0.4-0.5,0.9-0.7,1.5-0.7c0.6,0,1.2,0.2,1.6,0.7c0.4,0.5,0.6,1,0.6,1.7V47.9z
			 M44,46.9c0-0.5-0.1-1-0.4-1.3c-0.3-0.3-0.6-0.5-1.1-0.5c-0.4,0-0.8,0.2-1,0.5c-0.2,0.3-0.4,0.8-0.4,1.3v1c0,0.5,0.1,1,0.4,1.3
			c0.2,0.3,0.6,0.5,1,0.5c0.4,0,0.8-0.2,1.1-0.5c0.3-0.3,0.4-0.8,0.4-1.3V46.9z"/>
		<path fill="#48B9C7" d="M49.8,48.4L49.8,48.4c0,0.6-0.2,1-0.6,1.4c-0.4,0.4-0.9,0.5-1.5,0.5c-0.6,0-1.2-0.2-1.6-0.7
			c-0.4-0.5-0.6-1-0.6-1.7v-1c0-0.7,0.2-1.3,0.6-1.7c0.4-0.5,0.9-0.7,1.6-0.7c0.6,0,1.2,0.2,1.5,0.5c0.4,0.3,0.6,0.8,0.6,1.4l0,0
			h-0.7c0-0.4-0.1-0.7-0.4-1c-0.2-0.2-0.6-0.3-1-0.3c-0.4,0-0.8,0.2-1,0.5c-0.3,0.3-0.4,0.8-0.4,1.3v1c0,0.5,0.1,1,0.4,1.3
			c0.3,0.3,0.6,0.5,1,0.5c0.4,0,0.8-0.1,1-0.3c0.2-0.2,0.4-0.6,0.4-1H49.8z"/>
		<rect x="51.2" y="44.6" fill="#48B9C7" width="0.8" height="5.7"/>
		<polygon fill="#48B9C7" points="56.9,47.6 54.2,47.6 54.2,49.7 57.3,49.7 57.3,50.3 53.5,50.3 53.5,44.6 57.2,44.6 57.2,45.2
			54.2,45.2 54.2,47 56.9,47 		"/>
		<polygon fill="#48B9C7" points="62.5,45.2 60.6,45.2 60.6,50.3 59.9,50.3 59.9,45.2 58,45.2 58,44.6 62.5,44.6 		"/>
		<polygon fill="#48B9C7" points="65.5,47.5 67,44.6 67.9,44.6 65.9,48.3 65.9,50.3 65.1,50.3 65.1,48.2 63.2,44.6 64,44.6 		"/>
		<path fill="#48B9C7" d="M12.9,41.9h11v11c0,3.1,1.2,6.2,3.5,8.4l4.3,4.3c0.5,0.5,1.2,0.1,1.2-0.5V36.2c0-1.8-1.5-3.3-3.3-3.3H0.7
			c-0.6,0-1,0.8-0.5,1.2l4.3,4.3C6.7,40.6,9.7,41.9,12.9,41.9"/>
		<g>
			<g>
				<defs>
					<rect id="SVGID_1_" x="23.9" y="41.8" width="9" height="6.9"/>
				</defs>
				<clipPath id="SVGID_2_">
					<use xlink:href="#SVGID_1_"  overflow="visible"/>
				</clipPath>
				<polygon clip-path="url(#SVGID_2_)" fill="#95BBE4" points="32.9,41.9 23.9,48.7 23.9,41.8 				"/>
			</g>
		</g>
		<path fill="#542E91" d="M23.9,41.9h9v-5.7c0-1.8-1.5-3.3-3.3-3.3H0.7c-0.6,0-1,0.8-0.5,1.2l4.3,4.3c2.2,2.2,5.2,3.5,8.4,3.5H23.9z
			"/>
		<path fill="#F06098" d="M52.9,23.9h-11v-11c0-3.1-1.2-6.2-3.5-8.4l-4.3-4.3c-0.5-0.5-1.2-0.1-1.2,0.5v28.9c0,1.8,1.5,3.3,3.3,3.3
			H65c0.6,0,1-0.8,0.5-1.2l-4.3-4.3C59.1,25.2,56,23.9,52.9,23.9"/>
		<g>
			<g>
				<defs>
					<rect id="SVGID_3_" x="32.9" y="17.1" width="9" height="6.8"/>
				</defs>
				<clipPath id="SVGID_4_">
					<use xlink:href="#SVGID_3_"  overflow="visible"/>
				</clipPath>
				<polygon clip-path="url(#SVGID_4_)" fill="#95BBE4" points="32.9,23.9 41.9,17.1 41.9,23.9 				"/>
			</g>
		</g>
		<path fill="#542E91" d="M41.9,23.9h-9v5.7c0,1.8,1.5,3.3,3.3,3.3H65c0.6,0,1-0.8,0.5-1.2l-4.3-4.3c-2.2-2.2-5.2-3.5-8.4-3.5H41.9z
			"/>
	</g>
	<g>
		<g>
			<polygon fill="#2A285E" points="88.2,28.9 85.7,28.9 85.7,36.6 83.8,36.6 83.8,28.9 81.3,28.9 81.3,27.5 88.2,27.5 			"/>
			<path fill="#2A285E" d="M96.9,32.8c0,1.1-0.4,2-1.1,2.8c-0.7,0.7-1.6,1.1-2.8,1.1c-1.1,0-2-0.4-2.7-1.1c-0.7-0.7-1.1-1.7-1.1-2.8
				v-1.6c0-1.1,0.3-2,1-2.8c0.7-0.7,1.6-1.1,2.7-1.1c1.1,0,2,0.4,2.8,1.1c0.7,0.7,1.1,1.7,1.1,2.8V32.8z M95.1,31.2
				c0-0.7-0.2-1.3-0.5-1.7c-0.4-0.5-0.8-0.7-1.5-0.7c-0.6,0-1.1,0.2-1.4,0.7c-0.3,0.5-0.5,1-0.5,1.7v1.7c0,0.7,0.2,1.3,0.5,1.8
				c0.3,0.5,0.8,0.7,1.4,0.7c0.6,0,1.1-0.2,1.5-0.7c0.4-0.5,0.5-1,0.5-1.8V31.2z"/>
			<path fill="#2A285E" d="M105.8,35.3c-0.3,0.4-0.7,0.7-1.3,1c-0.6,0.3-1.3,0.4-2.2,0.4c-1.1,0-2-0.3-2.7-1
				C99,35,98.6,34.1,98.6,33v-1.9c0-1.1,0.3-2,1-2.7c0.7-0.7,1.5-1,2.6-1c1.1,0,2,0.3,2.5,0.8c0.6,0.5,0.9,1.2,0.9,2.1l0,0H104
				c0-0.5-0.2-0.9-0.5-1.1c-0.3-0.3-0.7-0.4-1.2-0.4c-0.6,0-1,0.2-1.3,0.6c-0.3,0.4-0.5,1-0.5,1.7V33c0,0.7,0.2,1.3,0.5,1.7
				c0.4,0.4,0.8,0.6,1.4,0.6c0.4,0,0.8,0,1-0.1c0.3-0.1,0.5-0.2,0.6-0.3v-1.7h-1.6v-1.3h3.4V35.3z"/>
			<polygon fill="#2A285E" points="113.1,32.6 109.4,32.6 109.4,35.3 113.8,35.3 113.8,36.7 107.6,36.7 107.6,27.5 113.8,27.5
				113.8,28.9 109.4,28.9 109.4,31.2 113.1,31.2 			"/>
			<polygon fill="#2A285E" points="122.4,28.9 119.9,28.9 119.9,36.7 118,36.7 118,28.9 115.5,28.9 115.5,27.5 122.4,27.5 			"/>
			<polygon fill="#2A285E" points="131.5,36.7 129.6,36.7 129.6,32.9 125.9,32.9 125.9,36.7 124.1,36.7 124.1,27.5 125.9,27.5
				125.9,31.4 129.6,31.4 129.6,27.5 131.5,27.5 			"/>
			<polygon fill="#2A285E" points="138.8,32.6 135.1,32.6 135.1,35.3 139.5,35.3 139.5,36.7 133.2,36.7 133.2,27.5 139.4,27.5
				139.4,28.9 135.1,28.9 135.1,31.2 138.8,31.2 			"/>
			<path fill="#2A285E" d="M143,33v3.7h-1.8v-9.2h3.4c1,0,1.8,0.2,2.4,0.7c0.6,0.5,0.9,1.1,0.9,2c0,0.5-0.1,0.9-0.4,1.2
				c-0.2,0.3-0.6,0.6-1.1,0.8c0.5,0.2,0.9,0.4,1.2,0.8c0.2,0.4,0.4,0.8,0.4,1.4v0.7c0,0.3,0,0.5,0.1,0.8c0.1,0.3,0.2,0.5,0.4,0.6
				v0.1h-1.9c-0.2-0.1-0.3-0.4-0.3-0.7c-0.1-0.3-0.1-0.6-0.1-0.9v-0.7c0-0.5-0.1-0.8-0.4-1.1c-0.2-0.3-0.6-0.4-1-0.4H143z M143,31.6
				h1.6c0.5,0,0.9-0.1,1.1-0.3c0.3-0.2,0.4-0.5,0.4-1c0-0.4-0.1-0.8-0.4-1c-0.3-0.2-0.6-0.4-1.1-0.4H143V31.6z"/>
		</g>
		<g>
			<path fill="#48B9C7" d="M89.2,46.9L89.2,46.9c0,1-0.3,1.8-0.9,2.4c-0.6,0.6-1.5,0.9-2.6,0.9c-1.1,0-2-0.4-2.7-1.1
				c-0.7-0.7-1-1.6-1-2.7v-1.8c0-1.1,0.3-2,1-2.7c0.7-0.7,1.6-1.1,2.6-1.1c1.1,0,2,0.3,2.7,0.9c0.6,0.6,1,1.4,0.9,2.4l0,0h-1.8
				c0-0.6-0.1-1.1-0.4-1.4c-0.3-0.3-0.7-0.5-1.4-0.5c-0.6,0-1,0.2-1.3,0.7c-0.3,0.4-0.5,1-0.5,1.7v0.2h2.8v1.4h-2.8v0.2
				c0,0.7,0.2,1.3,0.5,1.7c0.3,0.4,0.8,0.7,1.4,0.7c0.6,0,1-0.2,1.3-0.5c0.3-0.3,0.4-0.8,0.4-1.4H89.2z"/>
			<path fill="#48B9C7" d="M90.3,50v-9.2h3.1c1.1,0,1.9,0.2,2.5,0.6c0.6,0.4,0.9,1.1,0.9,1.9c0,0.4-0.1,0.8-0.3,1.1
				c-0.2,0.3-0.6,0.6-1,0.8c0.6,0.1,1,0.4,1.2,0.8c0.3,0.4,0.4,0.8,0.4,1.3c0,0.9-0.3,1.5-0.9,2c-0.6,0.5-1.4,0.7-2.5,0.7H90.3z
				 M92.1,44.7h1.3c0.5,0,0.9-0.1,1.1-0.3c0.3-0.2,0.4-0.5,0.4-0.9c0-0.4-0.1-0.7-0.4-0.9c-0.3-0.2-0.7-0.3-1.2-0.3h-1.3V44.7z
				 M92.1,45.9v2.6h1.7c0.5,0,0.9-0.1,1.1-0.3c0.3-0.2,0.4-0.5,0.4-0.9c0-0.4-0.1-0.8-0.3-1c-0.2-0.2-0.6-0.4-1-0.4H92.1z"/>
			<path fill="#48B9C7" d="M100.4,46.7V50h-1.8v-9.2h3.7c1.1,0,1.9,0.3,2.5,0.8c0.6,0.5,0.9,1.2,0.9,2.1c0,0.9-0.3,1.6-0.9,2.1
				c-0.6,0.5-1.4,0.8-2.5,0.8H100.4z M100.4,45.2h1.8c0.5,0,0.9-0.1,1.2-0.4c0.3-0.3,0.4-0.6,0.4-1.1c0-0.4-0.1-0.8-0.4-1.1
				c-0.3-0.3-0.7-0.4-1.2-0.4h-1.8V45.2z"/>
			<path fill="#48B9C7" d="M114.4,46.2c0,1.1-0.4,2.1-1.1,2.8c-0.7,0.7-1.6,1.1-2.8,1.1c-1.1,0-2.1-0.4-2.8-1.1
				c-0.7-0.7-1.1-1.7-1.1-2.8v-1.7c0-1.1,0.4-2.1,1.1-2.8c0.7-0.7,1.6-1.1,2.8-1.1c1.1,0,2.1,0.4,2.8,1.1c0.7,0.7,1.1,1.7,1.1,2.8
				V46.2z M112.6,44.6c0-0.7-0.2-1.3-0.5-1.8c-0.4-0.5-0.9-0.7-1.5-0.7c-0.6,0-1.1,0.2-1.5,0.7c-0.3,0.5-0.5,1-0.5,1.8v1.7
				c0,0.7,0.2,1.3,0.5,1.8c0.3,0.5,0.8,0.7,1.5,0.7c0.6,0,1.1-0.2,1.5-0.7c0.4-0.5,0.5-1.1,0.5-1.8V44.6z"/>
			<path fill="#48B9C7" d="M123.3,50h-1.8v-7.8h-3.8V50h-1.8v-9.2h7.4V50z"/>
			<path fill="#48B9C7" d="M130.7,46h-3.8v2.6h4.5V50H125v-9.2h6.3v1.4h-4.4v2.3h3.8V46z"/>
			<path fill="#48B9C7" d="M138,40.8h1.9V50H138v-6.1l0,0l-3.7,6.1h-1.8v-9.2h1.8v6.1l0,0L138,40.8z M138.3,38L138.3,38
				c0,0.6-0.2,1-0.5,1.3c-0.4,0.3-0.9,0.5-1.6,0.5c-0.7,0-1.2-0.2-1.6-0.5c-0.4-0.3-0.6-0.8-0.6-1.3l0,0h1.3c0,0.2,0.1,0.4,0.2,0.5
				c0.1,0.1,0.3,0.2,0.6,0.2c0.3,0,0.5-0.1,0.6-0.2c0.1-0.1,0.2-0.3,0.2-0.5H138.3z"/>
			<path fill="#48B9C7" d="M148.5,46.9L148.5,46.9c0,1-0.3,1.8-0.9,2.4c-0.6,0.6-1.5,0.9-2.6,0.9c-1.1,0-2-0.4-2.7-1.1
				c-0.7-0.7-1-1.6-1-2.7v-1.8c0-1.1,0.3-2,1-2.7c0.7-0.7,1.6-1.1,2.6-1.1c1.1,0,2,0.3,2.7,0.9c0.6,0.6,1,1.4,0.9,2.4l0,0h-1.8
				c0-0.6-0.1-1.1-0.4-1.4c-0.3-0.3-0.7-0.5-1.4-0.5c-0.6,0-1,0.2-1.3,0.7c-0.3,0.4-0.5,1-0.5,1.7v1.8c0,0.7,0.2,1.3,0.5,1.7
				c0.3,0.4,0.8,0.7,1.4,0.7c0.6,0,1-0.2,1.3-0.5c0.3-0.3,0.4-0.8,0.4-1.4H148.5z"/>
			<path fill="#48B9C7" d="M151.6,44.2h1.6c1.1,0,1.9,0.3,2.5,0.8c0.6,0.5,0.9,1.2,0.9,2.1c0,0.9-0.3,1.6-0.9,2.1
				c-0.6,0.5-1.5,0.8-2.5,0.8h-3.4v-9.2h1.8V44.2z M151.6,45.6v3h1.6c0.5,0,0.9-0.1,1.2-0.4c0.3-0.3,0.4-0.7,0.4-1.1
				c0-0.4-0.1-0.8-0.4-1c-0.3-0.3-0.7-0.4-1.2-0.4H151.6z"/>
			<path fill="#48B9C7" d="M160.8,46.2h-1V50h-1.8v-9.2h1.8v3.8h0.8l2.4-3.8h2.3l-3.1,4.3l3.3,4.9h-2.2L160.8,46.2z"/>
			<path fill="#48B9C7" d="M171.8,40.8h1.9V50h-1.9v-6.1l0,0l-3.7,6.1h-1.8v-9.2h1.8v6.1l0,0L171.8,40.8z"/>
			<path fill="#48B9C7" d="M181.1,40.8h1.9V50h-1.9v-6.1l0,0l-3.7,6.1h-1.8v-9.2h1.8v6.1l0,0L181.1,40.8z M181.4,38L181.4,38
				c0,0.6-0.2,1-0.5,1.3c-0.4,0.3-0.9,0.5-1.6,0.5c-0.7,0-1.2-0.2-1.6-0.5c-0.4-0.3-0.6-0.8-0.6-1.3l0,0h1.3c0,0.2,0.1,0.4,0.2,0.5
				c0.1,0.1,0.3,0.2,0.6,0.2c0.3,0,0.5-0.1,0.6-0.2c0.1-0.1,0.2-0.3,0.2-0.5H181.4z"/>
			<path fill="#48B9C7" d="M89.6,63.5h-1.8v-7.8H84v7.8h-1.8v-9.2h7.4V63.5z"/>
			<path fill="#48B9C7" d="M93.2,60.1v3.3h-1.8v-9.2H95c1.1,0,1.9,0.3,2.5,0.8c0.6,0.5,0.9,1.2,0.9,2.1c0,0.9-0.3,1.6-0.9,2.1
				c-0.6,0.5-1.4,0.8-2.5,0.8H93.2z M93.2,58.7H95c0.5,0,0.9-0.1,1.2-0.4c0.3-0.3,0.4-0.6,0.4-1.1c0-0.4-0.1-0.8-0.4-1.1
				c-0.3-0.3-0.7-0.4-1.2-0.4h-1.8V58.7z"/>
			<path fill="#48B9C7" d="M107.1,59.7c0,1.1-0.4,2.1-1.1,2.8c-0.7,0.7-1.6,1.1-2.8,1.1c-1.1,0-2.1-0.4-2.8-1.1
				c-0.7-0.7-1.1-1.7-1.1-2.8V58c0-1.1,0.4-2.1,1.1-2.8c0.7-0.7,1.6-1.1,2.8-1.1c1.1,0,2.1,0.4,2.8,1.1c0.7,0.7,1.1,1.7,1.1,2.8
				V59.7z M105.3,58c0-0.7-0.2-1.3-0.5-1.8c-0.4-0.5-0.9-0.7-1.5-0.7c-0.6,0-1.1,0.2-1.5,0.7c-0.3,0.5-0.5,1-0.5,1.8v1.7
				c0,0.7,0.2,1.3,0.5,1.8c0.3,0.5,0.8,0.7,1.5,0.7c0.6,0,1.1-0.2,1.5-0.7c0.4-0.5,0.5-1.1,0.5-1.8V58z"/>
			<path fill="#48B9C7" d="M115.5,60.3L115.5,60.3c0,1-0.3,1.8-0.9,2.4c-0.6,0.6-1.5,0.9-2.6,0.9c-1.1,0-2-0.4-2.7-1.1
				c-0.7-0.7-1-1.6-1-2.7V58c0-1.1,0.3-2,1-2.7c0.7-0.7,1.6-1.1,2.6-1.1c1.1,0,2,0.3,2.7,0.9c0.6,0.6,1,1.4,0.9,2.4l0,0h-1.8
				c0-0.6-0.1-1.1-0.4-1.4c-0.3-0.3-0.7-0.5-1.4-0.5c-0.6,0-1,0.2-1.3,0.7c-0.3,0.4-0.5,1-0.5,1.7v1.8c0,0.7,0.2,1.3,0.5,1.7
				c0.3,0.4,0.8,0.7,1.4,0.7c0.6,0,1-0.2,1.3-0.5c0.3-0.3,0.4-0.8,0.4-1.4H115.5z"/>
			<path fill="#48B9C7" d="M123,55.7h-2.6v7.8h-1.8v-7.8H116v-1.4h7V55.7z"/>
			<path fill="#48B9C7" d="M126,63.5h-1.8v-9.2h1.8V63.5z"/>
			<path fill="#48B9C7" d="M129.7,60.1v3.3h-1.8v-9.2h3.7c1.1,0,1.9,0.3,2.5,0.8c0.6,0.5,0.9,1.2,0.9,2.1c0,0.9-0.3,1.6-0.9,2.1
				c-0.6,0.5-1.4,0.8-2.5,0.8H129.7z M129.7,58.7h1.8c0.5,0,0.9-0.1,1.2-0.4c0.3-0.3,0.4-0.6,0.4-1.1c0-0.4-0.1-0.8-0.4-1.1
				c-0.3-0.3-0.7-0.4-1.2-0.4h-1.8V58.7z"/>
		</g>
	</g>
</g>
</svg>
