<?xml version="1.0" encoding="utf-8"?>
<!-- Generator: Adobe Illustrator 17.1.0, SVG Export Plug-In . SVG Version: 6.00 Build 0)  -->
<!DOCTYPE svg PUBLIC "-//W3C//DTD SVG 1.1//EN" "http://www.w3.org/Graphics/SVG/1.1/DTD/svg11.dtd">
<svg version="1.1" id="Layer_1" xmlns="http://www.w3.org/2000/svg" xmlns:xlink="http://www.w3.org/1999/xlink" x="0px" y="0px"
	 viewBox="0 0 62.7 27" enable-background="new 0 0 62.7 27" xml:space="preserve">
<g>
	<g>
		<path fill-rule="evenodd" clip-rule="evenodd" fill="#FDB913" d="M17.5,10.4c0.4,0.4,0.9,0.8,1.3,1.3c1,0.9,2,1.7,3.3,2.4
			c2,1.1,4.5,1.8,7.8,1.8v3.6c-5.1,0-8.5-1.3-11.1-3.1c-1.1-0.7-2-1.5-2.9-2.4c-0.3-0.3-0.6-0.6-0.9-0.9
			C15.8,12.2,16.6,11.3,17.5,10.4z M0,1.5c7.9,0,11.7,3,14.9,6.2c-0.9,0.9-1.7,1.8-2.6,2.6C9.5,7.6,6.2,5.1,0,5.1V1.5z"/>
		<path fill-rule="evenodd" clip-rule="evenodd" fill="#ED1C24" d="M18.7,16.4c-0.4,0.4-0.8,0.8-1.2,1.2c-0.9,0.9-1.7,1.8-2.6,2.7
			c-3.2,3.3-7,6.4-14.9,6.4v-3.6c6.2,0,9.4-2.5,12.3-5.5c0.9-0.9,1.7-1.8,2.6-2.6c0.3-0.3,0.6-0.6,0.9-0.9
			C16.7,14.9,17.7,15.7,18.7,16.4z M29.8,8.7v3.6c-3.3,0-5.8,0.7-7.8,1.8c-1.2-0.7-2.3-1.5-3.3-2.4C21.4,9.9,24.8,8.7,29.8,8.7z"/>
		<path fill-rule="evenodd" clip-rule="evenodd" fill="#002661" d="M14,14c0.3,0.3,0.6,0.6,0.9,0.9c-0.9,0.9-1.7,1.8-2.6,2.6
			c-0.4-0.4-0.8-0.8-1.2-1.2c-1-0.9-2.1-1.7-3.3-2.4c-2-1.1-4.5-1.8-7.8-1.8V8.7c5,0,8.4,1.2,11,3C12.1,12.4,13.1,13.2,14,14z
			 M17.5,17.6c2.9,2.9,6.1,5.5,12.3,5.5v3.6c-7.9,0-11.7-3.1-14.9-6.4C15.8,19.4,16.6,18.5,17.5,17.6z"/>
		<path fill-rule="evenodd" clip-rule="evenodd" fill="#16BECF" d="M29.8,1.5v3.6c-6.2,0-9.5,2.4-12.3,5.3c-0.9,0.9-1.7,1.8-2.6,2.7
			c-0.3,0.3-0.6,0.6-0.9,0.9c-0.9-0.8-1.8-1.6-2.9-2.4c0.4-0.4,0.9-0.8,1.3-1.3c0.9-0.9,1.7-1.8,2.6-2.6C18.1,4.5,22,1.5,29.8,1.5z
			 M11.1,16.4c-2.6,1.8-6,3.1-11.1,3.1v-3.6c3.3,0,5.8-0.7,7.8-1.8C9,14.7,10.1,15.5,11.1,16.4z"/>
	</g>
	<path fill-rule="evenodd" clip-rule="evenodd" fill="#002661" d="M57.8,2.5v2c0,0.2,0.1,0.3,0.2,0.3c0.1,0,0.2,0,0.2,0v0.6
		c-0.2,0.1-0.4,0.1-0.5,0.1c-0.4,0-0.6-0.2-0.7-0.5c-0.3,0.3-0.8,0.5-1.4,0.5c-0.4,0-0.7-0.1-0.9-0.3c-0.3-0.2-0.4-0.5-0.4-0.9
		c0-0.4,0.2-0.8,0.5-0.9c0.2-0.1,0.5-0.2,1-0.3l0.8-0.1C56.9,3,57,2.8,57,2.6c0-0.4-0.3-0.5-0.8-0.5c-0.5,0-0.8,0.2-0.9,0.6h-0.9
		c0.1-0.9,0.6-1.3,1.8-1.3c0.4,0,0.8,0.1,1.1,0.3C57.7,1.9,57.8,2.2,57.8,2.5z M57,4.1V3.5c-0.1,0.1-0.3,0.1-0.5,0.2l-0.6,0.1
		c-0.5,0.1-0.7,0.3-0.7,0.7c0,0.2,0.1,0.3,0.3,0.4c0.1,0.1,0.3,0.1,0.5,0.1c0.2,0,0.4-0.1,0.6-0.2C56.9,4.6,57,4.4,57,4.1z
		 M52.7,0.8V0h0.9v0.8H52.7z M52.7,5.4V1.5h0.9v3.9H52.7z M48.5,4.2h0.9c0,0.5,0.3,0.7,0.9,0.7c0.6,0,0.9-0.2,0.9-0.5
		c0-0.2-0.2-0.4-0.7-0.5c-0.7-0.2-1.2-0.3-1.2-0.3c-0.4-0.2-0.7-0.5-0.7-1c0-0.4,0.2-0.7,0.6-0.9c0.3-0.2,0.7-0.2,1.1-0.2
		c0.4,0,0.8,0.1,1.1,0.3c0.3,0.2,0.5,0.5,0.6,0.9H51c-0.1-0.4-0.3-0.5-0.8-0.5c-0.5,0-0.7,0.1-0.7,0.4c0,0.2,0.1,0.3,0.4,0.4
		c0.1,0,0.3,0.1,0.9,0.2c0.4,0.1,0.7,0.2,0.9,0.3C51.9,3.6,52,3.9,52,4.3c0,0.4-0.2,0.8-0.6,1c-0.3,0.2-0.7,0.3-1.2,0.3
		c-0.5,0-0.9-0.1-1.2-0.3C48.7,5,48.5,4.6,48.5,4.2z M47.8,2.5v2c0,0.2,0.1,0.3,0.2,0.3c0.1,0,0.2,0,0.2,0v0.6
		c-0.2,0.1-0.4,0.1-0.5,0.1c-0.4,0-0.6-0.2-0.7-0.5c-0.3,0.3-0.8,0.5-1.4,0.5c-0.4,0-0.7-0.1-0.9-0.3c-0.3-0.2-0.4-0.5-0.4-0.9
		c0-0.4,0.2-0.8,0.5-0.9c0.2-0.1,0.5-0.2,1-0.3l0.8-0.1C46.9,3,47,2.8,47,2.6c0-0.4-0.3-0.5-0.8-0.5c-0.5,0-0.8,0.2-0.9,0.6h-0.9
		c0.1-0.9,0.6-1.3,1.8-1.3c0.4,0,0.8,0.1,1.1,0.3C47.6,1.9,47.8,2.2,47.8,2.5z M46.9,4.1V3.5c-0.1,0.1-0.3,0.1-0.5,0.2l-0.6,0.1
		c-0.5,0.1-0.7,0.3-0.7,0.7c0,0.2,0.1,0.3,0.3,0.4c0.1,0.1,0.3,0.1,0.5,0.1c0.2,0,0.4-0.1,0.6-0.2C46.8,4.6,46.9,4.4,46.9,4.1z
		 M41.8,5.4V1.5h0.8v0.8c0.1-0.2,0.2-0.4,0.4-0.6c0.2-0.2,0.5-0.3,0.7-0.3c0.1,0,0.2,0,0.3,0v0.8c-0.2,0-0.3,0-0.4,0
		c-0.3,0-0.6,0.1-0.8,0.4c-0.2,0.2-0.3,0.6-0.3,1v1.9H41.8z M40.9,1.5v3.9H40V4.9c-0.1,0.2-0.3,0.4-0.5,0.5
		c-0.2,0.1-0.4,0.2-0.6,0.2c-1,0-1.5-0.5-1.5-1.5V1.5h0.9v2.4c0,0.6,0.3,0.9,0.8,0.9c0.6,0,1-0.4,1-1.1V1.5H40.9z M33.9,3.1h2
		c0-0.3-0.1-0.5-0.3-0.7c-0.2-0.2-0.4-0.3-0.7-0.3c-0.3,0-0.5,0.1-0.7,0.3C34,2.6,33.9,2.8,33.9,3.1z M36.8,3.7h-2.9
		c0,0.3,0.1,0.6,0.3,0.8c0.2,0.2,0.5,0.4,0.8,0.4c0.5,0,0.8-0.2,1-0.7h0.8c-0.1,0.4-0.3,0.8-0.6,1c-0.3,0.2-0.7,0.4-1.2,0.4
		c-0.6,0-1.1-0.2-1.4-0.6C33.2,4.6,33,4.1,33,3.5c0-0.6,0.2-1.1,0.5-1.5c0.4-0.4,0.8-0.6,1.4-0.6c0.6,0,1,0.2,1.4,0.6
		c0.3,0.4,0.5,0.8,0.5,1.4C36.8,3.5,36.8,3.6,36.8,3.7z M52,12.6V7.1h0.9v5.4H52z M51.1,9.7v2c0,0.2,0.1,0.3,0.2,0.3
		c0.1,0,0.2,0,0.2,0v0.6c-0.2,0.1-0.4,0.1-0.5,0.1c-0.4,0-0.6-0.2-0.7-0.5c-0.3,0.3-0.8,0.5-1.4,0.5c-0.4,0-0.7-0.1-0.9-0.3
		c-0.3-0.2-0.4-0.5-0.4-0.9c0-0.4,0.2-0.8,0.5-0.9c0.2-0.1,0.5-0.2,1-0.3l0.8-0.1c0.2-0.1,0.4-0.2,0.4-0.4c0-0.4-0.3-0.5-0.8-0.5
		c-0.5,0-0.8,0.2-0.9,0.6h-0.9c0.1-0.9,0.6-1.3,1.8-1.3c0.4,0,0.8,0.1,1.1,0.3C50.9,9,51.1,9.3,51.1,9.7z M50.2,11.3v-0.6
		c-0.1,0.1-0.3,0.1-0.5,0.2l-0.6,0.1c-0.5,0.1-0.7,0.3-0.7,0.7c0,0.2,0.1,0.3,0.3,0.4C48.8,12,49,12,49.2,12c0.2,0,0.4-0.1,0.6-0.2
		C50.1,11.7,50.2,11.5,50.2,11.3z M45.9,8V7.1h0.9V8H45.9z M45.9,12.6V8.6h0.9v3.9H45.9z M45.2,10h-0.9c-0.1-0.5-0.4-0.7-0.9-0.7
		c-0.3,0-0.5,0.1-0.7,0.3c-0.2,0.2-0.4,0.6-0.4,1.2c0,0.4,0.1,0.7,0.2,0.9c0.2,0.3,0.5,0.4,0.8,0.4c0.3,0,0.5-0.1,0.6-0.2
		c0.2-0.2,0.3-0.4,0.3-0.7h0.9c-0.2,1.1-0.8,1.6-1.8,1.6c-0.6,0-1.1-0.2-1.4-0.6c-0.3-0.4-0.5-0.8-0.5-1.4c0-0.6,0.2-1.1,0.5-1.5
		c0.3-0.4,0.8-0.6,1.5-0.6c0.5,0,0.9,0.1,1.2,0.4C45,9.1,45.2,9.5,45.2,10z M39,12.7c-0.6,0-1.1-0.2-1.5-0.6
		c-0.3-0.4-0.5-0.9-0.5-1.5c0-0.6,0.2-1.1,0.5-1.5c0.4-0.4,0.8-0.6,1.5-0.6c0.6,0,1.1,0.2,1.5,0.6c0.3,0.4,0.5,0.9,0.5,1.5
		c0,0.6-0.2,1.1-0.5,1.5C40.1,12.5,39.6,12.7,39,12.7z M39,12c0.4,0,0.7-0.1,0.9-0.4c0.2-0.3,0.3-0.6,0.3-1c0-0.4-0.1-0.7-0.3-0.9
		c-0.2-0.3-0.5-0.4-0.9-0.4c-0.4,0-0.7,0.1-0.9,0.4c-0.2,0.3-0.3,0.6-0.3,0.9c0,0.4,0.1,0.7,0.3,1C38.3,11.9,38.6,12,39,12z
		 M33,11.3h0.9c0,0.5,0.3,0.7,0.9,0.7c0.6,0,0.9-0.2,0.9-0.5c0-0.2-0.2-0.4-0.7-0.5c-0.7-0.2-1.2-0.3-1.2-0.3
		c-0.4-0.2-0.7-0.5-0.7-1c0-0.4,0.2-0.7,0.6-0.9c0.3-0.2,0.7-0.2,1.1-0.2c0.4,0,0.8,0.1,1.1,0.3c0.3,0.2,0.5,0.5,0.6,0.9h-0.9
		c-0.1-0.4-0.3-0.5-0.8-0.5c-0.5,0-0.7,0.1-0.7,0.4c0,0.2,0.1,0.3,0.4,0.4c0.1,0,0.3,0.1,0.9,0.2c0.4,0.1,0.7,0.2,0.9,0.3
		c0.3,0.2,0.4,0.5,0.4,0.8c0,0.4-0.2,0.8-0.6,1c-0.3,0.2-0.7,0.3-1.2,0.3c-0.5,0-0.9-0.1-1.2-0.3C33.1,12.1,33,11.8,33,11.3z
		 M55.6,17.4h2c0-0.3-0.1-0.5-0.3-0.7c-0.2-0.2-0.4-0.3-0.7-0.3c-0.3,0-0.5,0.1-0.7,0.3C55.7,16.9,55.6,17.1,55.6,17.4z M58.5,18
		h-2.9c0,0.3,0.1,0.6,0.3,0.8c0.2,0.2,0.5,0.4,0.8,0.4c0.5,0,0.8-0.2,1-0.7h0.8c-0.1,0.4-0.3,0.8-0.6,1c-0.3,0.2-0.7,0.4-1.2,0.4
		c-0.6,0-1.1-0.2-1.4-0.6c-0.3-0.4-0.5-0.9-0.5-1.5c0-0.6,0.2-1.1,0.5-1.5c0.4-0.4,0.8-0.6,1.4-0.6c0.6,0,1,0.2,1.4,0.6
		c0.3,0.4,0.5,0.8,0.5,1.4C58.5,17.8,58.5,17.9,58.5,18z M54.1,15.8v3.7c0,1.2-0.6,1.8-1.9,1.8c-0.5,0-0.8-0.1-1.2-0.3
		c-0.4-0.2-0.6-0.5-0.6-1h0.9c0.1,0.4,0.4,0.6,0.9,0.6c0.7,0,1-0.3,1-1V19c-0.3,0.5-0.7,0.7-1.2,0.7c-0.6,0-1-0.2-1.4-0.6
		c-0.3-0.4-0.4-0.8-0.4-1.5c0-0.6,0.2-1,0.5-1.4c0.3-0.4,0.8-0.6,1.3-0.6c0.6,0,1,0.2,1.2,0.6l0-0.5H54.1z M52.1,19.1
		c0.4,0,0.6-0.1,0.8-0.4c0.2-0.2,0.2-0.6,0.2-0.9c0-0.4-0.1-0.7-0.2-0.9c-0.2-0.3-0.5-0.4-0.8-0.4c-0.4,0-0.6,0.1-0.8,0.4
		c-0.2,0.2-0.2,0.6-0.2,0.9c0,0.4,0.1,0.7,0.2,0.9C51.5,18.9,51.8,19.1,52.1,19.1z M46,19.7v-3.9h0.8v0.6c0.3-0.5,0.7-0.7,1.2-0.7
		c0.4,0,0.8,0.1,1,0.3c0.2,0.2,0.4,0.6,0.4,1v2.7h-0.9v-2.5c0-0.6-0.3-0.9-0.8-0.9c-0.3,0-0.5,0.1-0.7,0.3c-0.2,0.2-0.3,0.4-0.3,0.7
		v2.3H46z M45.1,16.8v2c0,0.2,0.1,0.3,0.2,0.3c0.1,0,0.2,0,0.2,0v0.6c-0.2,0.1-0.4,0.1-0.5,0.1c-0.4,0-0.6-0.2-0.7-0.5
		c-0.3,0.3-0.8,0.5-1.4,0.5c-0.4,0-0.7-0.1-0.9-0.3c-0.3-0.2-0.4-0.5-0.4-0.9c0-0.4,0.2-0.8,0.5-0.9c0.2-0.1,0.5-0.2,1-0.3l0.8-0.1
		c0.2-0.1,0.4-0.2,0.4-0.4c0-0.4-0.3-0.5-0.8-0.5c-0.5,0-0.8,0.2-0.9,0.6h-0.9c0.1-0.9,0.6-1.3,1.8-1.3c0.4,0,0.8,0.1,1.1,0.3
		C44.9,16.2,45.1,16.4,45.1,16.8z M44.2,18.4v-0.6c-0.1,0.1-0.3,0.1-0.5,0.2L43.2,18c-0.5,0.1-0.7,0.3-0.7,0.7
		c0,0.2,0.1,0.3,0.3,0.4c0.1,0.1,0.3,0.1,0.5,0.1c0.2,0,0.4-0.1,0.6-0.2C44.1,18.9,44.2,18.7,44.2,18.4z M37.4,19.7v-5.4h0.9v2
		c0.1-0.2,0.3-0.3,0.5-0.5c0.2-0.1,0.4-0.2,0.7-0.2c0.4,0,0.8,0.1,1,0.3c0.2,0.2,0.4,0.6,0.4,1v2.7H40v-2.5c0-0.6-0.3-0.9-0.8-0.9
		c-0.3,0-0.5,0.1-0.7,0.3c-0.2,0.2-0.3,0.4-0.3,0.7v2.3H37.4z M36.7,17.1h-0.9c-0.1-0.5-0.4-0.7-0.9-0.7c-0.3,0-0.5,0.1-0.7,0.3
		c-0.2,0.2-0.4,0.6-0.4,1.2c0,0.4,0.1,0.7,0.2,0.9c0.2,0.3,0.5,0.4,0.8,0.4c0.3,0,0.5-0.1,0.6-0.2c0.2-0.2,0.3-0.4,0.3-0.7h0.9
		c-0.2,1.1-0.8,1.6-1.8,1.6c-0.6,0-1.1-0.2-1.4-0.6c-0.3-0.4-0.5-0.8-0.5-1.4c0-0.6,0.2-1.1,0.5-1.5c0.3-0.4,0.8-0.6,1.5-0.6
		c0.5,0,0.9,0.1,1.2,0.4C36.5,16.3,36.7,16.7,36.7,17.1z M59.6,24.6h2.5c0-0.4-0.1-0.7-0.3-1c-0.2-0.3-0.5-0.4-0.9-0.4
		c-0.4,0-0.7,0.1-0.9,0.4C59.8,23.9,59.7,24.3,59.6,24.6z M62.6,25h-3c0,0.4,0.1,0.8,0.3,1c0.2,0.3,0.6,0.5,1,0.5
		c0.7,0,1.1-0.3,1.2-1h0.5c-0.2,0.9-0.8,1.4-1.7,1.4c-0.6,0-1-0.2-1.4-0.6c-0.3-0.4-0.4-0.9-0.4-1.5c0-0.6,0.1-1.1,0.4-1.4
		c0.3-0.4,0.8-0.6,1.4-0.6c0.6,0,1,0.2,1.4,0.7C62.5,23.9,62.7,24.4,62.6,25z M56.9,26.9l-1.5-3.9h0.5l1.2,3.5l1.2-3.5h0.5l-1.5,3.9
		H56.9z M54.4,22.2v-0.8h0.5v0.8H54.4z M54.4,26.9v-3.9h0.5v3.9H54.4z M52.9,21.8v1.2h0.8v0.4h-0.8V26c0,0.2,0,0.3,0.1,0.4
		c0.1,0.1,0.2,0.2,0.3,0.2c0.1,0,0.2,0,0.4,0v0.4c0,0-0.1,0-0.2,0c-0.1,0-0.2,0-0.2,0c-0.3,0-0.5-0.1-0.7-0.2
		c-0.1-0.1-0.2-0.4-0.2-0.7v-2.7h-0.7v-0.4h0.7v-1.2H52.9z M51.4,24.2h-0.5c-0.1-0.6-0.5-0.9-1.1-0.9c-0.4,0-0.8,0.2-1,0.5
		c-0.2,0.3-0.3,0.7-0.3,1.2c0,0.5,0.1,0.8,0.3,1.2c0.3,0.4,0.6,0.5,1,0.5c0.3,0,0.6-0.1,0.8-0.3c0.2-0.2,0.3-0.5,0.4-0.8h0.5
		c-0.1,0.5-0.2,0.8-0.5,1.1c-0.3,0.3-0.7,0.4-1.1,0.4c-0.6,0-1-0.2-1.4-0.6C48.1,26,48,25.5,48,24.9c0-0.6,0.2-1.1,0.5-1.5
		c0.3-0.4,0.8-0.6,1.4-0.6c0.4,0,0.8,0.1,1.1,0.3C51.2,23.4,51.4,23.7,51.4,24.2z M44.5,24.6H47c0-0.4-0.1-0.7-0.3-1
		c-0.2-0.3-0.5-0.4-0.9-0.4c-0.4,0-0.7,0.1-0.9,0.4C44.7,23.9,44.5,24.3,44.5,24.6z M47.5,25h-3c0,0.4,0.1,0.8,0.3,1
		c0.2,0.3,0.6,0.5,1,0.5c0.7,0,1.1-0.3,1.2-1h0.5c-0.2,0.9-0.8,1.4-1.7,1.4c-0.6,0-1-0.2-1.4-0.6C44.1,26,44,25.5,44,24.9
		c0-0.6,0.1-1.1,0.4-1.4c0.3-0.4,0.8-0.6,1.4-0.6c0.6,0,1,0.2,1.4,0.7C47.4,23.9,47.5,24.4,47.5,25z M42.8,26.9v-5.4h0.5v5.4H42.8z
		 M41.4,26.9v-5.4h0.5v5.4H41.4z M38.8,23.2c-0.4,0-0.8,0.2-1,0.5c-0.2,0.3-0.3,0.7-0.3,1.2c0,0.5,0.1,0.8,0.3,1.2
		c0.3,0.4,0.6,0.5,1,0.5c0.4,0,0.8-0.2,1-0.5c0.2-0.3,0.3-0.7,0.3-1.2c0-0.5-0.1-0.8-0.3-1.2C39.6,23.4,39.2,23.2,38.8,23.2z
		 M38.8,22.8c0.6,0,1,0.2,1.4,0.6c0.3,0.4,0.5,0.9,0.5,1.5c0,0.6-0.2,1.1-0.5,1.5c-0.3,0.4-0.8,0.6-1.4,0.6c-0.6,0-1-0.2-1.4-0.6
		c-0.3-0.4-0.5-0.9-0.5-1.5c0-0.6,0.2-1.1,0.5-1.5C37.8,23,38.2,22.8,38.8,22.8z M36.4,24.2H36c-0.1-0.6-0.5-0.9-1.1-0.9
		c-0.4,0-0.8,0.2-1,0.5c-0.2,0.3-0.3,0.7-0.3,1.2c0,0.5,0.1,0.8,0.3,1.2c0.3,0.4,0.6,0.5,1,0.5c0.3,0,0.6-0.1,0.8-0.3
		c0.2-0.2,0.3-0.5,0.4-0.8h0.5c-0.1,0.5-0.2,0.8-0.5,1.1c-0.3,0.3-0.7,0.4-1.1,0.4c-0.6,0-1-0.2-1.4-0.6C33.1,26,33,25.5,33,24.9
		c0-0.6,0.2-1.1,0.5-1.5c0.3-0.4,0.8-0.6,1.4-0.6c0.4,0,0.8,0.1,1.1,0.3C36.2,23.4,36.4,23.7,36.4,24.2z"/>
</g>
</svg>
