<?xml version="1.0" encoding="utf-8"?>
<!-- Generator: Adobe Illustrator 17.1.0, SVG Export Plug-In . SVG Version: 6.00 Build 0)  -->
<!DOCTYPE svg PUBLIC "-//W3C//DTD SVG 1.1//EN" "http://www.w3.org/Graphics/SVG/1.1/DTD/svg11.dtd">
<svg version="1.1" id="Layer_1" xmlns="http://www.w3.org/2000/svg" xmlns:xlink="http://www.w3.org/1999/xlink" x="0px" y="0px"
	 viewBox="0 0 78 26.7" enable-background="new 0 0 78 26.7" xml:space="preserve">
<g>
	<polygon fill-rule="evenodd" clip-rule="evenodd" fill="#005596" points="0,16.9 0,16.9 0.1,21.2 0.2,25.2 0.2,25.5 0.3,25.6
		0.4,25.7 0.5,25.8 0.7,25.8 1,25.9 1.9,25.8 3,25.8 3.3,25.7 3.5,25.7 3.6,25.6 3.7,25.5 3.8,25.4 3.8,25.3 3.8,21.6 3.8,18.1
		3.7,13.7 11.1,13.5 11.5,13.5 11.7,13.5 11.9,13.4 12.1,13.3 12.1,13 12.1,12.5 12.1,11.6 12,11 12,10.8 11.8,10.6 11.7,10.5
		11.4,10.5 11.1,10.4 10.6,10.4 7.5,10.6 5.7,10.7 3.7,10.8 3.7,7.3 3.6,3.6 6.5,3.5 9.1,3.4 13,3.4 14.6,3.4 14.7,3.3 14.9,3.3
		15,3.2 15,3 15.1,2.7 15.1,2.1 15,1.1 15,0.7 14.9,0.6 14.8,0.5 14.8,0.4 14.7,0.4 14.4,0.4 12.8,0.4 10,0.4 5.4,0.5 2.4,0.7
		1.6,0.7 1,0.8 0.8,0.8 0.5,0.9 0.4,1 0.3,1.2 0.2,1.5 0.1,2.1 0.1,3.8 0,6 0,8.6 0,13.6 	"/>
	<polygon fill-rule="evenodd" clip-rule="evenodd" fill="#005596" points="57.3,16.3 57.3,16.3 57.4,18.1 57.4,19.4 57.4,20.5
		57.3,21.7 56.7,22 56.2,22.3 55.3,22.8 54.3,23.1 53.5,23.4 52.8,23.5 52.1,23.6 51.4,23.6 50.5,23.6 49.6,23.5 48.7,23.3 47.9,23
		47.1,22.7 46.3,22.2 45.7,21.7 45,21.2 44.5,20.6 44,19.9 43.6,19.2 43.2,18.4 42.9,17.6 42.7,16.8 42.5,15.9 42.4,15 42.4,14.4
		42.4,13.9 42.5,13.3 42.6,12.6 42.8,12 43,11.3 43.2,10.7 43.5,10 43.8,9.4 44.2,8.7 44.6,8.1 45.1,7.5 45.6,6.9 46.3,6.3
		46.9,5.8 47.6,5.2 48.5,4.8 49.4,4.3 50.3,4 51.3,3.7 52.3,3.5 53.4,3.3 54.5,3.2 55.7,3.1 56.5,3.1 57.3,3.2 57.9,3.2 58.6,3.2
		58.9,3.2 59.1,3.1 59.2,3 59.2,2.9 59.3,2.6 59.5,1.5 59.5,1 59.6,0.7 59.5,0.5 59.5,0.4 59.3,0.2 59,0.1 58.2,0 57.4,0 56.4,0
		55.5,0 54.5,0 53.4,0.2 52.4,0.3 51.4,0.5 50.5,0.7 49.6,0.9 48.7,1.2 47.9,1.5 47.1,1.9 46.4,2.2 45.7,2.6 45,3.1 44.3,3.5
		43.7,4 43.2,4.5 42.6,5 42.1,5.6 41.6,6.1 41.2,6.7 40.8,7.3 40.4,7.9 40.1,8.5 39.8,9.1 39.6,9.8 39.4,10.4 39.1,11 39,11.7
		38.9,12.3 38.8,13 38.7,13.6 38.7,14.3 38.7,15 38.7,15.6 38.8,16.2 38.9,16.9 39,17.5 39.2,18.1 39.4,18.6 39.6,19.2 39.8,19.7
		40.1,20.3 40.3,20.8 40.7,21.2 41,21.7 41.3,22.2 41.7,22.6 42.1,23 42.5,23.4 43.3,24.1 44.2,24.7 45.2,25.3 46.2,25.7 47.2,26.1
		47.8,26.2 48.3,26.3 48.9,26.4 49.4,26.4 50,26.4 50.5,26.4 51.2,26.4 51.9,26.4 52.6,26.2 53.2,26.1 53.9,25.9 54.6,25.7
		55.9,25.2 57.1,24.7 57.9,24.4 58.4,24.2 59,24.2 59.9,24 60.3,24 60.6,23.9 60.8,23.8 61,23.7 61,23.5 61.1,23.3 61.2,22.7
		61.2,21.7 61.3,18.7 61.3,15.7 61.3,13.9 61.2,13.7 61.2,13.5 61.1,13.4 61,13.4 60.8,13.3 60.5,13.3 60.2,13.3 56.2,13.5
		52.5,13.7 52.3,13.8 52.3,13.9 52.2,14.2 52.1,14.4 52.1,15 52.1,15.6 52.2,16.1 52.3,16.4 52.3,16.4 52.4,16.5 52.5,16.6
		52.8,16.6 55,16.5 	"/>
	<polygon fill-rule="evenodd" clip-rule="evenodd" fill="#005596" points="15.9,15 15.9,15 15.9,15.7 16,16.3 16.1,17 16.2,17.6
		16.4,18.2 16.6,18.8 16.8,19.4 17,19.9 17.3,20.4 17.6,21 17.9,21.5 18.2,21.9 18.6,22.4 19,22.8 19.4,23.3 19.8,23.6 20.2,24
		20.7,24.4 21.1,24.7 21.6,25 22.1,25.3 22.6,25.5 23.1,25.8 23.7,26 24.2,26.1 24.7,26.3 25.3,26.4 25.9,26.5 26.4,26.6 27,26.6
		27.6,26.7 28.2,26.6 29.5,26.5 30.1,26.5 30.7,26.4 31.4,26.2 32.1,26 34,25.3 34.9,24.8 35.4,24.6 35.7,24.3 36,24.1 36.2,23.8
		36.3,23.6 36.4,23.4 36.3,23.1 36.1,22.6 35.8,22.1 35.7,21.8 35.5,21.6 35.3,21.4 35.2,21.3 35.1,21.3 34.8,21.5 34.2,21.8
		33.5,22.2 32.8,22.5 32.2,22.8 31.5,23.1 30.8,23.3 30.2,23.4 29.4,23.5 28.6,23.6 27.8,23.5 27,23.4 26.2,23.3 25.4,23 24.7,22.7
		24,22.3 23.3,21.9 22.7,21.3 22.1,20.8 21.5,20.1 21.1,19.4 20.7,18.6 20.3,17.8 20.1,16.9 19.9,15.9 19.8,14.8 19.8,13.9
		19.9,13.1 20,12.3 20.2,11.5 20.5,10.8 20.8,10 21.1,9.3 21.5,8.6 22,8 22.4,7.4 23,6.9 23.5,6.4 24.2,5.9 24.8,5.4 25.4,5
		26.1,4.7 26.6,4.4 27.2,4.2 27.9,3.9 28.7,3.8 29.6,3.6 30.6,3.5 31.8,3.3 33.2,3.3 34.6,3.3 35.5,3.3 35.8,3.2 36.1,3.2 36.2,3.1
		36.3,3 36.4,2.9 36.5,2.8 36.5,2.5 36.3,0.7 36.2,0.5 36.1,0.4 35.8,0.3 35.4,0.2 35,0.2 34.4,0.2 33,0.2 31.3,0.3 30.2,0.4
		29.1,0.5 27.9,0.8 26.6,1.1 25.9,1.3 25.2,1.6 24.6,1.8 23.9,2.2 22.9,2.6 22.1,3.2 21.2,3.8 20.5,4.4 19.8,5.1 19.1,5.8 18.5,6.6
		17.9,7.4 17.4,8.2 17,9.1 16.6,10 16.4,10.9 16.1,11.9 15.9,12.9 15.9,13.9 	"/>
	<path fill-rule="evenodd" clip-rule="evenodd" fill="#FFCB05" d="M78,18.4c0,2.8-2.3,5.2-5.2,5.2c-2.8,0-5.2-2.3-5.2-5.2
		c0-2.8,2.3-5.2,5.2-5.2C75.7,13.2,78,15.5,78,18.4"/>
</g>
</svg>
