<?xml version="1.0" encoding="UTF-8"?><svg id="Layer_1" xmlns="http://www.w3.org/2000/svg" viewBox="0 0 151.64 65.98"><defs><style>.cls-1{fill:#fff;}</style></defs><polygon class="cls-1" points="39.64 36.45 39.64 35.85 35.94 35.85 35.94 41.65 39.74 41.65 39.74 41.05 36.64 41.05 36.64 38.95 39.34 38.95 39.34 38.35 36.64 38.35 36.64 36.45 39.64 36.45"/><path class="cls-1" d="m42.64,41.75c.7,0,1.2-.2,1.6-.5.4-.3.6-.8.6-1.4v-3.9h-.8v3.9c0,.4-.1.8-.4,1-.3.2-.6.3-1,.3s-.7-.1-1-.3-.4-.6-.4-1v-3.9h-.8v3.9c0,.6.2,1.1.6,1.4s1,.5,1.6.5Z"/><path class="cls-1" d="m49.54,35.85h-.9l-2.7,4v.4h2.7v1.3h.8v-1.3h.8v-.6h-.8v-3.8h.1Zm-.8,3.8h-1.8l1.7-2.5.1-.2h0v2.7Z"/><path class="cls-1" d="m55.44,39.85h-.8c0,.4-.1.7-.4,1-.2.2-.6.4-1,.4s-.8-.2-1-.5c-.3-.3-.4-.8-.4-1.3v-1c0-.5.1-.9.4-1.3.3-.3.6-.5,1-.5s.8.1,1,.4c.2.2.4.6.4,1h.7c0-.6-.2-1-.6-1.4-.4-.3-.9-.5-1.5-.5s-1.2.2-1.6.7c-.4.5-.6,1-.6,1.8v1c0,.7.2,1.3.6,1.8.4.5.9.7,1.6.7.6,0,1.2-.2,1.5-.5.5-.8.7-1.3.7-1.8Z"/><rect class="cls-1" x="56.54" y="35.85" width=".8" height="5.7"/><polygon class="cls-1" points="61.04 40.65 60.94 40.65 60.84 40.25 59.34 35.85 58.54 35.85 60.64 41.65 61.34 41.65 63.44 35.85 62.64 35.85 61.14 40.25 61.04 40.65"/><rect class="cls-1" x="64.64" y="35.85" width=".8" height="5.7"/><polygon class="cls-1" points="68.04 35.85 67.24 35.85 67.24 41.65 70.74 41.65 70.74 41.05 68.04 41.05 68.04 35.85"/><path class="cls-1" d="m37.94,47.25c-.5-.1-.9-.3-1.1-.4-.2-.2-.3-.4-.3-.6,0-.3.1-.5.3-.7s.5-.3.9-.3.7.1,1,.3c.2.2.3.5.3.8h.7c0-.5-.2-.9-.5-1.2-.4-.3-.9-.5-1.5-.5s-1.1.1-1.4.4c-.4.3-.5.7-.5,1.1s.2.8.5,1.1.8.5,1.4.6c.5.1.9.3,1,.4.2.2.3.4.3.7s-.1.5-.3.7-.5.2-.9.2-.7-.1-1-.3-.4-.5-.4-.8h-.7c0,.5.2.9.6,1.2.4.3.9.5,1.5.5s1.1-.1,1.5-.4c.4-.3.6-.7.6-1.1s-.2-.8-.5-1.1c-.4-.3-.9-.5-1.5-.6Z"/><path class="cls-1" d="m42.74,44.55c-.6,0-1.1.2-1.5.7s-.6,1-.6,1.7v1c0,.7.2,1.3.6,1.7.4.5.9.7,1.5.7s1.2-.2,1.6-.7c.4-.5.6-1,.6-1.7v-1c0-.7-.2-1.3-.6-1.7-.5-.4-1-.7-1.6-.7Zm1.4,3.5c0,.5-.1,1-.4,1.3s-.6.5-1.1.5c-.4,0-.8-.2-1-.5s-.4-.8-.4-1.3v-1c0-.5.1-1,.4-1.3.2-.3.6-.5,1-.5s.8.2,1.1.5.4.8.4,1.3v1Z"/><path class="cls-1" d="m46.94,45.75c.3-.3.6-.5,1-.5s.8.1,1,.4c.2.2.4.6.4,1h.7c0-.6-.2-1-.6-1.4-.4-.3-.9-.5-1.5-.5s-1.2.2-1.6.7c-.4.5-.6,1-.6,1.8v1c0,.7.2,1.3.6,1.8.4.5.9.7,1.6.7.6,0,1.2-.2,1.5-.5.4-.4.6-.8.6-1.4h-.7c0,.4-.1.7-.4,1-.2.2-.6.4-1,.4s-.8-.2-1-.5c-.3-.3-.4-.8-.4-1.3v-1c0-.9.1-1.4.4-1.7Z"/><rect class="cls-1" x="51.44" y="44.65" width=".8" height="5.7"/><polygon class="cls-1" points="54.44 47.75 57.14 47.75 57.14 47.15 54.44 47.15 54.44 45.25 57.44 45.25 57.44 44.65 53.74 44.65 53.74 50.45 57.54 50.45 57.54 49.85 54.44 49.85 54.44 47.75"/><polygon class="cls-1" points="58.24 45.25 60.14 45.25 60.14 50.45 60.84 50.45 60.84 45.25 62.74 45.25 62.74 44.65 58.24 44.65 58.24 45.25"/><polygon class="cls-1" points="65.84 47.55 64.34 44.65 63.44 44.65 65.44 48.35 65.44 50.45 66.14 50.45 66.14 48.35 68.24 44.65 67.34 44.65 65.84 47.55"/><path class="cls-1" d="m30.84,33.15c-.3-.1-.7-.2-1.1-.2H.74c-.1,0-.3,0-.4.1-.3.2-.4.5-.3.8,0,.1.1.2.2.3l4.3,4.3c2.2,2.2,5.3,3.5,8.4,3.5h11.1v6.9h0v4.2c0,3.2,1.3,6.2,3.5,8.4l4.3,4.3c.5.5,1.2.1,1.2-.5v-29c0-1.4-.9-2.6-2.2-3.1Z"/><path class="cls-1" d="m36.34,32.95h29.3c.4-.1.6-.6.4-.9,0-.1-.1-.2-.2-.2l-4.3-4.3c-.6-.6-1.2-1.1-1.8-1.5-.5-.3-1-.6-1.5-.8-1.6-.7-3.3-1.2-5.1-1.2h-11.1v-6.9h0v-4.2c0-3.2-1.3-6.2-3.5-8.4L34.24.25c-.4-.5-1.2-.2-1.2.4v29c0,1.3.8,2.4,1.9,3,.4.2.9.3,1.4.3Z"/><polygon class="cls-1" points="84.34 41.05 88.14 41.05 88.14 39.65 84.34 39.65 84.34 37.35 88.84 37.35 88.84 35.95 82.44 35.95 82.44 45.15 88.84 45.15 88.84 43.75 84.34 43.75 84.34 41.05"/><path class="cls-1" d="m95.34,42.05c0,.6-.2,1.1-.5,1.4-.3.3-.8.4-1.4.4s-1-.2-1.3-.5-.5-.8-.5-1.4v-6h-1.9v6.1c0,1,.3,1.8,1,2.4.7.6,1.6.8,2.7.8s2-.3,2.7-.8c.7-.6,1-1.4,1-2.4v-6.1h-1.9v6.1h.1Z"/><path class="cls-1" d="m102.54,35.95h-3.7v9.2h1.9v-3.3h1.8c1.1,0,1.9-.3,2.5-.8s.9-1.2.9-2.1-.3-1.6-.9-2.1c-.6-.7-1.4-.9-2.5-.9Zm1.2,4c-.3.3-.7.4-1.2.4h-1.8v-3h1.8c.5,0,.9.1,1.2.4s.4.7.4,1.1-.2.8-.4,1.1Z"/><path class="cls-1" d="m114.24,43.55v-.7c0-.6-.1-1-.4-1.4-.2-.4-.6-.6-1.2-.8.5-.2.8-.5,1.1-.8.2-.3.4-.8.4-1.2,0-.9-.3-1.5-.9-2s-1.4-.7-2.5-.7h-3.5v9.2h1.9v-3.7h1.8c.5,0,.8.1,1.1.4.3.3.4.6.4,1.1v.7c0,.3,0,.6.1.9.1.3.2.5.3.7h1.9v-.1c-.2-.1-.3-.3-.4-.6-.1-.5-.1-.7-.1-1Zm-2.3-3.9c-.3.2-.6.3-1.2.3h-1.6v-2.7h1.6c.5,0,.9.1,1.1.4.3.2.4.6.4,1,.1.5,0,.8-.3,1Z"/><path class="cls-1" d="m119.44,35.75c-1.1,0-2.1.4-2.8,1.1-.7.7-1.1,1.7-1.1,2.8v1.7c0,1.1.4,2.1,1.1,2.8s1.6,1.1,2.8,1.1c1.1,0,2.1-.4,2.8-1.1.7-.7,1.1-1.7,1.1-2.8v-1.7c0-1.1-.4-2.1-1.1-2.8-.7-.7-1.6-1.1-2.8-1.1Zm2,5.6c0,.7-.2,1.3-.5,1.8-.4.5-.9.7-1.5.7s-1.1-.2-1.5-.7-.5-1.1-.5-1.8v-1.7c0-.7.2-1.3.5-1.8s.8-.7,1.5-.7c.6,0,1.1.2,1.5.7s.5,1.1.5,1.8v1.7Z"/><path class="cls-1" d="m128.54,39.75c-.7-.2-1.2-.4-1.5-.6-.3-.2-.4-.5-.4-.8s.1-.6.4-.8.7-.3,1.1-.3c.5,0,.9.1,1.2.4.3.3.4.6.4,1h1.8c0-.8-.3-1.5-.9-2-.6-.5-1.5-.8-2.5-.8s-1.8.2-2.5.7c-.6.5-1,1.1-1,1.9s.3,1.4.8,1.8c.6.4,1.4.8,2.5,1.1.6.2,1.1.4,1.3.6.3.2.4.5.4.9,0,.3-.1.6-.4.8s-.7.3-1.2.3c-.6,0-1.1-.1-1.4-.4-.3-.3-.5-.7-.5-1.2h-1.8c0,.9.3,1.7,1.1,2.2.7.5,1.6.8,2.6.8s1.8-.2,2.5-.7c.6-.5.9-1.1.9-1.9s-.3-1.4-.8-1.8c-.3-.5-1.1-.9-2.1-1.2Z"/><polygon class="cls-1" points="132.34 37.35 134.94 37.35 134.94 45.15 136.84 45.15 136.84 37.35 139.44 37.35 139.44 35.95 132.34 35.95 132.34 37.35"/><rect class="cls-1" x="140.54" y="35.95" width="1.9" height="9.2"/><path class="cls-1" d="m151.24,44.35c-.1-.3-.1-.6-.1-.8v-.7c0-.6-.1-1-.4-1.4-.2-.4-.6-.6-1.2-.8.5-.2.8-.5,1.1-.8.2-.3.4-.8.4-1.2,0-.9-.3-1.5-.9-2-.6-.5-1.4-.7-2.5-.7h-3.5v9.2h1.9v-3.7h1.8c.5,0,.8.1,1.1.4.3.3.4.6.4,1.1v.7c0,.3,0,.6.1.9.1.3.2.5.3.7h1.9v-.1c-.2-.3-.3-.5-.4-.8Zm-2.4-4.7c-.3.2-.6.3-1.2.3h-1.6v-2.7h1.6c.5,0,.9.1,1.1.4.3.2.4.6.4,1,.1.5,0,.8-.3,1Z"/></svg>