<?xml version="1.0" encoding="utf-8"?>
<!-- Generator: Adobe Illustrator 27.4.0, SVG Export Plug-In . SVG Version: 6.00 Build 0)  -->
<svg version="1.1" id="Layer_1" xmlns="http://www.w3.org/2000/svg" xmlns:xlink="http://www.w3.org/1999/xlink" x="0px" y="0px"
	 viewBox="0 0 183.7 66" style="enable-background:new 0 0 183.7 66;" xml:space="preserve">
<style type="text/css">
	.st0{fill:#48B9C7;}
	.st1{clip-path:url(#SVGID_00000147915942364543776470000009374530925064216705_);fill:#95BBE4;}
	.st2{fill:#542E91;}
	.st3{fill:#F06098;}
	.st4{clip-path:url(#SVGID_00000175304826050697233910000003916965680323537852_);fill:#95BBE4;}
</style>
<g>
	<g>
		<polygon class="st0" points="39.3,39 36.6,39 36.6,41.1 39.7,41.1 39.7,41.7 35.9,41.7 35.9,35.9 39.6,35.9 39.6,36.5 36.6,36.5 
			36.6,38.4 39.3,38.4 		"/>
		<path class="st0" d="M44.8,35.9v3.9c0,0.6-0.2,1.1-0.6,1.4c-0.4,0.3-0.9,0.5-1.6,0.5c-0.6,0-1.1-0.2-1.5-0.5s-0.6-0.8-0.6-1.4
			v-3.9h0.8v3.9c0,0.4,0.1,0.8,0.4,1c0.2,0.2,0.6,0.3,1,0.3s0.8-0.1,1-0.3c0.3-0.2,0.4-0.6,0.4-1v-3.9H44.8z"/>
		<path class="st0" d="M49.5,39.7h0.8v0.6h-0.8v1.3h-0.8v-1.3H46v-0.4l2.7-4h0.9v3.8H49.5z M46.8,39.7h1.8V37l0,0l-0.1,0.2
			L46.8,39.7z"/>
		<path class="st0" d="M55.4,39.8L55.4,39.8c0,0.6-0.2,1-0.6,1.4c-0.4,0.4-0.9,0.5-1.5,0.5s-1.2-0.2-1.6-0.7c-0.4-0.5-0.6-1-0.6-1.8
			v-1c0-0.7,0.2-1.3,0.6-1.8c0.4-0.5,0.9-0.7,1.6-0.7c0.6,0,1.2,0.2,1.5,0.5c0.4,0.3,0.6,0.8,0.6,1.4l0,0h-0.7c0-0.4-0.1-0.7-0.4-1
			c-0.2-0.2-0.6-0.4-1-0.4s-0.8,0.2-1,0.5c-0.3,0.4-0.4,0.8-0.4,1.3v1c0,0.5,0.1,1,0.4,1.3c0.3,0.3,0.6,0.5,1,0.5s0.8-0.1,1-0.4
			c0.2-0.2,0.4-0.6,0.4-1h0.7V39.8z"/>
		<rect x="56.5" y="35.9" class="st0" width="0.8" height="5.7"/>
		<polygon class="st0" points="60.8,40.2 60.9,40.7 61,40.7 61.1,40.2 62.6,35.9 63.4,35.9 61.3,41.7 60.6,41.7 58.5,35.9 
			59.3,35.9 		"/>
		<rect x="64.6" y="35.9" class="st0" width="0.8" height="5.7"/>
		<polygon class="st0" points="68,41.1 70.7,41.1 70.7,41.7 67.2,41.7 67.2,35.9 68,35.9 		"/>
		<path class="st0" d="M39,49c0-0.3-0.1-0.5-0.3-0.7s-0.5-0.3-1-0.4c-0.6-0.1-1.1-0.4-1.4-0.6c-0.3-0.3-0.5-0.6-0.5-1.1
			c0-0.4,0.2-0.8,0.5-1.1c0.4-0.3,0.8-0.4,1.4-0.4c0.6,0,1.1,0.2,1.5,0.5s0.6,0.7,0.5,1.2l0,0H39c0-0.3-0.1-0.6-0.3-0.8
			s-0.5-0.3-1-0.3c-0.4,0-0.7,0.1-0.9,0.3s-0.3,0.4-0.3,0.7c0,0.2,0.1,0.5,0.3,0.6c0.2,0.2,0.6,0.3,1.1,0.4c0.6,0.1,1.1,0.4,1.4,0.7
			c0.3,0.3,0.5,0.7,0.5,1.1c0,0.5-0.2,0.8-0.6,1.1c-0.4,0.3-0.9,0.4-1.5,0.4s-1.1-0.2-1.5-0.5s-0.7-0.7-0.6-1.2l0,0h0.7
			c0,0.4,0.1,0.6,0.4,0.8c0.3,0.2,0.6,0.3,1,0.3s0.7-0.1,0.9-0.2C38.9,49.5,39,49.3,39,49"/>
		<path class="st0" d="M44.8,48.1c0,0.7-0.2,1.3-0.6,1.7c-0.4,0.5-0.9,0.7-1.6,0.7c-0.6,0-1.1-0.2-1.5-0.7s-0.6-1-0.6-1.7v-1
			c0-0.7,0.2-1.3,0.6-1.7c0.4-0.5,0.9-0.7,1.5-0.7s1.2,0.2,1.6,0.7c0.4,0.5,0.6,1,0.6,1.7V48.1z M44.1,47.1c0-0.5-0.1-1-0.4-1.3
			c-0.3-0.3-0.6-0.5-1.1-0.5c-0.4,0-0.8,0.2-1,0.5s-0.4,0.8-0.4,1.3v1c0,0.5,0.1,1,0.4,1.3c0.2,0.3,0.6,0.5,1,0.5s0.8-0.2,1.1-0.5
			s0.4-0.8,0.4-1.3V47.1z"/>
		<path class="st0" d="M50,48.6L50,48.6c0,0.6-0.2,1-0.6,1.4c-0.4,0.4-0.9,0.5-1.5,0.5s-1.2-0.2-1.6-0.7c-0.4-0.5-0.6-1-0.6-1.8v-1
			c0-0.7,0.2-1.3,0.6-1.8c0.4-0.5,0.9-0.7,1.6-0.7c0.6,0,1.2,0.2,1.5,0.5c0.4,0.3,0.6,0.8,0.6,1.4l0,0h-0.7c0-0.4-0.1-0.7-0.4-1
			c-0.2-0.2-0.6-0.4-1-0.4s-0.8,0.2-1,0.5c-0.3,0.4-0.4,0.8-0.4,1.3v1c0,0.5,0.1,1,0.4,1.3c0.3,0.4,0.6,0.5,1,0.5s0.8-0.1,1-0.4
			c0.2-0.2,0.4-0.6,0.4-1H50V48.6z"/>
		<rect x="51.4" y="44.7" class="st0" width="0.8" height="5.7"/>
		<polygon class="st0" points="57.1,47.8 54.4,47.8 54.4,49.8 57.5,49.8 57.5,50.5 53.7,50.5 53.7,44.7 57.4,44.7 57.4,45.3 
			54.4,45.3 54.4,47.2 57.1,47.2 		"/>
		<polygon class="st0" points="62.7,45.3 60.8,45.3 60.8,50.4 60.1,50.4 60.1,45.3 58.2,45.3 58.2,44.7 62.7,44.7 		"/>
		<polygon class="st0" points="65.8,47.6 67.3,44.7 68.2,44.7 66.1,48.4 66.1,50.4 65.4,50.4 65.4,48.4 63.4,44.7 64.3,44.7 		"/>
		<path class="st0" d="M12.9,42H24v11.1c0,3.2,1.3,6.2,3.5,8.4l4.3,4.3c0.5,0.5,1.2,0.1,1.2-0.5v-29c0-1.8-1.5-3.3-3.3-3.3h-29
			c-0.6,0-1,0.8-0.5,1.2l4.3,4.3C6.7,40.8,9.8,42,12.9,42"/>
		<g>
			<g>
				<g>
					<defs>
						<rect id="SVGID_1_" x="24" y="42" width="9" height="6.9"/>
					</defs>
					<clipPath id="SVGID_00000176736715303666815740000013122862955604328113_">
						<use xlink:href="#SVGID_1_"  style="overflow:visible;"/>
					</clipPath>
					<polygon style="clip-path:url(#SVGID_00000176736715303666815740000013122862955604328113_);fill:#95BBE4;" points="33,42 
						24,48.9 24,42 					"/>
				</g>
			</g>
		</g>
		<path class="st2" d="M24,42h9v-5.7c0-1.8-1.5-3.3-3.3-3.3h-29c-0.6,0-1,0.8-0.5,1.2l4.3,4.3c2.2,2.2,5.3,3.5,8.4,3.5H24z"/>
		<path class="st3" d="M53.1,24H42V12.9c0-3.2-1.3-6.2-3.5-8.4l-4.3-4.3C33.8-0.2,33,0.1,33,0.7v29c0,1.8,1.5,3.3,3.3,3.3h29
			c0.6,0,1-0.8,0.5-1.2l-4.3-4.3C59.3,25.2,56.2,24,53.1,24"/>
		<g>
			<g>
				<g>
					<defs>
						<rect id="SVGID_00000002359238775483573710000017826708426600379817_" x="33" y="17.1" width="9" height="6.9"/>
					</defs>
					<clipPath id="SVGID_00000098181233224232139830000014235084211448088976_">
						<use xlink:href="#SVGID_00000002359238775483573710000017826708426600379817_"  style="overflow:visible;"/>
					</clipPath>
					<polygon style="clip-path:url(#SVGID_00000098181233224232139830000014235084211448088976_);fill:#95BBE4;" points="33,24 
						42,17.1 42,24 					"/>
				</g>
			</g>
		</g>
		<path class="st2" d="M42,24h-9v5.7c0,1.8,1.5,3.3,3.3,3.3h29c0.6,0,1-0.8,0.5-1.2l-4.3-4.3c-2.2-2.2-5.3-3.5-8.4-3.5H42z"/>
	</g>
	<g>
		<g>
			<path class="st0" d="M89.5,42L89.5,42c0,1-0.3,1.8-0.9,2.4C88,45,87.1,45.3,86,45.3s-2-0.4-2.7-1.1c-0.7-0.7-1-1.6-1-2.8v-1.8
				c0-1.1,0.3-2,1-2.8c0.7-0.7,1.6-1.1,2.6-1.1c1.1,0,2,0.3,2.7,0.9c0.6,0.6,1,1.4,0.9,2.4l0,0h-1.8c0-0.6-0.1-1.1-0.4-1.4
				c-0.3-0.3-0.7-0.5-1.4-0.5c-0.6,0-1,0.2-1.3,0.7s-0.5,1-0.5,1.7v0.2h2.8v1.4h-2.8v0.2c0,0.7,0.2,1.3,0.5,1.7
				c0.3,0.5,0.8,0.7,1.4,0.7s1-0.2,1.3-0.5s0.4-0.8,0.4-1.4h1.8V42z"/>
			<path class="st0" d="M90.6,45.2V36h3.1c1.1,0,1.9,0.2,2.5,0.6c0.6,0.4,0.9,1.1,0.9,1.9c0,0.4-0.1,0.8-0.3,1.1
				c-0.2,0.3-0.6,0.6-1,0.8c0.6,0.1,1,0.4,1.2,0.8c0.3,0.4,0.4,0.8,0.4,1.4c0,0.9-0.3,1.6-0.9,2c-0.6,0.5-1.4,0.7-2.5,0.7L90.6,45.2
				L90.6,45.2z M92.5,39.8h1.3c0.5,0,0.9-0.1,1.1-0.3c0.3-0.2,0.4-0.5,0.4-0.9s-0.1-0.7-0.4-0.9s-0.7-0.3-1.2-0.3h-1.3L92.5,39.8
				L92.5,39.8z M92.5,41.1v2.7h1.7c0.5,0,0.9-0.1,1.1-0.3c0.3-0.2,0.4-0.5,0.4-0.9c0-0.5-0.1-0.8-0.3-1c-0.2-0.2-0.6-0.4-1-0.4
				L92.5,41.1L92.5,41.1z"/>
			<path class="st0" d="M100.8,41.8v3.3H99v-9.2h3.7c1.1,0,1.9,0.3,2.5,0.8s0.9,1.3,0.9,2.1c0,0.9-0.3,1.6-0.9,2.1s-1.4,0.8-2.5,0.8
				h-1.9V41.8z M100.8,40.4h1.8c0.5,0,0.9-0.1,1.2-0.4c0.3-0.3,0.4-0.6,0.4-1.1c0-0.4-0.1-0.8-0.4-1.1s-0.7-0.4-1.2-0.4h-1.8V40.4z"
				/>
			<path class="st0" d="M114.8,41.4c0,1.1-0.4,2.1-1.1,2.8s-1.6,1.1-2.8,1.1c-1.1,0-2.1-0.4-2.8-1.1c-0.7-0.7-1.1-1.7-1.1-2.8v-1.7
				c0-1.1,0.4-2.1,1.1-2.8s1.6-1.1,2.8-1.1c1.1,0,2.1,0.4,2.8,1.1c0.7,0.7,1.1,1.7,1.1,2.8V41.4z M113,39.7c0-0.7-0.2-1.3-0.5-1.8
				c-0.4-0.5-0.9-0.7-1.5-0.7s-1.1,0.2-1.5,0.7c-0.3,0.5-0.5,1.1-0.5,1.8v1.7c0,0.7,0.2,1.3,0.5,1.8c0.4,0.5,0.8,0.7,1.5,0.7
				c0.6,0,1.1-0.2,1.5-0.7s0.5-1.1,0.5-1.8V39.7z"/>
			<path class="st0" d="M123.8,45.2h-1.9v-7.8h-3.8v7.8h-1.9V36h7.5v9.2H123.8z"/>
			<path class="st0" d="M131.2,41.1h-3.8v2.6h4.5v1.4h-6.3v-9.2h6.3v1.4h-4.5v2.3h3.8V41.1z"/>
			<path class="st0" d="M138.5,35.9h1.9v9.2h-1.9V39l0,0l-3.7,6.2H133V36h1.8v6.2l0,0L138.5,35.9z M138.8,33.1L138.8,33.1
				c0,0.6-0.2,1-0.5,1.4c-0.4,0.3-0.9,0.5-1.6,0.5c-0.7,0-1.2-0.2-1.6-0.5c-0.4-0.3-0.6-0.8-0.6-1.3l0,0h1.4c0,0.2,0.1,0.4,0.2,0.6
				c0.1,0.1,0.3,0.2,0.6,0.2s0.5-0.1,0.6-0.2c0.1-0.1,0.2-0.3,0.2-0.6h1.3V33.1z"/>
			<path class="st0" d="M149,42L149,42c0,1-0.3,1.8-0.9,2.4s-1.5,0.9-2.6,0.9s-2-0.4-2.7-1.1c-0.7-0.7-1-1.6-1-2.8v-1.8
				c0-1.1,0.3-2,1-2.8c0.7-0.7,1.6-1.1,2.6-1.1c1.1,0,2,0.3,2.7,0.9c0.6,0.6,1,1.4,0.9,2.4l0,0h-1.8c0-0.6-0.1-1.1-0.4-1.4
				c-0.3-0.3-0.7-0.5-1.4-0.5c-0.6,0-1,0.2-1.3,0.7c-0.3,0.4-0.5,1-0.5,1.7v1.8c0,0.7,0.2,1.3,0.5,1.7c0.3,0.5,0.8,0.7,1.4,0.7
				c0.6,0,1-0.2,1.3-0.5s0.4-0.8,0.4-1.4h1.8V42z"/>
			<path class="st0" d="M152.2,39.4h1.6c1.1,0,1.9,0.3,2.5,0.8s0.9,1.2,0.9,2.1c0,0.9-0.3,1.6-0.9,2.1c-0.6,0.5-1.5,0.8-2.5,0.8
				h-3.4V36h1.9v3.4H152.2z M152.2,40.8v3h1.6c0.5,0,0.9-0.1,1.2-0.4c0.3-0.3,0.4-0.7,0.4-1.1c0-0.4-0.1-0.8-0.4-1
				c-0.3-0.3-0.7-0.4-1.2-0.4L152.2,40.8L152.2,40.8z"/>
			<path class="st0" d="M161.4,41.3h-1v3.9h-1.9V36h1.9v3.8h0.8l2.4-3.8h2.3l-3.1,4.3l3.4,4.9h-2.3L161.4,41.3z"/>
			<path class="st0" d="M172.4,35.9h1.9v9.2h-1.9V39l0,0l-3.7,6.2h-1.8V36h1.8v6.2l0,0L172.4,35.9z"/>
			<path class="st0" d="M181.8,35.9h1.9v9.2h-1.9V39l0,0l-3.7,6.2h-1.8V36h1.8v6.2l0,0L181.8,35.9z M182.1,33.1L182.1,33.1
				c0,0.6-0.2,1-0.5,1.4c-0.4,0.3-0.9,0.5-1.6,0.5c-0.7,0-1.2-0.2-1.6-0.5c-0.4-0.3-0.6-0.8-0.6-1.3l0,0h1.4c0,0.2,0.1,0.4,0.2,0.6
				c0.1,0.1,0.3,0.2,0.6,0.2s0.5-0.1,0.6-0.2c0.1-0.1,0.2-0.3,0.2-0.6h1.3V33.1z"/>
			<path class="st0" d="M89.9,58.7H88v-7.8h-3.8v7.8h-1.9v-9.2h7.5v9.2H89.9z"/>
			<path class="st0" d="M93.5,55.3v3.3h-1.9v-9.2h3.7c1.1,0,1.9,0.3,2.5,0.8s0.9,1.3,0.9,2.1c0,0.9-0.3,1.6-0.9,2.1
				s-1.4,0.8-2.5,0.8h-1.8V55.3z M93.5,53.9h1.8c0.5,0,0.9-0.1,1.2-0.4c0.3-0.3,0.4-0.6,0.4-1.1c0-0.4-0.1-0.8-0.4-1.1
				s-0.7-0.4-1.2-0.4h-1.8V53.9z"/>
			<path class="st0" d="M107.5,54.9c0,1.1-0.4,2.1-1.1,2.8s-1.6,1.1-2.8,1.1c-1.1,0-2.1-0.4-2.8-1.1c-0.7-0.7-1.1-1.7-1.1-2.8v-1.7
				c0-1.1,0.4-2.1,1.1-2.8s1.6-1.1,2.8-1.1c1.1,0,2.1,0.4,2.8,1.1c0.7,0.7,1.1,1.7,1.1,2.8V54.9z M105.7,53.2c0-0.7-0.2-1.3-0.5-1.8
				c-0.4-0.5-0.9-0.7-1.5-0.7s-1.1,0.2-1.5,0.7c-0.3,0.5-0.5,1.1-0.5,1.8v1.7c0,0.7,0.2,1.3,0.5,1.8c0.4,0.5,0.8,0.7,1.5,0.7
				c0.6,0,1.1-0.2,1.5-0.7s0.5-1.1,0.5-1.8V53.2z"/>
			<path class="st0" d="M115.9,55.5L115.9,55.5c0,1-0.3,1.8-0.9,2.4c-0.6,0.6-1.5,0.9-2.6,0.9s-2-0.4-2.7-1.1c-0.7-0.7-1-1.6-1-2.8
				v-1.8c0-1.1,0.3-2,1-2.8c0.7-0.7,1.6-1.1,2.6-1.1c1.1,0,2,0.3,2.7,0.9c0.6,0.6,1,1.4,0.9,2.4l0,0h-1.8c0-0.6-0.1-1.1-0.4-1.4
				c-0.3-0.3-0.7-0.5-1.4-0.5c-0.6,0-1,0.2-1.3,0.7c-0.3,0.4-0.5,1-0.5,1.7v2c0,0.7,0.2,1.3,0.5,1.7c0.3,0.5,0.8,0.7,1.4,0.7
				s1-0.2,1.3-0.5s0.4-0.8,0.4-1.4H115.9z"/>
			<path class="st0" d="M123.4,50.9h-2.6v7.8H119v-7.8h-2.6v-1.4h7.1L123.4,50.9L123.4,50.9z"/>
			<path class="st0" d="M126.4,58.7h-1.9v-9.2h1.9V58.7z"/>
			<path class="st0" d="M130.1,55.3v3.3h-1.9v-9.2h3.7c1.1,0,1.9,0.3,2.5,0.8s0.9,1.3,0.9,2.1c0,0.9-0.3,1.6-0.9,2.1
				c-0.6,0.5-1.4,0.8-2.5,0.8h-1.8V55.3z M130.1,53.9h1.8c0.5,0,0.9-0.1,1.2-0.4c0.3-0.3,0.4-0.6,0.4-1.1c0-0.4-0.1-0.8-0.4-1.1
				c-0.3-0.3-0.7-0.4-1.2-0.4h-1.8V53.9z"/>
		</g>
	</g>
</g>
</svg>
