<?xml version="1.0" encoding="utf-8"?>
<!-- Generator: Adobe Illustrator 27.4.0, SVG Export Plug-In . SVG Version: 6.00 Build 0)  -->
<svg version="1.1" id="Layer_1" xmlns="http://www.w3.org/2000/svg" xmlns:xlink="http://www.w3.org/1999/xlink" x="0px" y="0px"
	 viewBox="0 0 183.7 66" style="enable-background:new 0 0 183.7 66;" xml:space="preserve">
<style type="text/css">
	.st0{fill:#FFFFFF;}
</style>
<g>
	<polygon class="st0" points="39.6,36.5 39.6,35.9 35.9,35.9 35.9,41.7 39.7,41.7 39.7,41.1 36.6,41.1 36.6,39 39.3,39 39.3,38.4 
		36.6,38.4 36.6,36.5 	"/>
	<path class="st0" d="M42.6,41.7c0.7,0,1.2-0.2,1.6-0.5c0.4-0.3,0.6-0.8,0.6-1.4v-3.9H44v3.9c0,0.4-0.1,0.8-0.4,1s-0.6,0.3-1,0.3
		s-0.7-0.1-1-0.3c-0.2-0.2-0.4-0.6-0.4-1v-3.9h-0.8v3.9c0,0.6,0.2,1.1,0.6,1.4C41.5,41.6,42,41.7,42.6,41.7z"/>
	<path class="st0" d="M49.5,35.9h-0.9l-2.7,4v0.4h2.7v1.3h0.8v-1.3h0.8v-0.6h-0.8v-3.8H49.5z M48.7,39.7h-1.8l1.7-2.5l0.1-0.2l0,0
		V39.7z"/>
	<path class="st0" d="M55.4,39.8L55.4,39.8h-0.8c0,0.4-0.1,0.7-0.4,1c-0.2,0.2-0.6,0.4-1,0.4s-0.8-0.2-1-0.5
		c-0.3-0.3-0.4-0.8-0.4-1.3v-1c0-0.5,0.1-0.9,0.4-1.3c0.3-0.3,0.6-0.5,1-0.5s0.8,0.1,1,0.4c0.2,0.2,0.4,0.6,0.4,1h0.7l0,0
		c0-0.6-0.2-1-0.6-1.4c-0.4-0.3-0.9-0.5-1.5-0.5s-1.2,0.2-1.6,0.7c-0.4,0.5-0.6,1-0.6,1.8v1c0,0.7,0.2,1.3,0.6,1.8
		c0.4,0.5,0.9,0.7,1.6,0.7c0.6,0,1.2-0.2,1.5-0.5C55.2,40.8,55.4,40.4,55.4,39.8z"/>
	<rect x="56.5" y="35.9" class="st0" width="0.8" height="5.7"/>
	<polygon class="st0" points="61,40.7 60.9,40.7 60.8,40.2 59.3,35.9 58.5,35.9 60.6,41.7 61.3,41.7 63.4,35.9 62.6,35.9 61.1,40.2 
			"/>
	<rect x="64.6" y="35.9" class="st0" width="0.8" height="5.7"/>
	<polygon class="st0" points="68,35.9 67.2,35.9 67.2,41.7 70.7,41.7 70.7,41.1 68,41.1 	"/>
	<path class="st0" d="M37.9,47.2c-0.5-0.1-0.9-0.3-1.1-0.4c-0.2-0.2-0.3-0.4-0.3-0.6c0-0.3,0.1-0.5,0.3-0.7s0.5-0.3,0.9-0.3
		s0.7,0.1,1,0.3c0.2,0.2,0.3,0.5,0.3,0.8h0.7l0,0c0-0.5-0.2-0.9-0.5-1.2c-0.4-0.3-0.9-0.5-1.5-0.5s-1.1,0.1-1.4,0.4
		c-0.4,0.3-0.5,0.7-0.5,1.1c0,0.4,0.2,0.8,0.5,1.1s0.8,0.5,1.4,0.6c0.5,0.1,0.9,0.3,1,0.4c0.2,0.2,0.3,0.4,0.3,0.7s-0.1,0.5-0.3,0.7
		s-0.5,0.2-0.9,0.2s-0.7-0.1-1-0.3s-0.4-0.5-0.4-0.8h-0.7l0,0c0,0.5,0.2,0.9,0.6,1.2c0.4,0.3,0.9,0.5,1.5,0.5s1.1-0.1,1.5-0.4
		c0.4-0.3,0.6-0.7,0.6-1.1c0-0.4-0.2-0.8-0.5-1.1C39,47.6,38.5,47.4,37.9,47.2z"/>
	<path class="st0" d="M42.7,44.6c-0.6,0-1.1,0.2-1.5,0.7s-0.6,1-0.6,1.7v1c0,0.7,0.2,1.3,0.6,1.7c0.4,0.5,0.9,0.7,1.5,0.7
		s1.2-0.2,1.6-0.7c0.4-0.5,0.6-1,0.6-1.7v-1c0-0.7-0.2-1.3-0.6-1.7C43.8,44.9,43.3,44.6,42.7,44.6z M44.1,48.1c0,0.5-0.1,1-0.4,1.3
		c-0.3,0.3-0.6,0.5-1.1,0.5c-0.4,0-0.8-0.2-1-0.5s-0.4-0.8-0.4-1.3v-1c0-0.5,0.1-1,0.4-1.3s0.6-0.5,1-0.5s0.8,0.2,1.1,0.5
		s0.4,0.8,0.4,1.3V48.1z"/>
	<path class="st0" d="M46.9,45.8c0.3-0.3,0.6-0.5,1-0.5s0.8,0.1,1,0.4c0.2,0.2,0.4,0.6,0.4,1H50l0,0c0-0.6-0.2-1-0.6-1.4
		c-0.4-0.3-0.9-0.5-1.5-0.5s-1.2,0.2-1.6,0.7c-0.4,0.5-0.6,1-0.6,1.8v1c0,0.7,0.2,1.3,0.6,1.8c0.4,0.5,0.9,0.7,1.6,0.7
		c0.6,0,1.2-0.2,1.5-0.5c0.4-0.4,0.6-0.8,0.6-1.4l0,0h-0.7c0,0.4-0.1,0.7-0.4,1c-0.2,0.2-0.6,0.4-1,0.4s-0.8-0.2-1-0.5
		c-0.3-0.3-0.4-0.8-0.4-1.3v-1C46.5,46.5,46.6,46.1,46.9,45.8z"/>
	<rect x="51.4" y="44.7" class="st0" width="0.8" height="5.7"/>
	<polygon class="st0" points="54.4,47.8 57.1,47.8 57.1,47.2 54.4,47.2 54.4,45.3 57.4,45.3 57.4,44.7 53.7,44.7 53.7,50.5 
		57.5,50.5 57.5,49.8 54.4,49.8 	"/>
	<polygon class="st0" points="58.2,45.3 60.1,45.3 60.1,50.4 60.8,50.4 60.8,45.3 62.7,45.3 62.7,44.7 58.2,44.7 	"/>
	<polygon class="st0" points="65.8,47.6 64.3,44.7 63.4,44.7 65.4,48.4 65.4,50.4 66.1,50.4 66.1,48.4 68.2,44.7 67.3,44.7 	"/>
	<path class="st0" d="M30.8,33.2c-0.3-0.1-0.7-0.2-1-0.2l0,0h-29l0,0c-0.1,0-0.2,0-0.3,0.1c-0.3,0.2-0.4,0.5-0.4,0.8
		c0,0.1,0.1,0.2,0.2,0.3l4.3,4.3C6.8,40.7,9.9,42,13,42l0,0h11v6.9l0,0v4.2c0,3.2,1.3,6.2,3.5,8.4l4.3,4.3c0.5,0.5,1.2,0.1,1.2-0.5
		v-29C33,34.8,32.1,33.6,30.8,33.2z"/>
	<path class="st0" d="M36.3,33L36.3,33h29l0,0c0.1,0,0.2,0,0.3-0.1c0.4-0.2,0.5-0.6,0.4-0.9c0-0.1-0.1-0.2-0.2-0.2l-4.3-4.3
		c-0.6-0.6-1.2-1.1-1.8-1.5c-0.5-0.3-1-0.6-1.5-0.8c-1.6-0.7-3.3-1.2-5.1-1.2l0,0H42v-6.9l0,0v-4.2c0-3.2-1.3-6.2-3.5-8.4l-4.3-4.3
		C33.8-0.2,33,0.1,33,0.7v16.4V24v5.7c0,1.3,0.8,2.5,1.9,3C35.3,32.9,35.8,33,36.3,33z"/>
	<path class="st0" d="M86,45.3c1.1,0,2-0.3,2.6-0.9c0.6-0.6,0.9-1.4,0.9-2.4l0,0h-1.8c0,0.6-0.1,1.1-0.4,1.4
		c-0.3,0.3-0.7,0.5-1.3,0.5c-0.6,0-1-0.2-1.4-0.7c-0.3-0.5-0.5-1-0.5-1.7v-0.2h2.8v-1.4h-2.8v-0.2c0-0.7,0.2-1.3,0.5-1.7
		c0.3-0.5,0.8-0.7,1.3-0.7c0.6,0,1.1,0.2,1.4,0.5s0.4,0.8,0.4,1.4h1.8l0,0c0-1-0.3-1.8-0.9-2.4c-0.6-0.6-1.5-0.9-2.7-0.9
		c-1.1,0-2,0.4-2.6,1.1c-0.7,0.7-1,1.6-1,2.8v1.8c0,1.1,0.3,2,1,2.8C84,44.9,84.9,45.3,86,45.3z"/>
	<path class="st0" d="M96.7,44.5c0.6-0.5,0.9-1.1,0.9-2c0-0.5-0.1-1-0.4-1.4s-0.7-0.6-1.2-0.8c0.4-0.2,0.8-0.4,1-0.8
		c0.2-0.3,0.3-0.7,0.3-1.1c0-0.8-0.3-1.5-0.9-1.9s-1.5-0.6-2.5-0.6h-3.1v9.2h3.6C95.3,45.2,96.1,44.9,96.7,44.5z M92.5,37.4h1.3
		c0.5,0,0.9,0.1,1.2,0.3c0.3,0.2,0.4,0.5,0.4,0.9s-0.1,0.7-0.4,0.9s-0.6,0.3-1.1,0.3h-1.3L92.5,37.4L92.5,37.4z M92.5,41.1h1.8
		c0.5,0,0.8,0.1,1,0.4c0.2,0.2,0.3,0.6,0.3,1s-0.1,0.7-0.4,0.9s-0.6,0.3-1.1,0.3h-1.7L92.5,41.1L92.5,41.1z"/>
	<path class="st0" d="M100.8,41.8h1.8c1.1,0,1.9-0.3,2.5-0.8s0.9-1.2,0.9-2.1c0-0.9-0.3-1.6-0.9-2.1s-1.4-0.8-2.5-0.8H99v9.2h1.9
		L100.8,41.8L100.8,41.8z M100.8,37.4h1.8c0.5,0,0.9,0.1,1.2,0.4c0.3,0.3,0.4,0.7,0.4,1.1c0,0.4-0.1,0.8-0.4,1.1s-0.7,0.4-1.2,0.4
		h-1.8V37.4z"/>
	<path class="st0" d="M113.8,44.2c0.7-0.7,1.1-1.7,1.1-2.8v-1.7c0-1.1-0.4-2.1-1.1-2.8s-1.7-1.1-2.8-1.1c-1.1,0-2.1,0.4-2.8,1.1
		c-0.7,0.7-1.1,1.7-1.1,2.8v1.7c0,1.1,0.4,2.1,1.1,2.8s1.6,1.1,2.8,1.1C112.1,45.3,113.1,44.9,113.8,44.2z M109.5,43.2
		c-0.4-0.5-0.5-1.1-0.5-1.8v-1.7c0-0.7,0.2-1.3,0.5-1.8s0.8-0.7,1.5-0.7c0.6,0,1.1,0.2,1.5,0.7s0.5,1.1,0.5,1.8v1.7
		c0,0.7-0.2,1.3-0.5,1.8c-0.4,0.5-0.8,0.7-1.5,0.7S109.9,43.6,109.5,43.2z"/>
	<polygon class="st0" points="116.3,45.2 118.1,45.2 118.1,37.4 121.9,37.4 121.9,45.2 123.8,45.2 123.8,35.9 116.3,35.9 	"/>
	<polygon class="st0" points="131.8,37.4 131.8,35.9 125.5,35.9 125.5,45.2 131.8,45.2 131.8,43.7 127.3,43.7 127.3,41.1 
		131.2,41.1 131.2,39.7 127.3,39.7 127.3,37.4 	"/>
	<polygon class="st0" points="134.8,42.1 134.7,42.1 134.7,35.9 132.9,35.9 132.9,45.2 134.7,45.2 138.5,39 138.5,39 138.5,45.2 
		140.3,45.2 140.3,35.9 138.5,35.9 	"/>
	<path class="st0" d="M137.2,33.7c-0.1,0.1-0.3,0.2-0.6,0.2s-0.5-0.1-0.6-0.2c-0.1-0.1-0.2-0.3-0.2-0.6h-1.4l0,0
		c0,0.5,0.2,1,0.6,1.3c0.4,0.3,0.9,0.5,1.6,0.5c0.7,0,1.2-0.2,1.6-0.5c0.4-0.3,0.6-0.8,0.6-1.3l0,0h-1.4
		C137.4,33.4,137.3,33.6,137.2,33.7z"/>
	<path class="st0" d="M145.4,35.8c-1.1,0-2,0.4-2.6,1.1c-0.7,0.7-1,1.6-1,2.8v1.8c0,1.1,0.3,2,1,2.8c0.7,0.7,1.6,1.1,2.7,1.1
		c1.1,0,2-0.3,2.6-0.9s0.9-1.4,0.9-2.4l0,0h-1.8c0,0.6-0.1,1.1-0.4,1.4c-0.3,0.3-0.7,0.5-1.3,0.5s-1-0.2-1.4-0.7
		c-0.3-0.5-0.5-1-0.5-1.7v-1.8c0-0.7,0.2-1.3,0.5-1.7c0.3-0.5,0.8-0.7,1.3-0.7c0.6,0,1.1,0.2,1.4,0.5c0.3,0.3,0.4,0.8,0.4,1.4h1.8
		l0,0c0-1-0.3-1.8-0.9-2.4C147.5,36.1,146.6,35.8,145.4,35.8z"/>
	<path class="st0" d="M153.8,39.4h-1.6V36h-1.9v9.2h3.4c1.1,0,1.9-0.3,2.5-0.8s0.9-1.3,0.9-2.1c0-0.9-0.3-1.6-0.9-2.1
		C155.7,39.6,154.8,39.4,153.8,39.4z M155,43.3c-0.3,0.3-0.7,0.4-1.2,0.4h-1.6v-3h1.6c0.5,0,0.9,0.1,1.2,0.4c0.3,0.3,0.4,0.6,0.4,1
		C155.4,42.7,155.3,43,155,43.3z"/>
	<polygon class="st0" points="165.9,35.9 163.6,35.9 161.2,39.7 160.3,39.7 160.3,35.9 158.5,35.9 158.5,45.2 160.3,45.2 
		160.3,41.3 161.4,41.3 163.9,45.2 166.1,45.2 162.8,40.2 	"/>
	<polygon class="st0" points="168.7,42.1 168.7,42.1 168.7,35.9 166.8,35.9 166.8,45.2 168.7,45.2 172.4,39 172.4,39 172.4,45.2 
		174.3,45.2 174.3,35.9 172.4,35.9 	"/>
	<polygon class="st0" points="181.8,35.9 178.1,42.1 178,42.1 178,35.9 176.2,35.9 176.2,45.2 178,45.2 181.8,39 181.8,39 
		181.8,45.2 183.7,45.2 183.7,35.9 	"/>
	<path class="st0" d="M179.9,35c0.7,0,1.2-0.2,1.6-0.5c0.4-0.3,0.6-0.8,0.6-1.3l0,0h-1.4c0,0.2-0.1,0.4-0.2,0.6s-0.3,0.2-0.6,0.2
		s-0.5-0.1-0.6-0.2c-0.1-0.1-0.2-0.3-0.2-0.6h-1.4l0,0c0,0.5,0.2,1,0.6,1.3C178.7,34.8,179.3,35,179.9,35z"/>
	<polygon class="st0" points="82.4,58.7 84.3,58.7 84.3,50.9 88.1,50.9 88.1,58.7 89.9,58.7 89.9,49.4 82.4,49.4 	"/>
	<path class="st0" d="M95.3,49.4h-3.7v9.2h1.9v-3.3h1.8c1.1,0,1.9-0.3,2.5-0.8s0.9-1.2,0.9-2.1c0-0.9-0.3-1.6-0.9-2.1
		C97.2,49.7,96.4,49.4,95.3,49.4z M96.5,53.5c-0.3,0.3-0.7,0.4-1.2,0.4h-1.8v-3h1.8c0.5,0,0.9,0.1,1.2,0.4c0.3,0.3,0.4,0.7,0.4,1.1
		S96.8,53.2,96.5,53.5z"/>
	<path class="st0" d="M103.7,49.3c-1.1,0-2.1,0.4-2.8,1.1c-0.7,0.7-1.1,1.7-1.1,2.8v1.7c0,1.1,0.4,2.1,1.1,2.8s1.6,1.1,2.8,1.1
		c1.1,0,2.1-0.4,2.8-1.1c0.7-0.7,1.1-1.7,1.1-2.8v-1.7c0-1.1-0.4-2.1-1.1-2.8C105.7,49.7,104.8,49.3,103.7,49.3z M105.7,54.9
		c0,0.7-0.2,1.3-0.5,1.8c-0.4,0.5-0.8,0.7-1.5,0.7c-0.6,0-1.1-0.2-1.5-0.7s-0.5-1.1-0.5-1.8v-1.7c0-0.7,0.2-1.3,0.5-1.8
		s0.8-0.7,1.5-0.7c0.6,0,1.1,0.2,1.5,0.7s0.5,1.1,0.5,1.8V54.9z"/>
	<path class="st0" d="M112.4,49.3c-1.1,0-2,0.4-2.6,1.1c-0.7,0.7-1,1.6-1,2.8V55c0,1.1,0.3,2,1,2.8c0.7,0.7,1.6,1.1,2.7,1.1
		s2-0.3,2.6-0.9c0.6-0.6,0.9-1.4,0.9-2.4l0,0h-1.8c0,0.6-0.1,1.1-0.4,1.4c-0.3,0.3-0.7,0.5-1.3,0.5c-0.6,0-1-0.2-1.4-0.7
		c-0.3-0.5-0.5-1-0.5-1.7v-1.8c0-0.7,0.2-1.3,0.5-1.7c0.3-0.5,0.8-0.7,1.3-0.7c0.6,0,1.1,0.2,1.4,0.5s0.4,0.8,0.4,1.4h1.8l0,0
		c0-1-0.3-1.8-0.9-2.4C114.4,49.6,113.5,49.3,112.4,49.3z"/>
	<polygon class="st0" points="116.4,50.9 119,50.9 119,58.7 120.8,58.7 120.8,50.9 123.4,50.9 123.4,49.4 116.4,49.4 	"/>
	<rect x="124.6" y="49.4" class="st0" width="1.9" height="9.2"/>
	<path class="st0" d="M132,49.4h-3.7v9.2h1.9v-3.3h1.8c1.1,0,1.9-0.3,2.5-0.8s0.9-1.2,0.9-2.1c0-0.9-0.3-1.6-0.9-2.1
		C133.9,49.7,133,49.4,132,49.4z M133.1,53.5c-0.3,0.3-0.7,0.4-1.2,0.4h-1.8v-3h1.8c0.5,0,0.9,0.1,1.2,0.4c0.3,0.3,0.4,0.7,0.4,1.1
		S133.4,53.2,133.1,53.5z"/>
</g>
</svg>
