<?xml version="1.0" encoding="utf-8"?>
<!-- Generator: Adobe Illustrator 17.1.0, SVG Export Plug-In . SVG Version: 6.00 Build 0)  -->
<!DOCTYPE svg PUBLIC "-//W3C//DTD SVG 1.1//EN" "http://www.w3.org/Graphics/SVG/1.1/DTD/svg11.dtd">
<svg version="1.1" id="Layer_1" xmlns="http://www.w3.org/2000/svg" xmlns:xlink="http://www.w3.org/1999/xlink" x="0px" y="0px"
	 viewBox="0 0 151.6 66" enable-background="new 0 0 151.6 66" xml:space="preserve">
<g>
	<polygon fill="#FFFFFF" points="39.6,36.5 39.6,35.9 35.9,35.9 35.9,41.7 39.7,41.7 39.7,41.1 36.6,41.1 36.6,39 39.3,39 
		39.3,38.4 36.6,38.4 36.6,36.5 	"/>
	<path fill="#FFFFFF" d="M42.6,41.8c0.7,0,1.2-0.2,1.6-0.5c0.4-0.3,0.6-0.8,0.6-1.4v-3.9H44v3.9c0,0.4-0.1,0.8-0.4,1
		c-0.3,0.2-0.6,0.3-1,0.3c-0.4,0-0.7-0.1-1-0.3s-0.4-0.6-0.4-1v-3.9h-0.8v3.9c0,0.6,0.2,1.1,0.6,1.4S42,41.8,42.6,41.8z"/>
	<path fill="#FFFFFF" d="M49.5,35.9h-0.9l-2.7,4v0.4h2.7v1.3h0.8v-1.3h0.8v-0.6h-0.8V35.9z M48.7,39.7h-1.8l1.7-2.5l0.1-0.2l0,0
		V39.7z"/>
	<path fill="#FFFFFF" d="M55.4,39.9L55.4,39.9l-0.8,0c0,0.4-0.1,0.7-0.4,1c-0.2,0.2-0.6,0.4-1,0.4c-0.4,0-0.8-0.2-1-0.5
		c-0.3-0.3-0.4-0.8-0.4-1.3v-1c0-0.5,0.1-0.9,0.4-1.3c0.3-0.3,0.6-0.5,1-0.5c0.4,0,0.8,0.1,1,0.4c0.2,0.2,0.4,0.6,0.4,1h0.7l0,0
		c0-0.6-0.2-1-0.6-1.4c-0.4-0.3-0.9-0.5-1.5-0.5c-0.6,0-1.2,0.2-1.6,0.7c-0.4,0.5-0.6,1-0.6,1.8v1c0,0.7,0.2,1.3,0.6,1.8
		c0.4,0.5,0.9,0.7,1.6,0.7c0.6,0,1.2-0.2,1.5-0.5C55.2,40.9,55.4,40.4,55.4,39.9z"/>
	<rect x="56.5" y="35.9" fill="#FFFFFF" width="0.8" height="5.7"/>
	<polygon fill="#FFFFFF" points="61,40.7 60.9,40.7 60.8,40.3 59.3,35.9 58.5,35.9 60.6,41.7 61.3,41.7 63.4,35.9 62.6,35.9 
		61.1,40.3 	"/>
	<rect x="64.6" y="35.9" fill="#FFFFFF" width="0.8" height="5.7"/>
	<polygon fill="#FFFFFF" points="68,35.9 67.2,35.9 67.2,41.7 70.7,41.7 70.7,41.1 68,41.1 	"/>
	<path fill="#FFFFFF" d="M37.9,47.3c-0.5-0.1-0.9-0.3-1.1-0.4c-0.2-0.2-0.3-0.4-0.3-0.6c0-0.3,0.1-0.5,0.3-0.7
		c0.2-0.2,0.5-0.3,0.9-0.3c0.4,0,0.7,0.1,1,0.3c0.2,0.2,0.3,0.5,0.3,0.8h0.7l0,0c0-0.5-0.2-0.9-0.5-1.2c-0.4-0.3-0.9-0.5-1.5-0.5
		c-0.6,0-1.1,0.1-1.4,0.4c-0.4,0.3-0.5,0.7-0.5,1.1c0,0.4,0.2,0.8,0.5,1.1c0.3,0.3,0.8,0.5,1.4,0.6c0.5,0.1,0.9,0.3,1,0.4
		c0.2,0.2,0.3,0.4,0.3,0.7c0,0.3-0.1,0.5-0.3,0.7c-0.2,0.2-0.5,0.2-0.9,0.2c-0.4,0-0.7-0.1-1-0.3c-0.3-0.2-0.4-0.5-0.4-0.8h-0.7l0,0
		c0,0.5,0.2,0.9,0.6,1.2c0.4,0.3,0.9,0.5,1.5,0.5c0.6,0,1.1-0.1,1.5-0.4c0.4-0.3,0.6-0.7,0.6-1.1c0-0.4-0.2-0.8-0.5-1.1
		C39,47.6,38.5,47.4,37.9,47.3z"/>
	<path fill="#FFFFFF" d="M42.7,44.6c-0.6,0-1.1,0.2-1.5,0.7c-0.4,0.5-0.6,1-0.6,1.7v1c0,0.7,0.2,1.3,0.6,1.7
		c0.4,0.5,0.9,0.7,1.5,0.7c0.6,0,1.2-0.2,1.6-0.7c0.4-0.5,0.6-1,0.6-1.7v-1c0-0.7-0.2-1.3-0.6-1.7C43.8,44.9,43.3,44.6,42.7,44.6z
		 M44.1,48.1c0,0.5-0.1,1-0.4,1.3s-0.6,0.5-1.1,0.5c-0.4,0-0.8-0.2-1-0.5s-0.4-0.8-0.4-1.3v-1c0-0.5,0.1-1,0.4-1.3
		c0.2-0.3,0.6-0.5,1-0.5c0.4,0,0.8,0.2,1.1,0.5c0.3,0.3,0.4,0.8,0.4,1.3V48.1z"/>
	<path fill="#FFFFFF" d="M46.9,45.8c0.3-0.3,0.6-0.5,1-0.5c0.4,0,0.8,0.1,1,0.4c0.2,0.2,0.4,0.6,0.4,1H50l0,0c0-0.6-0.2-1-0.6-1.4
		c-0.4-0.3-0.9-0.5-1.5-0.5c-0.6,0-1.2,0.2-1.6,0.7c-0.4,0.5-0.6,1-0.6,1.8v1c0,0.7,0.2,1.3,0.6,1.8c0.4,0.5,0.9,0.7,1.6,0.7
		c0.6,0,1.2-0.2,1.5-0.5c0.4-0.4,0.6-0.8,0.6-1.4l0,0h-0.7c0,0.4-0.1,0.7-0.4,1c-0.2,0.2-0.6,0.4-1,0.4c-0.4,0-0.8-0.2-1-0.5
		c-0.3-0.3-0.4-0.8-0.4-1.3v-1C46.5,46.6,46.6,46.1,46.9,45.8z"/>
	<rect x="51.4" y="44.7" fill="#FFFFFF" width="0.8" height="5.7"/>
	<polygon fill="#FFFFFF" points="54.4,47.8 57.1,47.8 57.1,47.2 54.4,47.2 54.4,45.3 57.4,45.3 57.4,44.7 53.7,44.7 53.7,50.5 
		57.5,50.5 57.5,49.9 54.4,49.9 	"/>
	<polygon fill="#FFFFFF" points="58.2,45.3 60.1,45.3 60.1,50.5 60.8,50.5 60.8,45.3 62.7,45.3 62.7,44.7 58.2,44.7 	"/>
	<polygon fill="#FFFFFF" points="65.8,47.6 64.3,44.7 63.4,44.7 65.4,48.4 65.4,50.5 66.1,50.5 66.1,48.4 68.2,44.7 67.3,44.7 	"/>
	<path fill="#FFFFFF" d="M30.8,33.2c-0.3-0.1-0.7-0.2-1.1-0.2h0h-29h0c-0.1,0-0.3,0-0.4,0.1c-0.3,0.2-0.4,0.5-0.3,0.8
		c0,0.1,0.1,0.2,0.2,0.3l4.3,4.3c2.2,2.2,5.3,3.5,8.4,3.5h0H24v6.9h0v4.2c0,3.2,1.3,6.2,3.5,8.4l4.3,4.3c0.5,0.5,1.2,0.1,1.2-0.5
		v-29C33,34.9,32.1,33.7,30.8,33.2z"/>
	<path fill="#FFFFFF" d="M36.3,33L36.3,33h29h0c0.1,0,0.2,0,0.3,0c0.4-0.1,0.6-0.6,0.4-0.9c0-0.1-0.1-0.2-0.2-0.2l-4.3-4.3
		c-0.6-0.6-1.2-1.1-1.8-1.5c-0.5-0.3-1-0.6-1.5-0.8c-1.6-0.7-3.3-1.2-5.1-1.2h0H42v-6.9h0v-4.2c0-3.2-1.3-6.2-3.5-8.4l-4.3-4.3
		C33.8-0.2,33,0.1,33,0.7v16.4V24v5.7c0,1.3,0.8,2.4,1.9,3C35.3,32.9,35.8,33,36.3,33z"/>
	<polygon fill="#FFFFFF" points="84.3,46.1 88.1,46.1 88.1,44.7 84.3,44.7 84.3,42.4 88.8,42.4 88.8,41 82.4,41 82.4,50.2 
		88.8,50.2 88.8,48.8 84.3,48.8 	"/>
	<path fill="#FFFFFF" d="M95.3,47.1c0,0.6-0.2,1.1-0.5,1.4c-0.3,0.3-0.8,0.4-1.4,0.4c-0.6,0-1-0.2-1.3-0.5c-0.3-0.3-0.5-0.8-0.5-1.4
		V41h-1.9v6.1c0,1,0.3,1.8,1,2.4c0.7,0.6,1.6,0.8,2.7,0.8c1.1,0,2-0.3,2.7-0.8c0.7-0.6,1-1.4,1-2.4V41h-1.9V47.1z"/>
	<path fill="#FFFFFF" d="M102.5,41h-3.7v9.2h1.9v-3.3h1.8c1.1,0,1.9-0.3,2.5-0.8c0.6-0.5,0.9-1.2,0.9-2.1s-0.3-1.6-0.9-2.1
		C104.4,41.2,103.6,41,102.5,41z M103.7,45c-0.3,0.3-0.7,0.4-1.2,0.4h-1.8v-3h1.8c0.5,0,0.9,0.1,1.2,0.4s0.4,0.7,0.4,1.1
		C104.1,44.3,103.9,44.7,103.7,45z"/>
	<path fill="#FFFFFF" d="M114.2,48.6v-0.7c0-0.6-0.1-1-0.4-1.4c-0.2-0.4-0.6-0.6-1.2-0.8c0.5-0.2,0.8-0.5,1.1-0.8
		c0.2-0.3,0.4-0.8,0.4-1.2c0-0.9-0.3-1.5-0.9-2c-0.6-0.5-1.4-0.7-2.5-0.7h-3.5v9.2h1.9v-3.7h1.8c0.5,0,0.8,0.1,1.1,0.4
		c0.3,0.3,0.4,0.6,0.4,1.1v0.7c0,0.3,0,0.6,0.1,0.9c0.1,0.3,0.2,0.5,0.3,0.7h1.9v-0.1c-0.2-0.1-0.3-0.3-0.4-0.6
		C114.2,49.1,114.2,48.9,114.2,48.6z M111.9,44.7c-0.3,0.2-0.6,0.3-1.2,0.3h-1.6v-2.7h1.6c0.5,0,0.9,0.1,1.1,0.4
		c0.3,0.2,0.4,0.6,0.4,1C112.3,44.2,112.2,44.5,111.9,44.7z"/>
	<path fill="#FFFFFF" d="M119.4,40.8c-1.1,0-2.1,0.4-2.8,1.1c-0.7,0.7-1.1,1.7-1.1,2.8v1.7c0,1.1,0.4,2.1,1.1,2.8
		c0.7,0.7,1.6,1.1,2.8,1.1c1.1,0,2.1-0.4,2.8-1.1c0.7-0.7,1.1-1.7,1.1-2.8v-1.7c0-1.1-0.4-2.1-1.1-2.8
		C121.5,41.2,120.6,40.8,119.4,40.8z M121.4,46.4c0,0.7-0.2,1.3-0.5,1.8c-0.4,0.5-0.9,0.7-1.5,0.7c-0.6,0-1.1-0.2-1.5-0.7
		c-0.4-0.5-0.5-1.1-0.5-1.8v-1.7c0-0.7,0.2-1.3,0.5-1.8c0.3-0.5,0.8-0.7,1.5-0.7c0.6,0,1.1,0.2,1.5,0.7c0.4,0.5,0.5,1.1,0.5,1.8
		V46.4z"/>
	<path fill="#FFFFFF" d="M128.5,44.8c-0.7-0.2-1.2-0.4-1.5-0.6c-0.3-0.2-0.4-0.5-0.4-0.8c0-0.3,0.1-0.6,0.4-0.8
		c0.3-0.2,0.7-0.3,1.1-0.3c0.5,0,0.9,0.1,1.2,0.4c0.3,0.3,0.4,0.6,0.4,1h1.8l0,0c0-0.8-0.3-1.5-0.9-2c-0.6-0.5-1.5-0.8-2.5-0.8
		c-1,0-1.8,0.2-2.5,0.7c-0.6,0.5-1,1.1-1,1.9c0,0.8,0.3,1.4,0.8,1.8c0.6,0.4,1.4,0.8,2.5,1.1c0.6,0.2,1.1,0.4,1.3,0.6
		c0.3,0.2,0.4,0.5,0.4,0.9c0,0.3-0.1,0.6-0.4,0.8s-0.7,0.3-1.2,0.3c-0.6,0-1.1-0.1-1.4-0.4c-0.3-0.3-0.5-0.7-0.5-1.2h-1.8l0,0
		c0,0.9,0.3,1.7,1.1,2.2c0.7,0.5,1.6,0.8,2.6,0.8c1,0,1.8-0.2,2.5-0.7c0.6-0.5,0.9-1.1,0.9-1.9c0-0.8-0.3-1.4-0.8-1.8
		C130.3,45.5,129.5,45.1,128.5,44.8z"/>
	<polygon fill="#FFFFFF" points="132.3,42.4 134.9,42.4 134.9,50.2 136.8,50.2 136.8,42.4 139.4,42.4 139.4,41 132.3,41 	"/>
	<rect x="140.5" y="41" fill="#FFFFFF" width="1.9" height="9.2"/>
	<path fill="#FFFFFF" d="M151.2,49.4c-0.1-0.3-0.1-0.6-0.1-0.8v-0.7c0-0.6-0.1-1-0.4-1.4c-0.2-0.4-0.6-0.6-1.2-0.8
		c0.5-0.2,0.8-0.5,1.1-0.8c0.2-0.3,0.4-0.8,0.4-1.2c0-0.9-0.3-1.5-0.9-2c-0.6-0.5-1.4-0.7-2.5-0.7h-3.5v9.2h1.9v-3.7h1.8
		c0.5,0,0.8,0.1,1.1,0.4c0.3,0.3,0.4,0.6,0.4,1.1v0.7c0,0.3,0,0.6,0.1,0.9c0.1,0.3,0.2,0.5,0.3,0.7h1.9v-0.1
		C151.4,49.9,151.3,49.7,151.2,49.4z M148.8,44.7c-0.3,0.2-0.6,0.3-1.2,0.3h-1.6v-2.7h1.6c0.5,0,0.9,0.1,1.1,0.4
		c0.3,0.2,0.4,0.6,0.4,1C149.2,44.2,149.1,44.5,148.8,44.7z"/>
	<polygon fill="#FFFFFF" points="84.1,36.7 86,36.7 86,29 88.6,29 88.6,27.6 81.6,27.6 81.6,29 84.1,29 	"/>
	<path fill="#FFFFFF" d="M93.5,27.4c-1.1,0-2,0.4-2.7,1.1s-1.1,1.7-1.1,2.8v1.6c0,1.1,0.4,2,1.1,2.8c0.7,0.7,1.6,1.1,2.7,1.1
		c1.1,0,2.1-0.4,2.8-1.1c0.7-0.7,1.1-1.7,1.1-2.8v-1.6c0-1.1-0.4-2-1.1-2.8C95.5,27.8,94.6,27.4,93.5,27.4z M95.5,33
		c0,0.7-0.2,1.3-0.5,1.8c-0.4,0.5-0.8,0.7-1.5,0.7c-0.6,0-1.1-0.2-1.4-0.7c-0.3-0.5-0.5-1-0.5-1.8v-1.7c0-0.7,0.2-1.3,0.5-1.8
		c0.3-0.5,0.8-0.7,1.4-0.7c0.6,0,1.1,0.2,1.5,0.7c0.4,0.5,0.5,1,0.5,1.8V33z"/>
	<path fill="#FFFFFF" d="M102.8,33.3h1.6V35c-0.1,0.1-0.3,0.2-0.6,0.3c-0.3,0.1-0.6,0.1-1,0.1c-0.6,0-1.1-0.2-1.4-0.6
		c-0.4-0.4-0.5-1-0.5-1.7v-1.9c0-0.7,0.2-1.2,0.5-1.7c0.3-0.4,0.8-0.6,1.4-0.6c0.5,0,0.9,0.1,1.2,0.4c0.3,0.3,0.4,0.7,0.5,1.2h1.7
		l0,0c0-0.9-0.3-1.6-0.9-2.1c-0.6-0.5-1.4-0.8-2.6-0.8c-1.1,0-1.9,0.3-2.6,1s-1,1.6-1,2.7v1.9c0,1.1,0.4,2,1.1,2.7
		c0.7,0.7,1.6,1,2.7,1c0.9,0,1.6-0.1,2.2-0.4c0.6-0.3,1-0.6,1.3-1V32h-3.4V33.3z"/>
	<polygon fill="#FFFFFF" points="114.2,35.4 109.8,35.4 109.8,32.8 113.5,32.8 113.5,31.3 109.8,31.3 109.8,29 114.2,29 114.2,27.6 
		107.9,27.6 107.9,36.8 114.2,36.8 	"/>
	<polygon fill="#FFFFFF" points="118.5,36.8 120.3,36.8 120.3,29 122.9,29 122.9,27.6 115.9,27.6 115.9,29 118.5,29 	"/>
	<polygon fill="#FFFFFF" points="130.1,31.5 126.4,31.5 126.4,27.6 124.5,27.6 124.5,36.8 126.4,36.8 126.4,33 130.1,33 130.1,36.8 
		131.9,36.8 131.9,27.6 130.1,27.6 	"/>
	<polygon fill="#FFFFFF" points="135.5,32.8 139.3,32.8 139.3,31.3 135.5,31.3 135.5,29 139.9,29 139.9,27.6 133.7,27.6 133.7,36.8 
		140,36.8 140,35.4 135.5,35.4 	"/>
	<path fill="#FFFFFF" d="M146.3,33.5c0.2,0.3,0.4,0.6,0.4,1.1v0.7c0,0.3,0,0.6,0.1,0.9c0.1,0.3,0.2,0.5,0.3,0.7h1.9v-0.1
		c-0.2-0.1-0.3-0.3-0.4-0.6c-0.1-0.3-0.1-0.6-0.1-0.8v-0.7c0-0.6-0.1-1-0.4-1.4c-0.2-0.4-0.6-0.6-1.2-0.8c0.5-0.2,0.8-0.5,1.1-0.8
		c0.2-0.3,0.4-0.8,0.4-1.2c0-0.9-0.3-1.5-0.9-2c-0.6-0.5-1.4-0.7-2.4-0.7h-3.4v9.3h1.8v-3.7h1.7C145.7,33.1,146,33.2,146.3,33.5z
		 M143.5,31.7V29h1.6c0.5,0,0.9,0.1,1.1,0.4c0.3,0.3,0.4,0.6,0.4,1c0,0.4-0.1,0.8-0.4,1c-0.3,0.2-0.6,0.3-1.2,0.3H143.5z"/>
</g>
</svg>
